<?xml version="1.0" encoding="UTF-8"?><svg xmlns="http://www.w3.org/2000/svg" viewBox="0 0 722.83 186.73"><defs><style>.d{fill:#fff;}.e{fill:#231815;}</style></defs><g id="a"/><g id="b"><g id="c"><g><g><path class="d" d="M252.99,148.78c10.46-3.18,18.08-12.91,18.08-24.41,0-14.09-11.42-25.51-25.51-25.51h-31.18v86.46h28.35v-24.12l24.12,24.12h5.64v-17.04l-19.5-19.5Zm-6.01-15.91h-4.25v-14.17h4.25c3.91,0,7.09,3.17,7.09,7.09s-3.17,7.09-7.09,7.09Z"/><path class="e" d="M241.3,186h2.83v-20.68l20.7,20.7h4.01l-27.54-27.55v27.52Zm14.17-59.5c0-4.69-3.81-8.5-8.5-8.5h-5.67v17.01h5.67c4.69,0,8.5-3.81,8.5-8.5Zm-8.5,5.67h-2.83v-11.34h2.83c3.12,0,5.67,2.54,5.67,5.67s-2.54,5.67-5.67,5.67Zm8.61,17.91c10.2-4.06,16.9-13.84,16.9-25,0-14.85-12.08-26.93-26.93-26.93h-32.6v87.87h2.83V100.99h29.76c13.29,0,24.09,10.81,24.09,24.09,0,10.68-6.86,19.95-17.08,23.05l-2.26,.69,22.17,22.17v-4.01l-16.9-16.9Z"/></g><g><polygon class="d" points="676.57 98.86 676.57 124.37 651.06 98.86 639.72 98.86 639.72 186.73 659.56 186.73 659.56 161.22 685.07 186.73 696.41 186.73 696.41 98.86 676.57 98.86"/><path class="e" d="M677.99,98.86h-2.83v22.09l-22.09-22.09h-4.01l28.93,28.93v-28.93Zm-39.69,87.88h2.84V98.86h-2.84v87.88Zm19.84,0h2.83v-22.09l22.09,22.09h4.01l-28.93-28.93v28.93Zm36.85-87.88v87.88h2.84V98.86h-2.84Z"/></g><g><polygon class="d" points="130.71 100.28 71.18 100.28 71.18 128.62 102.36 128.62 71.18 159.8 71.18 185.32 130.71 185.32 130.71 156.97 99.53 156.97 130.71 125.79 130.71 100.28"/><path class="e" d="M71.18,186.73h59.53v-2.84h-59.53v2.84Zm0-59.53v2.83h27.76l-27.76,27.76v4.01l34.6-34.61h-34.6Zm0-28.34v2.84h59.53v-2.84h-59.53Zm59.53,59.53v-2.83h-27.76l27.76-27.76v-4.01l-34.6,34.6h34.6Z"/></g><g><path class="d" d="M325.26,142.8c9.56-2.2,16.7-10.75,16.7-20.98,0-11.9-9.64-21.54-21.54-21.54h-36.57v85.04h36.57c11.9,0,21.54-9.64,21.54-21.54,0-10.23-7.14-18.77-16.7-20.97Zm-10.23,23.81h-4.25v-14.17h4.25c3.91,0,7.09,3.17,7.09,7.09s-3.17,7.09-7.09,7.09Zm0-33.45h-4.25v-14.17h4.25c3.91,0,7.09,3.17,7.09,7.09s-3.17,7.09-7.09,7.09Z"/><path class="e" d="M329.75,142.8c8.2-3.61,13.63-11.72,13.63-20.98,0-12.66-10.3-22.96-22.96-22.96h-36.57v2.83h36.57c11.1,0,20.13,9.03,20.13,20.13,0,9.31-6.27,17.28-15.28,19.51v2.94c9.01,2.23,15.28,10.2,15.28,19.51,0,11.1-9.03,20.12-20.13,20.12h-36.57v2.83h36.57c12.66,0,22.96-10.3,22.96-22.96,0-9.26-5.43-17.37-13.63-20.98Zm-6.21-16.73c0-4.69-3.81-8.5-8.5-8.5h-5.67v17.01h5.67c4.69,0,8.5-3.82,8.5-8.5Zm-11.34-5.67h2.83c3.13,0,5.67,2.55,5.67,5.67s-2.54,5.67-5.67,5.67h-2.83v-11.34Zm-2.84,47.62h5.67c4.69,0,8.5-3.81,8.5-8.5s-3.81-8.5-8.5-8.5h-5.67v17Zm2.84-14.17h2.83c3.13,0,5.67,2.54,5.67,5.67s-2.54,5.67-5.67,5.67h-2.83v-11.34Z"/></g><g><path class="d" d="M201.6,185.32h-36.57c-11.9,0-21.54-9.64-21.54-21.54,0-10.23,7.14-18.78,16.7-20.98-9.56-2.2-16.7-10.75-16.7-20.98,0-11.9,9.64-21.54,21.54-21.54h36.57v21.26h-7.09c-3.91,0-7.09,3.17-7.09,7.09s3.17,7.09,7.09,7.09h7.09v14.18h-7.09c-3.91,0-7.09,3.17-7.09,7.09s3.17,7.09,7.09,7.09h7.09v21.26Z"/><path class="e" d="M186.01,156.97c0,4.69,3.81,8.5,8.5,8.5h7.09v-2.83h-7.09c-3.13,0-5.67-2.54-5.67-5.67s2.54-5.67,5.67-5.67h7.09v-2.83h-7.09c-4.69,0-8.5,3.81-8.5,8.5Zm0-28.35c0,4.69,3.81,8.5,8.5,8.5h7.09v-2.83h-7.09c-3.13,0-5.67-2.54-5.67-5.67s2.54-5.67,5.67-5.67h7.09v-2.83h-7.09c-4.69,0-8.5,3.81-8.5,8.5Zm-20.98-29.76c-12.66,0-22.96,10.3-22.96,22.96,0,9.26,5.43,17.37,13.63,20.98-8.2,3.61-13.63,11.72-13.63,20.98,0,12.66,10.3,22.96,22.96,22.96h36.57v-2.83h-36.57c-11.1,0-20.13-9.03-20.13-20.13,0-9.31,6.27-17.28,15.28-19.51v-2.94c-9.01-2.23-15.28-10.2-15.28-19.51,0-11.1,9.03-20.12,20.13-20.12h36.57v-2.83h-36.57Z"/></g><g><path class="d" d="M.29,99.57v86.46H21.55v-11.34c0-3.91,3.17-7.09,7.09-7.09s7.09,3.17,7.09,7.09v11.34h21.26V99.57H.29Zm35.43,42.52h-14.17v-9.92c0-3.91,3.17-7.09,7.09-7.09s7.09,3.17,7.09,7.09v9.92Z"/><path class="e" d="M30.05,166.89c-4.69,0-8.5,3.82-8.5,8.5v11.34h2.83v-11.34c0-3.12,2.54-5.67,5.67-5.67s5.67,2.55,5.67,5.67v11.34h2.83v-11.34c0-4.69-3.81-8.5-8.5-8.5Zm0-42.52c-4.69,0-8.5,3.82-8.5,8.5v11.34h17.01v-11.34c0-4.69-3.81-8.5-8.5-8.5Zm5.67,17.01h-11.34v-8.5c0-3.12,2.54-5.67,5.67-5.67s5.67,2.55,5.67,5.67v8.5ZM.29,98.86v87.88H3.12V101.69H56.98v85.04h2.83V98.86H.29Z"/></g><g><path class="d" d="M356.16,99.57v86.46h21.26v-11.34c0-3.91,3.17-7.09,7.09-7.09s7.09,3.17,7.09,7.09v11.34h21.26V99.57h-56.69Zm35.43,42.52h-14.17v-9.92c0-3.91,3.17-7.09,7.09-7.09s7.09,3.17,7.09,7.09v9.92Z"/><path class="e" d="M384.5,166.89c-4.69,0-8.5,3.82-8.5,8.5v11.34h2.83v-11.34c0-3.12,2.54-5.67,5.67-5.67s5.67,2.55,5.67,5.67v11.34h2.83v-11.34c0-4.69-3.81-8.5-8.5-8.5Zm0-42.52c-4.69,0-8.5,3.82-8.5,8.5v11.34h17.01v-11.34c0-4.69-3.81-8.5-8.5-8.5Zm5.67,17.01h-11.34v-8.5c0-3.12,2.54-5.67,5.67-5.67s5.67,2.55,5.67,5.67v8.5Zm-35.43-42.52v87.88h2.83V101.69h53.86v85.04h2.83V98.86h-59.53Z"/></g><g><path class="d" d="M568.83,99.57v86.46h21.26v-11.34c0-3.91,3.17-7.09,7.09-7.09s7.09,3.17,7.09,7.09v11.34h21.26V99.57h-56.69Zm35.43,42.52h-14.17v-9.92c0-3.91,3.17-7.09,7.09-7.09s7.09,3.17,7.09,7.09v9.92Z"/><path class="e" d="M597.17,166.89c-4.69,0-8.5,3.82-8.5,8.5v11.34h2.83v-11.34c0-3.12,2.54-5.67,5.67-5.67s5.67,2.55,5.67,5.67v11.34h2.83v-11.34c0-4.69-3.81-8.5-8.5-8.5Zm0-42.52c-4.69,0-8.5,3.82-8.5,8.5v11.34h17.01v-11.34c0-4.69-3.81-8.5-8.5-8.5Zm5.67,17.01h-11.34v-8.5c0-3.12,2.54-5.67,5.67-5.67s5.67,2.55,5.67,5.67v8.5Zm-35.43-42.52v87.88h2.83V101.69h53.86v85.04h2.83V98.86h-59.53Z"/></g><g><path class="d" d="M496.52,186.01c.44,0,16.47,.01,16.91,0,22.87-.7,41.2-19.46,41.2-42.5v-43.94h-28.34v46.77h-29.76v39.67Z"/><path class="e" d="M508.99,186.73c-2.39,0-6.03,0-11.56,0h-.91v-2.84h.91c12.78,0,15.74,0,15.96,0,22.33-.68,39.82-18.73,39.82-41.08v-43.94h2.83v43.94c0,23.89-18.7,43.19-42.57,43.92-.1,0-.83,0-4.49,0Z"/><polygon class="e" points="527.7 147.05 496.52 147.05 496.52 144.22 524.87 144.22 524.87 98.87 527.7 98.87 527.7 147.05"/></g><g><polygon class="d" points="485.16 115.87 485.16 100.28 425.63 100.28 425.63 115.87 438.38 115.87 438.38 169.73 425.63 169.73 425.63 185.32 485.16 185.32 485.16 169.73 472.4 169.73 472.4 115.87 485.16 115.87"/><path class="e" d="M425.63,186.73h59.53v-2.83h-59.53v2.83Zm14.17-72.28h-14.17v2.83h11.34v51.03h-11.34v2.83h14.17v-56.69Zm-14.17-15.59v2.83h59.53v-2.83h-59.53Zm45.36,72.28h14.17v-2.83h-11.34v-51.03h11.34v-2.83h-14.17v56.69Z"/></g></g><path class="d" d="M178.58,0V36.85c0,3.91-3.17,7.09-7.09,7.09s-7.09-3.17-7.09-7.09V0h-21.26V58.11c0,15.65,12.69,28.34,28.35,28.34s28.35-12.69,28.35-28.34V0h-21.26Z"/><path class="d" d="M110.89,51.34c10.46-3.18,18.08-12.91,18.08-24.41,0-14.09-11.42-25.51-25.51-25.51h-31.18V87.87h28.35v-24.12l24.12,24.12h5.64v-17.04l-19.5-19.5Zm-6.01-15.91h-4.25v-14.17h4.25c3.91,0,7.09,3.17,7.09,7.09s-3.17,7.09-7.09,7.09Z"/><path class="d" d="M272.12,86.46h-36.57c-11.9,0-21.54-9.64-21.54-21.54,0-10.23,7.14-18.77,16.7-20.98-9.56-2.2-16.7-10.75-16.7-20.98,0-11.9,9.64-21.54,21.54-21.54h36.57V22.68h-7.09c-3.91,0-7.09,3.17-7.09,7.09s3.17,7.09,7.09,7.09h7.09v14.18h-7.09c-3.91,0-7.09,3.17-7.09,7.09s3.17,7.09,7.09,7.09h7.09v21.26Z"/><polygon class="d" points="0 1.42 0 42.52 15.59 42.52 15.59 87.87 43.94 87.87 43.94 42.52 59.53 42.52 59.53 1.42 0 1.42"/><path class="e" d="M0,43.94H14.17v43.94h2.83V41.1H0v2.83Zm42.52,43.94h2.83V43.94h14.17v-2.83h-17.01v46.77ZM0,0V2.84H59.53V0H0Z"/><path class="e" d="M171.5,45.36c4.69,0,8.5-3.81,8.5-8.5V0h-2.83V36.85c0,3.13-2.54,5.67-5.67,5.67s-5.67-2.54-5.67-5.67V0h-2.83V36.85c0,4.69,3.81,8.5,8.5,8.5ZM198.42,0V58.11c0,14.85-12.08,26.93-26.93,26.93s-26.93-12.08-26.93-26.93V0h-2.83V58.11c0,16.41,13.35,29.76,29.76,29.76s29.76-13.35,29.76-29.76V0h-2.83Z"/><path class="e" d="M99.21,87.85h2.83v-20.68l20.7,20.7h4.01l-27.54-27.55v27.52Zm14.17-59.5c0-4.69-3.81-8.5-8.5-8.5h-5.67v17.01h5.67c4.69,0,8.5-3.81,8.5-8.5Zm-8.5,5.67h-2.83v-11.34h2.83c3.12,0,5.67,2.54,5.67,5.67s-2.54,5.67-5.67,5.67Zm8.61,17.91c10.2-4.06,16.9-13.84,16.9-25C130.39,12.08,118.31,0,103.46,0h-32.6V87.87h2.83V2.84h29.76c13.29,0,24.09,10.81,24.09,24.09,0,10.68-6.86,19.95-17.08,23.05l-2.26,.69,22.17,22.17v-4.01l-16.9-16.9Z"/><g><polygon class="d" points="722.83 1.42 693.07 1.42 663.31 31.18 663.31 56.69 685.98 56.69 663.31 79.37 663.31 89.29 693.07 89.29 722.83 59.53 722.83 34.02 700.15 34.02 722.83 11.34 722.83 1.42"/><polygon class="d" points="469.13 55.28 469.13 1.42 452.12 1.42 452.12 87.88 510.23 87.88 510.23 55.28 469.13 55.28"/><path class="d" d="M347.24,36.85h21.26V2.84h-15.59c-23.48,0-42.52,19.04-42.52,42.52s19.04,42.52,42.52,42.52h15.59V53.86h-21.26c-4.7,0-8.5-3.81-8.5-8.5s3.81-8.5,8.5-8.5Z"/><path class="d" d="M632.47,52.76c10.46-3.18,18.08-12.91,18.08-24.41,0-14.09-11.42-25.51-25.51-25.51h-31.18V89.29h28.35v-24.12l24.12,24.12h5.64v-17.04l-19.5-19.5Zm-6.01-15.91h-4.25v-14.17h4.25c3.91,0,7.09,3.17,7.09,7.09s-3.17,7.09-7.09,7.09Z"/><path class="d" d="M437.95,31.18c0-15.65-12.69-28.34-28.35-28.34s-28.35,12.69-28.35,28.34h-1.42v28.35h1.42c0,15.66,12.69,28.35,28.35,28.35s28.35-12.69,28.35-28.35h1.42V31.18h-1.42Zm-21.26,18.6c0,3.91-3.17,7.09-7.09,7.09s-7.09-3.18-7.09-7.09v-8.5c0-3.91,3.17-7.09,7.09-7.09s7.09,3.17,7.09,7.09v8.5Z"/><path class="d" d="M579.68,31.18c0-15.65-12.69-28.34-28.35-28.34s-28.35,12.69-28.35,28.34h-1.42v28.35h1.42c0,15.66,12.69,28.35,28.35,28.35s28.35-12.69,28.35-28.35h1.42V31.18h-1.42Zm-21.26,18.6c0,3.91-3.17,7.09-7.09,7.09s-7.09-3.18-7.09-7.09v-8.5c0-3.91,3.17-7.09,7.09-7.09s7.09,3.17,7.09,7.09v8.5Z"/><path class="e" d="M453.54,1.42h-2.83V89.29h59.53v-2.83h-56.69V1.42Zm17.01,52.44V1.42h-2.83V56.69h42.52v-2.83h-39.68Z"/><path class="e" d="M409.6,4.25c14.85,0,26.93,12.08,26.93,26.93h2.83c0-16.41-13.35-29.76-29.76-29.76s-29.76,13.35-29.76,29.76h2.83c0-14.85,12.08-26.93,26.93-26.93Zm0,82.21c-14.85,0-26.93-12.08-26.93-26.93h-2.83c0,16.41,13.35,29.76,29.76,29.76s29.76-13.35,29.76-29.76h-2.83c0,14.85-12.08,26.93-26.93,26.93Zm-8.5-45.18v8.5c0,4.69,3.81,8.5,8.5,8.5s8.5-3.81,8.5-8.5v-8.5c0-4.69-3.81-8.5-8.5-8.5s-8.5,3.81-8.5,8.5Zm14.17,0v8.5c0,3.12-2.54,5.67-5.67,5.67s-5.67-2.54-5.67-5.67v-8.5c0-3.13,2.54-5.67,5.67-5.67s5.67,2.54,5.67,5.67Z"/><path class="e" d="M551.34,4.25c14.85,0,26.93,12.08,26.93,26.93h2.83c0-16.41-13.35-29.76-29.76-29.76s-29.76,13.35-29.76,29.76h2.83c0-14.85,12.08-26.93,26.93-26.93Zm-8.5,37.03v8.5c0,4.69,3.81,8.5,8.5,8.5s8.5-3.81,8.5-8.5v-8.5c0-4.69-3.81-8.5-8.5-8.5s-8.5,3.81-8.5,8.5Zm14.17,0v8.5c0,3.12-2.54,5.67-5.67,5.67s-5.67-2.54-5.67-5.67v-8.5c0-3.13,2.54-5.67,5.67-5.67s5.67,2.54,5.67,5.67Zm-5.67,45.18c-14.85,0-26.93-12.08-26.93-26.93h-2.83c0,16.41,13.35,29.76,29.76,29.76s29.76-13.35,29.76-29.76h-2.83c0,14.85-12.08,26.93-26.93,26.93Z"/><path class="e" d="M663.31,58.11h19.25l-19.25,19.26v4.01l26.1-26.1h-26.1v2.83ZM691.07,1.42l-27.76,27.76v4.01l31.77-31.77h-4.01Zm5.67,34.02h26.1v-2.83h-19.25l19.26-19.26v-4.01l-26.1,26.1Zm-1.66,53.86l27.76-27.76v-4.01l-31.77,31.77h4.01Z"/><path class="e" d="M620.79,89.26h2.83v-20.67l20.7,20.7h4.01l-27.55-27.55v27.52Zm14.17-59.5c0-4.69-3.81-8.5-8.5-8.5h-5.67v17.01h5.67c4.69,0,8.5-3.81,8.5-8.5Zm-8.5,5.67h-2.83v-11.34h2.83c3.13,0,5.67,2.54,5.67,5.67s-2.54,5.67-5.67,5.67Zm8.61,17.91c10.2-4.06,16.9-13.84,16.9-25,0-14.85-12.08-26.93-26.93-26.93h-32.6V89.29h2.83V4.25h29.76c13.29,0,24.09,10.81,24.09,24.1,0,10.68-6.86,19.95-17.08,23.05l-2.26,.69,22.17,22.17v-4.01l-16.9-16.9Z"/><path class="e" d="M337.32,45.36c0,5.47,4.45,9.92,9.92,9.92h21.26v-2.83h-21.26c-3.91,0-7.09-3.18-7.09-7.09s3.18-7.09,7.09-7.09h21.26v-2.83h-21.26c-5.47,0-9.92,4.45-9.92,9.92ZM352.91,1.42c-24.23,0-43.94,19.71-43.94,43.94s19.71,43.94,43.94,43.94h15.59v-2.83h-15.59c-22.66,0-41.1-18.44-41.1-41.1s18.44-41.1,41.1-41.1h15.59V1.42h-15.59Z"/></g><path class="e" d="M256.53,58.11c0,4.69,3.81,8.5,8.5,8.5h7.09v-2.83h-7.09c-3.13,0-5.67-2.54-5.67-5.67s2.54-5.67,5.67-5.67h7.09v-2.83h-7.09c-4.69,0-8.5,3.81-8.5,8.5Zm0-28.35c0,4.69,3.81,8.5,8.5,8.5h7.09v-2.83h-7.09c-3.13,0-5.67-2.54-5.67-5.67s2.54-5.67,5.67-5.67h7.09v-2.83h-7.09c-4.69,0-8.5,3.81-8.5,8.5ZM235.56,0c-12.66,0-22.96,10.3-22.96,22.96,0,9.26,5.43,17.37,13.63,20.98-8.2,3.61-13.63,11.72-13.63,20.98,0,12.66,10.3,22.96,22.96,22.96h36.57v-2.83h-36.57c-11.1,0-20.13-9.03-20.13-20.13,0-9.31,6.27-17.28,15.28-19.51v-2.94c-9.01-2.23-15.28-10.2-15.28-19.51,0-11.1,9.03-20.12,20.13-20.12h36.57V0h-36.57Z"/></g></g></svg>