<svg viewBox="0 0 1045.41 269.91" xmlns="http://www.w3.org/2000/svg" xmlns:xlink="http://www.w3.org/1999/xlink"><clipPath id="a"><path d="m958 3.4h84v123.58h-84z"/></clipPath><clipPath id="b"><path d="m100 3.4h84v123.58h-84z"/></clipPath><clipPath id="c"><path d="m858 3.4h84v123.58h-84z"/></clipPath><clipPath id="d"><path d="m400 142.92h84v123.57h-84z"/></clipPath><path d="m184 264.51h-51.6a30.28 30.28 0 0 1 -6.84-59.8 30.27 30.27 0 0 1 6.84-59.79h51.6v29.89h-10a10 10 0 1 0 0 19.93h10v19.94h-10a10 10 0 1 0 0 19.93h10z" fill="#fff"/><path d="m202 144.92v121.58h30v-15.95a10 10 0 0 1 20 0v15.95h30v-121.58zm50 59.79h-20v-14a10 10 0 0 1 20 0z" fill="#fff"/><path d="m58.44 204.71a30.28 30.28 0 0 0 -6.84-59.8h-51.6v119.59h51.6a30.27 30.27 0 0 0 6.84-59.79zm-14.44 33.48h-6v-19.93h6a10 10 0 1 1 0 19.93zm0-47h-6v-19.97h6a10 10 0 1 1 0 19.93z" fill="#fff"/><path d="m484 142.92h-42l-42 41.86v35.87h32l-32 31.89v13.96h42l42-41.86v-35.87h-32l32-31.89z" fill="#fff"/><path d="m384 202.72h-22v63.78h-40v-63.78h-22v-57.8h84z" fill="#fff"/><path d="m252 3.4v51.83a10 10 0 0 1 -20 0v-51.83h-30v81.72a40 40 0 0 0 80 0v-81.72z" fill="#fff"/><path d="m1042 3.4h-42l-42 41.86v35.88h32l-32 31.89v13.95h42l42-41.85v-35.88h-32l32-31.89z" fill="#fff"/><path d="m742 124.99h-82v-121.58h24v75.74h58z" fill="#fff"/><path d="m156.48 75.6a35.86 35.86 0 0 0 -10.48-70.2h-44v121.6h40v-33.95l34 33.95h8v-24zm-8.48-22.37h-6v-19.93h6a10 10 0 1 1 0 19.93z" fill="#fff"/><path d="m542 77.15h-30a12 12 0 1 1 0-23.92h30v-47.83h-22a59.8 59.8 0 1 0 0 119.6h22z" fill="#fff"/><path d="m914.48 75.6a35.86 35.86 0 0 0 -10.48-70.2h-44v121.6h40v-33.95l34 33.95h8v-24zm-8.48-22.37h-6v-19.93h6a10 10 0 1 1 0 19.93z" fill="#fff"/><path d="m384 125h-51.6a30.28 30.28 0 0 1 -6.84-59.8 30.27 30.27 0 0 1 6.84-59.8h51.6v29.89h-10a10 10 0 1 0 0 19.93h10v19.94h-10a10 10 0 1 0 0 19.93h10z" fill="#fff"/><path d="m640 45.26a40 40 0 0 0 -80 0h-2v39.86h2a40 40 0 0 0 80 0h2v-39.86zm-30 26.16a10 10 0 0 1 -20 0v-12a10 10 0 0 1 20 0z" fill="#fff"/><path d="m84 63.2h-22v63.78h-40v-63.78h-22v-57.8h84z" fill="#fff"/><path d="m840 45.26a40 40 0 0 0 -80 0h-2v39.86h2a40 40 0 0 0 80 0h2v-39.86zm-30 26.16a10 10 0 0 1 -20 0v-12a10 10 0 0 1 20 0z" fill="#fff"/><g fill="#221714"><path d="m24 126.98h-4v-61.78h-20v-4h24z"/><path d="m64 126.98h-4v-65.78h24v4h-20z"/><path d="m384 57.22h-10a12 12 0 1 1 0-23.93h10v4h-10a8 8 0 1 0 0 15.93h10z"/><path d="m384 97.09h-10a12 12 0 1 1 0-23.93h10v4h-10a8 8 0 1 0 0 15.93h10z"/><path d="m242 67.19a12 12 0 0 1 -12-12v-51.79h4v51.83a8 8 0 0 0 16 0v-51.83h4v51.83a12 12 0 0 1 -12 11.96z"/><path d="m0 3.4h84v4h-84z"/><path d="m742 81.15h-60v-77.74h4v73.74h56z"/><path d="m600 83.38a12 12 0 0 1 -12-12v-12a12 12 0 0 1 24 0v12a12 12 0 0 1 -12 12zm0-31.89a8 8 0 0 0 -8 8v12a8 8 0 0 0 16 0v-12a8 8 0 0 0 -8-8z"/><path d="m542 79.15h-30a14 14 0 1 1 0-27.92h30v4h-30a10 10 0 1 0 0 19.92h30z"/><path d="m742 126.99h-84v-123.58h4v119.58h80z"/><path d="m242 127a42 42 0 0 1 -42-41.87v-81.73h4v81.72a38 38 0 0 0 76 0v-81.72h4v81.72a42 42 0 0 1 -42 41.88z"/><path d="m600 127a42 42 0 0 1 -42-41.87h4a38 38 0 0 0 76 0h4a42 42 0 0 1 -42 41.87z"/><path d="m642 45.26h-4a38 38 0 0 0 -76 0h-4a42 42 0 0 1 84 0z"/><path d="m800 83.38a12 12 0 0 1 -12-12v-12a12 12 0 0 1 24 0v12a12 12 0 0 1 -12 12zm0-31.89a8 8 0 0 0 -8 8v12a8 8 0 0 0 16 0v-12a8 8 0 0 0 -8-8z"/><path d="m800 127a42 42 0 0 1 -42-41.87h4a38 38 0 0 0 76 0h4a42 42 0 0 1 -42 41.87z"/><path d="m842 45.26h-4a38 38 0 0 0 -76 0h-4a42 42 0 0 1 84 0z"/><g clip-path="url(#a)"><path d="m988.53 104.06h64.94v4h-64.94z" transform="matrix(.70821663 -.70599519 .70599519 .70821663 223.05 751.78)"/><path d="m1041.99 51.25h-36.84l37.43-37.3 2.83 2.84-30.57 30.46h27.15z"/><path d="m946.53 22.34h64.94v4h-64.94z" transform="matrix(.70821663 -.70599519 .70599519 .70821663 268.49 698.28)"/><path d="m957.41 116.44-2.82-2.83 30.57-30.47h-27.16v-4h36.84z"/></g><path d="m384 127h-51.6a32.28 32.28 0 0 1 -13.18-61.8 32.27 32.27 0 0 1 13.18-61.8h51.6v4h-51.6a28.27 28.27 0 0 0 -6.4 55.84v3.9a28.28 28.28 0 0 0 6.4 55.86h51.6z"/><g clip-path="url(#b)"><path d="m176.59 130.35-32.59-32.48v29.07h-4v-38.7l39.41 39.27z"/><path d="m104 127h-4v-123.6h46a37.86 37.86 0 0 1 14.15 73l27.26 27.16-2.82 2.83-31.89-31.73 3.2-1a33.86 33.86 0 0 0 -9.9-66.26h-42z"/><path d="m148 55.23h-8v-23.93h8a12 12 0 1 1 0 23.93zm-4-4h4a8 8 0 1 0 0-15.93h-4z"/></g><g clip-path="url(#c)"><path d="m934.58 130.35-32.58-32.48v29.07h-4v-38.7l39.41 39.27z"/><path d="m862 127h-4v-123.6h46a37.86 37.86 0 0 1 14.15 73l27.26 27.16-2.83 2.83-31.88-31.73 3.2-1a33.86 33.86 0 0 0 -9.9-66.26h-42z"/><path d="m906 55.23h-8v-23.93h8a12 12 0 1 1 0 23.93zm-4-4h4a8 8 0 1 0 0-15.93h-4z"/></g><path d="m542 127h-22a61.8 61.8 0 1 1 0-123.6h22v4h-22a57.8 57.8 0 1 0 0 115.6h22z"/><path d="m184 196.74h-10a12 12 0 1 1 0-23.93h10v4h-10a8 8 0 1 0 0 15.93h10z"/><path d="m184 236.61h-10a12 12 0 1 1 0-23.93h10v4h-10a8 8 0 1 0 0 15.93h10z"/><path d="m184 266.51h-51.6a32.28 32.28 0 0 1 -13.18-61.8 32.27 32.27 0 0 1 13.18-61.79h51.6v4h-51.6a28.27 28.27 0 0 0 -6.4 55.84v3.9a28.28 28.28 0 0 0 6.39 55.85h51.61z"/><path d="m254 266.5h-4v-15.95a8 8 0 0 0 -16 0v15.95h-4v-15.95a12 12 0 0 1 24 0z"/><path d="m254 206.71h-24v-16a12 12 0 0 1 24 0zm-20-4h16v-12a8 8 0 0 0 -16 0z"/><path d="m283.99 266.5h-4v-119.58h-76v119.58h-4v-123.58h84z"/><path d="m44 240.19h-8v-23.93h8a12 12 0 1 1 0 23.93zm-4-4h4a8 8 0 1 0 0-15.93h-4z"/><path d="m44 193.15h-8v-23.93h8a12 12 0 1 1 0 23.93zm-4-4h4a8 8 0 1 0 0-15.93h-4z"/><path d="m51.6 266.5h-51.6v-4h51.6a28.27 28.27 0 0 0 6.4-55.84v-3.9a28.28 28.28 0 0 0 -6.39-55.85h-51.61v-4h51.6a32.28 32.28 0 0 1 13.18 61.8 32.27 32.27 0 0 1 -13.18 61.79z"/><path d="m324 266.5h-4v-61.78h-20v-4h24z"/><path d="m364 266.5h-4v-65.78h24v4h-20z"/><path d="m300 142.92h84v4h-84z"/><g clip-path="url(#d)"><path d="m430.53 243.57h64.94v4h-64.94z" transform="matrix(.70846302 -.70574793 .70574793 .70846302 -38.33 398.36)"/><path d="m484 190.77h-36.84l37.42-37.3 2.83 2.83-30.57 30.47h27.16z"/><path d="m388.53 161.85h64.94v4h-64.94z" transform="matrix(.70846302 -.70574793 .70574793 .70846302 7.1 344.9)"/><path d="m399.41 255.96-2.82-2.84 30.57-30.47h-27.16v-4h36.84z"/></g></g><path d="m37.17 194.74h21.27v17.05h-21.27z" fill="#fff"/></svg>