<svg xmlns="http://www.w3.org/2000/svg" viewBox="0 0 725.67 188.36"><defs><style>.cls-1{fill:#fff;}.cls-2{fill:#231815;}</style></defs><g id="レイヤー_2" data-name="レイヤー 2"><g id="Lines"><path class="cls-1" d="M178.58,1V37.83a7.09,7.09,0,1,1-14.17,0V1H143.15V59.1a28.35,28.35,0,0,0,56.69,0V1Z"/><polygon class="cls-1" points="725.67 0 695.9 0 666.14 29.76 666.14 55.27 688.82 55.27 666.14 77.95 666.14 87.88 695.9 87.88 725.67 58.11 725.67 32.6 702.99 32.6 725.67 9.92 725.67 0"/><polygon class="cls-1" points="471.96 53.97 471.96 0.12 454.96 0.12 454.96 86.57 513.07 86.57 513.07 53.97 471.96 53.97"/><path class="cls-1" d="M110.89,51.45a25.51,25.51,0,0,0-7.43-49.92H72.28V88h28.35V63.86L124.75,88h5.64V71Zm-6-15.91h-4.25V21.37h4.25a7.09,7.09,0,1,1,0,14.17Z"/><path class="cls-1" d="M350.29,36.1h21.27v-34H356a42.52,42.52,0,0,0,0,85h15.59v-34H350.29a8.5,8.5,0,0,1,0-17Z"/><path class="cls-1" d="M635.52,52a25.51,25.51,0,0,0-7.43-49.92H596.91V88.54h28.35V64.41l24.12,24.13H655v-17Zm-6-15.9h-4.25V21.92h4.25a7.09,7.09,0,1,1,0,14.18Z"/><path class="cls-1" d="M272.12,86.57H235.56a21.53,21.53,0,0,1-4.85-42.52,21.53,21.53,0,0,1,4.85-42.52h36.56V22.78H265A7.09,7.09,0,0,0,265,37h7.08V51.14H265a7.09,7.09,0,1,0,0,14.17h7.08Z"/><path class="cls-1" d="M440.79,29.88a28.35,28.35,0,0,0-56.7,0h-1.41V58.22h1.41a28.35,28.35,0,0,0,56.7,0h1.41V29.88Zm-21.26,18.6a7.09,7.09,0,0,1-14.18,0V40a7.09,7.09,0,0,1,14.18,0Z"/><polygon class="cls-1" points="0 1.53 0 42.63 15.59 42.63 15.59 87.98 43.94 87.98 43.94 42.63 59.53 42.63 59.53 1.53 0 1.53"/><path class="cls-1" d="M582.52,29.88a28.35,28.35,0,0,0-56.7,0h-1.41V58.23h1.41a28.35,28.35,0,0,0,56.7,0h1.41V29.88Zm-21.26,18.6a7.09,7.09,0,0,1-14.18,0V40a7.09,7.09,0,0,1,14.18,0Z"/><path class="cls-2" d="M0,44.05H14.17V88H17V41.21H0ZM42.52,88h2.83V44.05H59.53V41.21h-17ZM0,.11V2.94H59.53V.11Z"/><path class="cls-2" d="M456.37.11h-2.83V88h59.53V85.15h-56.7Zm17,52.45V.11h-2.83V55.39h42.52V52.56Z"/><path class="cls-2" d="M171.5,45.46A8.51,8.51,0,0,0,180,37V.11h-2.84V37a5.67,5.67,0,1,1-11.33,0V.11H163V37A8.51,8.51,0,0,0,171.5,45.46ZM198.42.11V58.22a26.93,26.93,0,1,1-53.86,0V.11h-2.83V58.22a29.77,29.77,0,0,0,59.53,0V.11Z"/><path class="cls-2" d="M412.44,3a27,27,0,0,1,26.93,26.93h2.83a29.76,29.76,0,1,0-59.52,0h2.83A27,27,0,0,1,412.44,3Zm0,82.2a27,27,0,0,1-26.93-26.93h-2.83a29.76,29.76,0,1,0,59.52,0h-2.83A27,27,0,0,1,412.44,85.15ZM403.94,40v8.51a8.5,8.5,0,1,0,17,0V40a8.5,8.5,0,1,0-17,0Zm14.17,0v8.51a5.67,5.67,0,1,1-11.34,0V40a5.67,5.67,0,1,1,11.34,0Z"/><path class="cls-2" d="M554.17,3A27,27,0,0,1,581.1,29.88h2.83a29.76,29.76,0,1,0-59.52,0h2.83A27,27,0,0,1,554.17,3Zm-8.5,37v8.5a8.5,8.5,0,1,0,17,0V40a8.5,8.5,0,1,0-17,0Zm14.17,0v8.5a5.67,5.67,0,0,1-11.34,0V40a5.67,5.67,0,0,1,11.34,0Zm-5.67,45.17a27,27,0,0,1-26.93-26.92h-2.83a29.76,29.76,0,1,0,59.52,0H581.1A27,27,0,0,1,554.17,85.15Z"/><path class="cls-2" d="M666.14,56.69h19.25L666.14,76v4l26.1-26.1h-26.1ZM693.9,0,666.14,27.76v4L697.91,0Zm5.67,34h26.1V31.18H706.41l19.26-19.25v-4Zm-1.66,53.85,27.76-27.75v-4L693.9,87.87Z"/><path class="cls-2" d="M99.21,88h2.84V67.28L122.75,88h4L99.21,60.44Zm14.17-59.5a8.51,8.51,0,0,0-8.5-8.51H99.21V37h5.67A8.51,8.51,0,0,0,113.38,28.46Zm-8.5,5.67h-2.83V22.79h2.83a5.67,5.67,0,0,1,0,11.34ZM113.49,52a26.93,26.93,0,0,0-10-51.93H70.87V88H73.7v-85h29.76a24.1,24.1,0,0,1,7,47.15l-2.26.69L130.39,73v-4Z"/><path class="cls-2" d="M623.62,88h2.83V67.29L647.16,88h4L623.62,60.44Zm14.17-59.5a8.51,8.51,0,0,0-8.5-8.5h-5.67V37h5.67A8.51,8.51,0,0,0,637.79,28.46Zm-8.5,5.67h-2.83V22.79h2.83a5.67,5.67,0,1,1,0,11.34Zm8.61,17.92a26.93,26.93,0,0,0-10-51.93h-32.6V88h2.84V3h29.76a24.1,24.1,0,0,1,7,47.15l-2.26.69L654.8,73V69Z"/><path class="cls-2" d="M340.37,44.6a9.93,9.93,0,0,0,9.92,9.92h21.27V51.69H350.29a7.09,7.09,0,0,1,0-14.18h21.27V34.68H350.29A9.93,9.93,0,0,0,340.37,44.6ZM356,.66a43.94,43.94,0,0,0,0,87.88h15.59V85.7H356a41.1,41.1,0,1,1,0-82.2h15.59V.66Z"/><path class="cls-2" d="M256.53,58.22A8.52,8.52,0,0,0,265,66.73h7.08V63.89H265a5.67,5.67,0,0,1,0-11.34h7.08V49.72H265A8.52,8.52,0,0,0,256.53,58.22Zm0-28.35A8.52,8.52,0,0,0,265,38.38h7.08V35.54H265a5.67,5.67,0,0,1,0-11.34h7.08V21.37H265A8.51,8.51,0,0,0,256.53,29.87ZM235.56.11a23,23,0,0,0-9.33,43.94A23,23,0,0,0,235.56,88h36.56V85.15H235.56a20.11,20.11,0,0,1-4.85-39.63V42.58A20.11,20.11,0,0,1,235.56,3h36.56V.11Z"/><path class="cls-1" d="M37.93,136.62H59.19v-34H43.6a42.52,42.52,0,0,0,0,85H59.19v-34H37.93a8.51,8.51,0,0,1,0-17Z"/><path class="cls-2" d="M28.34,144.42a9.93,9.93,0,0,0,9.93,9.92H59.53v-2.83H38.27a7.09,7.09,0,0,1,0-14.18H59.53V134.5H38.27A9.93,9.93,0,0,0,28.34,144.42Zm15.6-43.94a43.94,43.94,0,0,0,0,87.88H59.53v-2.84H43.94a41.1,41.1,0,1,1,0-82.2H59.53v-2.84Z"/><path class="cls-1" d="M72.28,101.9v86.45H93.54V177a7.09,7.09,0,0,1,14.18,0v11.33H129V101.9Zm35.44,42.52H93.54V134.5a7.09,7.09,0,0,1,14.18,0Z"/><path class="cls-2" d="M100.63,168.51a8.51,8.51,0,0,0-8.5,8.51v11.34H95V177a5.67,5.67,0,0,1,11.34,0v11.34h2.83V177A8.51,8.51,0,0,0,100.63,168.51Zm0-42.52a8.51,8.51,0,0,0-8.5,8.51v11.33h17V134.5A8.51,8.51,0,0,0,100.63,126Zm5.67,17H95v-8.5a5.67,5.67,0,0,1,11.34,0ZM70.87,100.48v87.88H73.7V103.31h53.86v85.05h2.83V100.48Z"/><path class="cls-1" d="M181.76,151.82a25.51,25.51,0,0,0-7.43-49.92H143.15v86.45h28.34V164.23l24.13,24.12h5.64v-17Zm-6-15.91H171.5V121.74h4.25a7.09,7.09,0,0,1,0,14.17Z"/><path class="cls-2" d="M170.08,188.33h2.83V167.65l20.71,20.7h4l-27.54-27.54Zm14.17-59.5a8.51,8.51,0,0,0-8.5-8.51h-5.67v17h5.67A8.51,8.51,0,0,0,184.25,128.83Zm-8.5,5.67h-2.84V123.16h2.84a5.67,5.67,0,0,1,0,11.34Zm8.61,17.91a26.93,26.93,0,0,0-10-51.93h-32.6v87.87h2.84v-85h29.76a24.1,24.1,0,0,1,7,47.15l-2.26.69,22.17,22.17v-4Z"/><path class="cls-1" d="M214,101.9v86.45h21.26V177a7.09,7.09,0,1,1,14.18,0v11.33h21.26V101.9Zm35.44,42.52H235.27V134.5a7.09,7.09,0,1,1,14.18,0Z"/><path class="cls-2" d="M242.36,168.51a8.51,8.51,0,0,0-8.5,8.51v11.34h2.83V177A5.67,5.67,0,1,1,248,177v11.34h2.83V177A8.51,8.51,0,0,0,242.36,168.51Zm0-42.52a8.51,8.51,0,0,0-8.5,8.51v11.33h17V134.5A8.51,8.51,0,0,0,242.36,126ZM248,143H236.69v-8.5a5.67,5.67,0,1,1,11.34,0ZM212.6,100.48v87.88h2.83V103.31h53.86v85.05h2.83V100.48Z"/><polygon class="cls-1" points="310.39 100.48 284.88 100.48 284.88 188.35 300.47 188.35 342.99 145.83 342.99 100.48 335.9 100.48 310.39 125.99 310.39 100.48"/><path class="cls-2" d="M283.46,188.35h2.84V100.48h-2.84Zm50.44-87.87-22.09,22.09V100.48H309v28.93l28.94-28.93Zm-35.44,87.87h4L343,147.83v-4Z"/><path class="cls-1" d="M355.76,101.9v86.45H377V177a7.09,7.09,0,1,1,14.17,0v11.33h21.26V101.9Zm35.43,42.52H377V134.5a7.09,7.09,0,1,1,14.17,0Z"/><path class="cls-2" d="M384.1,168.51a8.51,8.51,0,0,0-8.5,8.51v11.34h2.83V177a5.67,5.67,0,1,1,11.34,0v11.34h2.84V177A8.52,8.52,0,0,0,384.1,168.51Zm0-42.52a8.51,8.51,0,0,0-8.5,8.51v11.33h17V134.5A8.52,8.52,0,0,0,384.1,126Zm5.67,17H378.43v-8.5a5.67,5.67,0,1,1,11.34,0Zm-35.43-42.52v87.88h2.83V103.31H411v85.05h2.84V100.48Z"/><polygon class="cls-1" points="463.46 100.39 463.46 125.9 437.95 100.39 426.61 100.39 426.61 188.26 446.45 188.26 446.45 162.75 471.96 188.26 483.3 188.26 483.3 100.39 463.46 100.39"/><path class="cls-2" d="M464.88,100.39h-2.83v22.09L440,100.39h-4l28.93,28.93Zm-39.69,87.87H428V100.39h-2.84Zm19.85,0h2.83V166.17L470,188.26h4L445,159.33Zm36.85-87.87v87.87h2.83V100.39Z"/></g></g></svg>