<svg viewBox="0 0 1041.86 263.97" xmlns="http://www.w3.org/2000/svg"><path d="m651.91 140v52a10 10 0 0 1 -20 0v-52h-30v82a40 40 0 1 0 80 0v-82z" fill="#fff"/><path d="m783.9 262h-51.6a30.39 30.39 0 0 1 -6.83-60 30.38 30.38 0 0 1 6.83-60h51.6v30h-10a10 10 0 0 0 0 20h10v20h-10a10 10 0 1 0 0 20h10z" fill="#fff"/><path d="m383.95 261.97h-81.99v-121.99h24v75.99h57.99z" fill="#fff"/><path d="m481.94 182a40 40 0 1 0 -80 0h-2v40h2a40 40 0 1 0 80 0h2v-40zm-30 26.24a10 10 0 1 1 -20 0v-12a10 10 0 1 1 20 0z" fill="#fff"/><path d="m202 142v122h30v-16a10 10 0 0 1 20 0v16h30v-122zm50 60h-20v-14a10 10 0 0 1 20 0z" fill="#fff"/><path d="m99.99 239.97h18v-75.99h-18v-22h83.99v22h-18v75.99h18v22h-83.99z" fill="#fff"/><path d="m581.93 202v60s-21.25 0-21.87 0a60 60 0 0 1 1.87-120h22v48h-30a12 12 0 0 0 0 24h8v-12z" fill="#fff"/><path d="m42 140h-40v124h40l42-42 .08-39.9zm0 74h-8v-24h8a12 12 0 1 1 0 24z" fill="#fff"/><path d="m252 0v52a10 10 0 0 1 -20 0v-52h-30v82a40 40 0 1 0 80 0v-82z" fill="#fff"/><path d="m1041.86 0h-41.99l-41.99 42v35.99h31.99l-31.99 32v14h41.99l41.99-42v-35.99h-31.99l31.99-32z" fill="#fff"/><path d="m741.9 121.99h-81.99v-121.98h24v75.98h57.99z" fill="#fff"/><path d="m156.47 72.44a36 36 0 0 0 -10.47-70.44h-44v122h40v-34l34 34h8v-24zm-8.47-22.44h-6v-20h6a10 10 0 0 1 0 20z" fill="#fff"/><path d="m541.93 74h-30a12 12 0 1 1 0-24h30v-48h-22a60 60 0 1 0 0 120h22z" fill="#fff"/><path d="m914.37 72.44a36 36 0 0 0 -10.49-70.44h-44v122h40v-34l34 34h8v-24zm-8.49-22.44h-6v-20h6a10 10 0 0 1 0 20z" fill="#fff"/><path d="m384 122h-51.64a30.39 30.39 0 0 1 -6.84-60 30.38 30.38 0 0 1 6.84-60h51.64v30h-10a10 10 0 1 0 0 20h10v20h-10a10 10 0 1 0 0 20h10z" fill="#fff"/><path d="m639.92 42a40 40 0 1 0 -80 0h-2v40h2a40 40 0 1 0 80 0h2v-40zm-30 26.24a10 10 0 1 1 -20 0v-12a10 10 0 0 1 20 0z" fill="#fff"/><path d="m83.99 59.99h-21.99v64h-40v-64h-21.99v-57.99h83.98z" fill="#fff"/><path d="m839.89 42a40 40 0 1 0 -80 0h-2v40h2a40 40 0 1 0 80 0h2v-40zm-30 26.24a10 10 0 1 1 -20 0v-12a10 10 0 1 1 20 0z" fill="#fff"/><g fill="#231815"><path d="m0 264h4v-124h-4zm44.82-124h-5.65l44.83 44.81v-5.66zm11.18 62a14 14 0 0 0 -14-14h-10v28h10a14 14 0 0 0 14-14zm-20-10h6a10 10 0 1 1 0 20h-6zm8.82 72 39.18-39.2v-5.66l-44.83 44.86z"/><path d="m304 140h-4v124h84v-4h-80zm24 74v-74h-4v78h60v-4z"/><path d="m641.92 204a12 12 0 0 0 12-12v-52h-4v52a8 8 0 1 1 -16 0v-52h-4v52a12 12 0 0 0 12 12zm38-64v82a38 38 0 0 1 -76 0v-82h-4v82a42 42 0 0 0 84 0v-82z"/><path d="m563.93 216h-10a14 14 0 0 1 0-28h30v4h-30a10 10 0 0 0 0 20h6v-10h4z"/><path d="m566.29 263.94h-6.29a62 62 0 0 1 1.93-124h22v4h-22a58 58 0 0 0 -1.81 116h19.81v-57.94h4v62h-17.64z"/><path d="m242 236a12 12 0 0 0 -12 12v16h4v-16a8 8 0 0 1 16 0v16h4v-16a12 12 0 0 0 -12-12zm0-60a12 12 0 0 0 -12 12v16h24v-16a12 12 0 0 0 -12-12zm8 24h-16v-12a8 8 0 0 1 16 0zm-50-60v124h4v-120h76v120h4v-124z"/><path d="m441.94 144a38 38 0 0 1 38 38h4a42 42 0 0 0 -84 0h4a38 38 0 0 1 38-38zm-12 52.24v12a12 12 0 1 0 24 0v-12a12 12 0 1 0 -24 0zm20 0v12a8 8 0 1 1 -16 0v-12a8 8 0 1 1 16 0zm-8 63.75a38 38 0 0 1 -38-38h-4a42 42 0 0 0 84 0h-4a38 38 0 0 1 -38 38.01z"/><path d="m100 264h84v-4h-84zm20-102h-20v4h16v72h-16v4h20zm-20-22v4h84v-4zm64 102h20v-4h-16v-72h16v-4h-20z"/><path d="m761.9 222a12 12 0 0 0 12 12h10v-4h-10a8 8 0 1 1 0-16h10v-4h-10a12 12 0 0 0 -12 12zm0-40a12 12 0 0 0 12 12h10v-4h-10a8 8 0 0 1 0-16h10v-4h-10a12 12 0 0 0 -12 12zm-29.6-42a32.39 32.39 0 0 0 -13.16 62 32.39 32.39 0 0 0 13.16 62h51.6v-4h-51.6a28.39 28.39 0 0 1 -6.38-56.05v-3.95a28.38 28.38 0 0 1 6.38-56h51.6v-4z"/><path d="m0 62h20v62h4v-66h-24zm60 62h4v-62h20v-4h-24zm-60-124v4h84v-4z"/><path d="m661.91 0h-4v124h84v-4h-80zm24 74v-74h-4v78h60v-4z"/><path d="m242 64a12 12 0 0 0 12-12v-52h-4v52a8 8 0 0 1 -16 0v-52h-4v52a12 12 0 0 0 12 12zm38-64v82a38 38 0 0 1 -76 0v-82h-4v82a42 42 0 1 0 84 0v-82z"/><path d="m599.92 4a38 38 0 0 1 38 38h4a42 42 0 1 0 -84 0h4a38 38 0 0 1 38-38zm0 116a38 38 0 0 1 -38-38h-4a42 42 0 0 0 84 0h-4a38 38 0 0 1 -38 38zm-12-63.75v12a12 12 0 1 0 24 0v-12a12 12 0 1 0 -24 0zm20 0v12a8 8 0 1 1 -16 0v-12a8 8 0 0 1 16 0z"/><path d="m799.9 4a38 38 0 0 1 38 38h4a42 42 0 1 0 -84 0h4a38 38 0 0 1 38-38zm-12 52.24v12a12 12 0 1 0 24 0v-12a12 12 0 1 0 -24 0zm20 0v12a8 8 0 1 1 -16 0v-12a8 8 0 0 1 16 0zm-8 63.75a38 38 0 0 1 -38-38h-4a42 42 0 0 0 84 0h-4a38 38 0 0 1 -38 38.01z"/><path d="m957.88 80h27.12l-27.16 27.17v5.65l36.86-36.82h-36.82zm39.12-80-39.12 39.17v5.65l44.82-44.82zm8 48h36.82v-4h-27.17l27.17-27.17v-5.66zm-2.34 76 39.16-39.16v-5.67l-44.82 44.83z"/><path d="m332.36 0a32.39 32.39 0 0 0 -13.17 62 32.39 32.39 0 0 0 13.17 62h51.64v-4h-51.64a28.38 28.38 0 0 1 -6.39-56v-4a28.38 28.38 0 0 1 6.39-56h51.64v-4zm29.64 82a12 12 0 0 0 12 12h10v-4h-10a8 8 0 0 1 0-16h10v-4h-10a12 12 0 0 0 -12 12zm0-40a12 12 0 0 0 12 12h10v-4h-10a8 8 0 0 1 0-16h10v-4h-10a12 12 0 0 0 -12 12z"/><path d="m140 123.94h4v-29.17l29.2 29.23h5.65l-38.85-38.88zm20-83.94a12 12 0 0 0 -12-12h-8v24h8a12 12 0 0 0 12-12zm-12 8h-4v-16h4a8 8 0 0 1 0 16zm12.14 25.28a38 38 0 0 0 -14.14-73.28h-46v124h4v-120h42a34 34 0 0 1 9.91 66.52l-3.19 1 31.28 31.25v-5.65z"/><path d="m897.88 124h4v-29.23l29.21 29.23h5.66l-38.87-38.88zm20-83.95a12 12 0 0 0 -12-12h-8v23.95h8a12 12 0 0 0 12-12zm-12 8h-4v-16.05h4a8 8 0 0 1 0 16zm12.12 25.22a38 38 0 0 0 -14.12-73.27h-46v124h4v-120h42a34 34 0 0 1 9.9 66.52l-3.19 1 31.29 31.29v-5.69z"/><path d="m497.94 62a14 14 0 0 0 14 14h30v-4h-30a10 10 0 0 1 0-20h30v-4h-30a14 14 0 0 0 -14 14zm22-62a62 62 0 1 0 0 124h22v-4h-22a58 58 0 1 1 0-116h22v-4z"/></g></svg>