<svg xmlns="http://www.w3.org/2000/svg" viewBox="0 0 457.3 218.71"><defs><style>.a{fill:#fff;}.b{fill:#231815;}</style></defs><polygon class="a" points="59.99 43.22 44.4 43.22 44.4 88.58 16.05 88.58 16.05 43.22 0.46 43.22 0.46 2.12 59.99 2.12 59.99 43.22"/><path class="a" d="M72.74,88.58V.71H94V14.62a7.28,7.28,0,0,0,6.2,7.3,7.09,7.09,0,0,0,7.94-6.12,6.51,6.51,0,0,0,.06-.88V.7h21.25V88.57H108.17V74.67a7.28,7.28,0,0,0-6.2-7.3A7.09,7.09,0,0,0,94,73.49a6.51,6.51,0,0,0-.06.88V88.54Z"/><path class="a" d="M1.45,218V130.12H22.71V144a7.28,7.28,0,0,0,6.2,7.3,7.09,7.09,0,0,0,7.94-6.14,6.22,6.22,0,0,0,.06-.86V130.12H58.16V218H36.85V204.09a7.28,7.28,0,0,0-6.2-7.3,7.09,7.09,0,0,0-7.94,6.14,6.22,6.22,0,0,0-.06.86V218Z"/><path class="a" d="M256.53,218V130.12h21.26V144a7.28,7.28,0,0,0,6.2,7.3,7.09,7.09,0,0,0,7.94-6.12,6.51,6.51,0,0,0,.06-.88V130.12h21.26V218H292V204.09a7.28,7.28,0,0,0-6.2-7.3,7.09,7.09,0,0,0-7.94,6.12,6.51,6.51,0,0,0-.06.88V218Z"/><path class="b" d="M109.59,88.58h-2.84v-14a5.8,5.8,0,0,0-4.39-5.71,5.67,5.67,0,0,0-6.91,5.56V88.6H92.61V74.7A8.68,8.68,0,0,1,99.83,66a8.5,8.5,0,0,1,9.69,7.13,7.89,7.89,0,0,1,.1,1.28Z"/><path class="b" d="M99.8,23.29a8.69,8.69,0,0,1-7.22-8.69V.7h2.87v14a5.77,5.77,0,0,0,4.4,5.71,5.68,5.68,0,0,0,6.79-4.29,5.75,5.75,0,0,0,.14-1.24V.7h2.84V14.88a8.51,8.51,0,0,1-8.53,8.51A8,8,0,0,1,99.8,23.29Z"/><rect class="b" x="128.01" y="0.7" width="2.83" height="87.87"/><rect class="b" x="71.32" y="0.7" width="2.83" height="87.87"/><path class="b" d="M.45,44.64H14.62V88.58h2.83V41.81H.45ZM43,88.58H45.8V44.64H60V41.81H43ZM.45.71V3.54H60V.71Z"/><polygon class="a" points="143.12 72.28 155.87 72.28 155.87 18.42 143.12 18.42 143.12 2.83 202.64 2.83 202.64 18.42 189.89 18.42 189.89 72.28 202.64 72.28 202.64 87.87 143.12 87.87 143.12 72.28"/><path class="b" d="M143.12,89.29h59.53V86.43H143.12ZM157.29,17H143.12v2.84h11.33v51H143.12v2.84h14.17ZM143.12,1.43V4.27h59.53V1.43ZM188.45,73.7h14.2V70.86H191.31v-51h11.34V17h-14.2Z"/><path class="b" d="M38.26,218H35.45V204a5.77,5.77,0,0,0-4.4-5.71,5.68,5.68,0,0,0-6.8,4.28,5.84,5.84,0,0,0-.14,1.25V218H21.25V204.1a8.69,8.69,0,0,1,7.2-8.67,8.51,8.51,0,0,1,9.68,7.14,7.77,7.77,0,0,1,.1,1.27Z"/><path class="b" d="M28.45,152.71A8.7,8.7,0,0,1,21.22,144v-13.9h2.84v14a5.79,5.79,0,0,0,4.4,5.71,5.68,5.68,0,0,0,6.8-4.28,5.84,5.84,0,0,0,.14-1.25V130.12h2.83V144.3a8.51,8.51,0,0,1-8.51,8.51A8.94,8.94,0,0,1,28.45,152.71Z"/><rect class="b" x="56.69" y="130.12" width="2.83" height="87.87"/><rect class="b" y="130.12" width="2.83" height="87.87"/><polygon class="a" points="71.79 201.7 84.55 201.7 84.55 147.84 71.79 147.84 71.79 132.25 131.32 132.25 131.32 147.84 118.56 147.84 118.56 201.7 131.32 201.7 131.32 217.29 71.79 217.29 71.79 201.7"/><path class="b" d="M71.79,218.71h59.53v-2.84H71.79ZM86,146.43H71.79v2.84H83.13v51H71.79v2.84H86Zm-14.17-15.6v2.84h59.53v-2.84Zm45.36,72.29h14.17v-2.84H120v-51h11.34v-2.85H117.15Z"/><polygon class="a" points="273.97 0.7 244.21 0.7 214.45 30.47 214.45 55.98 237.12 55.98 214.45 78.66 214.45 88.58 244.21 88.58 273.97 58.81 273.97 33.31 251.29 33.31 273.97 10.62 273.97 0.7"/><path class="b" d="M214.45,57.43H233.7L214.45,76.65v4l26.09-26.1H214.45ZM242.21.74,214.45,28.43v4L246.21.66Zm5.66,34H274V31.91H254.72L274,12.65v-4ZM246.21,88.6,274,60.84v-4L242.21,88.61Z"/><polygon class="a" points="326.44 70.87 339.2 70.87 339.2 17 326.44 17 326.44 1.42 385.97 1.42 385.97 17 373.21 17 373.21 70.87 385.97 70.87 385.97 86.46 326.44 86.46 326.44 70.87"/><path class="b" d="M326.45,87.87H386V85H326.45Zm14.17-72.28H326.45v2.84h11.34v51H326.45v2.83h14.17ZM326.45,0V2.83H386V0ZM371.8,72.28H386V69.43H374.63v-51H386V15.6H371.79Z"/><polygon class="a" points="457.17 2.83 427.41 2.83 397.65 32.59 397.65 58.11 420.32 58.11 397.65 80.78 397.65 90.71 427.41 90.71 457.17 60.94 457.17 35.43 434.49 35.43 457.17 12.75 457.17 2.83"/><path class="b" d="M397.65,59.52H416.9L397.65,78.78v4l26.09-26.1H397.65Zm27.8-56.69-27.8,27.76v4l31.8-31.76Zm5.66,34h26.1V34H437.92l19.25-19.25v-4Zm-1.66,53.88L457.21,63V59L425.45,90.71Z"/><path class="a" d="M384.55,158.12a28.35,28.35,0,1,0-56.69-1.06c0,.35,0,.71,0,1.06h-1.41v28.31h1.42a28.35,28.35,0,0,0,56.69,0H386V158.12Zm-21.26,18.6a7.09,7.09,0,0,1-14.17.53,4.68,4.68,0,0,1,0-.53v-8.5a7.09,7.09,0,1,1,14.17-.53,4.68,4.68,0,0,1,0,.53Z"/><path class="b" d="M356.2,131.19a27,27,0,0,1,26.93,26.93H386A29.77,29.77,0,1,0,326.44,157c0,.36,0,.73,0,1.09h2.83A27,27,0,0,1,356.2,131.19Zm-8.5,37v8.51a8.51,8.51,0,0,0,17,0v-8.51a8.51,8.51,0,0,0-17,0Zm14.17,0v8.51a5.67,5.67,0,0,1-11.34,0v-8.51a5.67,5.67,0,0,1,11.34,0Zm-5.67,45.24a27,27,0,0,1-26.93-27h-2.82a29.77,29.77,0,0,0,59.53,0h-2.84A27,27,0,0,1,356.2,213.43Z"/><path class="a" d="M175.72,131.19H144.54v86.45h28.34v-35.4h2.84a25.51,25.51,0,0,0,0-51Zm1.41,34h-4.25V151h4.25a7.09,7.09,0,1,1,.53,14.17,4.69,4.69,0,0,1-.53,0Z"/><path class="b" d="M177.13,166.62h-5.68v-17h5.67a8.51,8.51,0,1,1,.82,17h-.81Zm-2.83-2.83h2.83a5.67,5.67,0,1,0,0-11.34H174.3Z"/><path class="b" d="M146,217.64h-2.83V129.77h32.6a26.93,26.93,0,1,1,0,53.86H174.3v34h-2.85V180.79h4.26a24.1,24.1,0,0,0,0-48.19H146Z"/><path class="b" d="M293.38,218h-2.84V204a5.78,5.78,0,0,0-4.39-5.71,5.68,5.68,0,0,0-6.8,4.28,5.84,5.84,0,0,0-.14,1.25V218h-2.84V204.1a8.69,8.69,0,0,1,7.22-8.69,8.52,8.52,0,0,1,9.69,7.15,7.64,7.64,0,0,1,.1,1.26Z"/><path class="b" d="M283.59,152.71a8.69,8.69,0,0,1-7.22-8.69v-13.9h2.84v14a5.8,5.8,0,0,0,4.39,5.71,5.68,5.68,0,0,0,6.8-4.28,5.84,5.84,0,0,0,.14-1.25V130.12h2.84V144.3a8.53,8.53,0,0,1-8.53,8.51A10.69,10.69,0,0,1,283.59,152.71Z"/><rect class="b" x="311.8" y="130.12" width="2.83" height="87.87"/><rect class="b" x="255.11" y="130.12" width="2.83" height="87.87"/><path class="a" d="M430.37,131.19H399.19v86.45h28.34v-35.4h2.84a25.51,25.51,0,0,0,0-51Zm1.42,34h-4.26V151h4.26a7.09,7.09,0,0,1,0,14.17Z"/><path class="b" d="M431.79,166.62h-5.67v-17h5.67a8.51,8.51,0,0,1,0,17ZM429,163.79h2.84a5.67,5.67,0,0,0,0-11.34H429Z"/><path class="b" d="M400.6,217.64h-2.83V129.77h32.6a26.93,26.93,0,1,1,0,53.86H429v34h-2.83V180.79h4.25a24.1,24.1,0,0,0,0-48.19H400.6Z"/></svg>