<svg viewBox="0 0 1041.86 263.97" xmlns="http://www.w3.org/2000/svg"><path d="m84 212h-24v52h-58v-122h82v30h-14a10 10 0 1 0 0 20h14z" fill="#fff"/><path d="m283.96 139.98h-41.99l-42 41.99v36h32l-32 32v13.99h42l41.99-41.99v-35.99h-32l32-32z" fill="#fff"/><path d="m581.92 182a40 40 0 1 0 -80 0h-2v40h2a40 40 0 1 0 80 0h2v-40zm-30 26.24a10 10 0 0 1 -20 0v-12a10 10 0 1 1 20 0z" fill="#fff"/><path d="m102 142v122h30v-16a10 10 0 0 1 20 0v16h30v-122zm50 60h-20v-14a10 10 0 0 1 20 0z" fill="#fff"/><path d="m399.94 239.97h18v-75.99h-18v-22h83.99v22h-18v75.99h18v22h-83.99z" fill="#fff"/><path d="m653.91 139.98v35.99l-35.99-35.99h-16.01v123.98h28v-35.99l36 35.99h15.99v-123.98z" fill="#fff"/><path d="m302 264v-124h30v20a10 10 0 0 0 20 0v-20h30v124h-30v-20a10 10 0 1 0 -20 0v20z" fill="#fff"/><path d="m252 0v52a10 10 0 0 1 -20 0v-52h-30v82a40 40 0 1 0 80 0v-82z" fill="#fff"/><path d="m1041.86 0h-42l-41.99 42v35.99h31.99l-31.99 32v14h42l41.99-42v-35.99h-32l32-32z" fill="#fff"/><path d="m741.9 121.99h-81.99v-121.98h23.99v75.98h58z" fill="#fff"/><path d="m156.46 72.44a36 36 0 0 0 -10.46-70.44h-44v122h40v-34l34 34h8v-24zm-8.46-22.44h-6v-20h6a10 10 0 0 1 0 20z" fill="#fff"/><path d="m541.93 74h-30a12 12 0 1 1 0-24h30v-48h-22a60 60 0 0 0 0 120h22z" fill="#fff"/><path d="m914.36 72.44a36 36 0 0 0 -10.48-70.44h-44v122h40v-34l34 34h8v-24zm-8.48-22.44h-6v-20h6a10 10 0 0 1 0 20z" fill="#fff"/><path d="m384 122h-51.6a30.39 30.39 0 0 1 -6.83-60 30.38 30.38 0 0 1 6.83-60h51.6v30h-10a10 10 0 1 0 0 20h10v20h-10a10 10 0 1 0 0 20h10z" fill="#fff"/><path d="m639.91 42a40 40 0 1 0 -80 0h-2v40h2a40 40 0 1 0 80 0h2v-40zm-30 26.24a10 10 0 1 1 -20 0v-12a10 10 0 0 1 20 0z" fill="#fff"/><path d="m83.99 59.99h-22v64h-39.99v-64h-22v-57.99h83.99z" fill="#fff"/><path d="m839.88 42a40 40 0 1 0 -80 0h-2v40h2a40 40 0 1 0 80 0h2v-40zm-30 26.24a10 10 0 1 1 -20 0v-12a10 10 0 0 1 20 0z" fill="#fff"/><g fill="#231815"><path d="m655.91 140h-4v31.16l-31.16-31.16h-5.66l40.82 40.82zm-56 124h4v-124h-4zm28 0h4v-31.21l31.17 31.21h5.65l-40.82-40.82zm52-124v124h4v-124z"/><path d="m58 264h4v-50h22v-4h-26zm0-82a12 12 0 0 0 12 12h14v-4h-14a8 8 0 1 1 0-16h14v-4h-14a12 12 0 0 0 -12 12zm-58-42v124h4v-120h80v-4z"/><path d="m200 220h27.17l-27.17 27.14v5.66l36.79-36.8h-36.79zm39.17-80-39.17 39.15v5.65l44.8-44.8zm8 48h36.83v-4h-27.21l27.21-27.19v-5.66zm-2.34 76 39.17-39.2v-5.65l-44.86 44.85z"/><path d="m142 236a12 12 0 0 0 -12 12v16h4v-16a8 8 0 1 1 16 0v16h4v-16a12 12 0 0 0 -12-12zm0-60a12 12 0 0 0 -12 12v16h24v-16a12 12 0 0 0 -12-12zm8 24h-16v-12a8 8 0 1 1 16 0zm-50-60v124h4v-120h76v120h4v-124z"/><path d="m399.94 264h84v-4h-84zm20-102h-20v4h16v72h-16v4h20zm-20-22v4h84v-4zm64 102h20v-4h-16v-72h16v-4h-20z"/><path d="m354 264h-4v-20a8 8 0 1 0 -16 0v20h-4v-20a12 12 0 1 1 24 0z"/><path d="m342 172a12 12 0 0 1 -12-12v-20h4v20a8 8 0 0 0 16 0v-20h4v20a12 12 0 0 1 -12 12z"/><path d="m379.94 139.98h4v123.98h-4z"/><path d="m299.95 139.98h4v123.98h-4z"/><path d="m541.92 144a38 38 0 0 1 38 38h4a42 42 0 1 0 -84 0h4a38 38 0 0 1 38-38zm0 116a38 38 0 0 1 -38-38h-4a42 42 0 0 0 84 0h-4a38 38 0 0 1 -38 38zm-12-63.74v12a12 12 0 0 0 24 0v-12a12 12 0 1 0 -24 0zm20 0v12a8 8 0 1 1 -16 0v-12a8 8 0 1 1 16 0z"/><path d="m0 62h20v62h4v-66h-24zm60 62h4v-62h20v-4h-24zm-60-124v4h84v-4z"/><path d="m661.91 0h-4v124h84v-4h-80zm24 74v-74h-4v78h60v-4z"/><path d="m242 64a12 12 0 0 0 12-12v-52h-4v52a8 8 0 1 1 -16 0v-52h-4v52a12 12 0 0 0 12 12zm38-64v82a38 38 0 0 1 -76 0v-82h-4v82a42 42 0 0 0 84 0v-82z"/><path d="m599.92 4a38 38 0 0 1 38 38h4a42 42 0 1 0 -84 0h4a38 38 0 0 1 38-38zm0 116a38 38 0 0 1 -38-38h-4a42 42 0 0 0 84 0h-4a38 38 0 0 1 -38 38zm-12-63.75v12a12 12 0 0 0 24 0v-12a12 12 0 0 0 -24 0zm20 0v12a8 8 0 1 1 -16 0v-12a8 8 0 0 1 16 0z"/><path d="m799.89 4a38 38 0 0 1 38 38h4a42 42 0 1 0 -84 0h4a38 38 0 0 1 38-38zm-12 52.24v12a12 12 0 0 0 24 0v-12a12 12 0 0 0 -24 0zm20 0v12a8 8 0 1 1 -16 0v-12a8 8 0 0 1 16 0zm-8 63.75a38 38 0 0 1 -38-38h-4a42 42 0 0 0 84 0h-4a38 38 0 0 1 -38 38.01z"/><path d="m957.87 80h27.13l-27.17 27.17v5.65l36.86-36.82h-36.82zm39.13-80-39.13 39.17v5.65l44.82-44.82zm8 48h36.83v-4h-27.17l27.17-27.17v-5.66zm-2.34 76 39.17-39.16v-5.67l-44.83 44.83z"/><path d="m332.35 0a32.39 32.39 0 0 0 -13.16 62 32.39 32.39 0 0 0 13.16 62h51.65v-4h-51.6a28.38 28.38 0 0 1 -6.38-56v-4a28.38 28.38 0 0 1 6.38-56h51.6v-4zm29.65 82a12 12 0 0 0 12 12h10v-4h-10a8 8 0 0 1 0-16h10v-4h-10a12 12 0 0 0 -12 12zm0-40a12 12 0 0 0 12 12h10v-4h-10a8 8 0 0 1 0-16h10v-4h-10a12 12 0 0 0 -12 12z"/><path d="m140 123.94h4v-29.17l29.19 29.23h5.66l-38.85-38.88zm20-83.94a12 12 0 0 0 -12-12h-8v24h8a12 12 0 0 0 12-12zm-12 8h-4v-16h4a8 8 0 1 1 0 16zm12.15 25.28a38 38 0 0 0 -14.15-73.28h-46v124h4v-120h42a34 34 0 0 1 9.9 66.52l-3.19 1 31.29 31.25v-5.65z"/><path d="m897.88 124h4v-29.23l29.21 29.23h5.65l-38.86-38.88zm20-83.95a12 12 0 0 0 -12-12h-8v23.95h8a12 12 0 0 0 11.99-12zm-12 8h-4v-16.05h4a8 8 0 0 1 0 16zm12.12 25.22a38 38 0 0 0 -14.12-73.27h-46v124h4v-120h42a34 34 0 0 1 9.9 66.52l-3.19 1 31.28 31.29v-5.69z"/><path d="m497.93 62a14 14 0 0 0 14 14h30v-4h-30a10 10 0 0 1 0-20h30v-4h-30a14 14 0 0 0 -14 14zm22-62a62 62 0 1 0 0 124h22v-4h-22a58 58 0 0 1 0-116h22v-4z"/></g></svg>