<svg viewBox="0 0 1041.86 263.97" xmlns="http://www.w3.org/2000/svg"><path d="m102 142v122h30v-16a10 10 0 1 1 20 0v16h30v-122zm50 60h-20v-14a10 10 0 0 1 20 0z" fill="#fff"/><path d="m283.96 141.98h-83.99v39.99h43.99l-43.99 44v35.99h83.99v-39.98h-44l44-44z" fill="#fff"/><path d="m0 261.94h23.86a60 60 0 0 0 58.14-59.94v-62h-40v66h-42z" fill="#fff"/><path d="m383.94 141.98h-83.99v39.99h44l-44 44v35.99h83.99v-39.98h-43.99l43.99-44z" fill="#fff"/><path d="m252 0v52a10 10 0 1 1 -20 0v-52h-30v82a40 40 0 1 0 80 0v-82z" fill="#fff"/><path d="m1041.86 0h-41.99l-42 42v35.99h32l-32 32v14h42l41.99-42v-35.99h-32l32-32z" fill="#fff"/><path d="m741.9 121.99h-81.99v-121.98h24v75.98h57.99z" fill="#fff"/><path d="m156.46 72.44a36 36 0 0 0 -10.46-70.44h-44v122h40v-34l34 34h8v-24zm-8.46-22.44h-6v-20h6a10 10 0 0 1 0 20z" fill="#fff"/><path d="m541.93 74h-30a12 12 0 1 1 0-24h30v-48h-22a60 60 0 0 0 0 120h22z" fill="#fff"/><path d="m914.36 72.44a36 36 0 0 0 -10.48-70.44h-44v122h40v-34l34 34h8v-24zm-8.48-22.44h-6v-20h6a10 10 0 0 1 0 20z" fill="#fff"/><path d="m384 122h-51.6a30.38 30.38 0 0 1 -6.83-60 30.39 30.39 0 0 1 6.83-60h51.6v30h-10a10 10 0 1 0 0 20h10v20h-10a10 10 0 1 0 0 20h10z" fill="#fff"/><path d="m639.91 42a40 40 0 1 0 -80 0h-2v40h2a40 40 0 1 0 80 0h2v-40zm-30 26.24a10 10 0 1 1 -20 0v-12a10 10 0 0 1 20 0z" fill="#fff"/><path d="m83.99 59.99h-22v64h-39.99v-64h-22v-57.99h83.99z" fill="#fff"/><path d="m839.89 42a40 40 0 1 0 -80 0h-2v40h2a40 40 0 1 0 80 0h2v-40zm-30 26.24a10 10 0 1 1 -20 0v-12a10 10 0 0 1 20 0z" fill="#fff"/><g fill="#231815"><path d="m200 264h84v-4h-84zm0-84v4h39.16l-39.16 39.14v5.65l48.79-48.79zm0-40v4h84v-4zm84 84v-4h-39.21l39.21-39.19v-5.66l-48.87 48.85z"/><path d="m300 264h84v-4h-84zm0-84v4h39.16l-39.16 39.14v5.65l48.77-48.79zm0-40v4h84v-4zm84 84v-4h-39.22l39.16-39.17v-5.66l-48.82 48.83z"/><path d="m17.59 264h-17.59v-4h23.81a57.72 57.72 0 0 0 56.19-58v-62h4v62a61.69 61.69 0 0 1 -60.06 62z"/><path d="m44 207.97h-44v-4h40v-63.99h4z"/><path d="m142 236a12 12 0 0 0 -12 12v16h4v-16a8 8 0 0 1 16 0v16h4v-16a12 12 0 0 0 -12-12zm0-60a12 12 0 0 0 -12 12v16h24v-16a12 12 0 0 0 -12-12zm8 24h-16v-12a8 8 0 0 1 16 0zm-50-60v124h4v-120h76v120h4v-124z"/><path d="m0 62h20v62h4v-66h-24zm60 62h4v-62h20v-4h-24zm-60-124v4h84v-4z"/><path d="m661.91 0h-4v124h84v-4h-80zm24 74v-74h-4v78h60v-4z"/><path d="m242 64a12 12 0 0 0 12-12v-52h-4v52a8 8 0 0 1 -16 0v-52h-4v52a12 12 0 0 0 12 12zm38-64v82a38 38 0 0 1 -76 0v-82h-4v82a42 42 0 0 0 84 0v-82z"/><path d="m599.92 4a38 38 0 0 1 38 38h4a42 42 0 1 0 -84 0h4a38 38 0 0 1 38-38zm0 116a38 38 0 0 1 -38-38h-4a42 42 0 0 0 84 0h-4a38 38 0 0 1 -38 38zm-12-63.75v12a12 12 0 1 0 24 0v-12a12 12 0 0 0 -24 0zm20 0v12a8 8 0 1 1 -16 0v-12a8 8 0 0 1 16 0z"/><path d="m799.89 4a38 38 0 0 1 38 38h4a42 42 0 1 0 -84 0h4a38 38 0 0 1 38-38zm-12 52.24v12a12 12 0 1 0 24 0v-12a12 12 0 0 0 -24 0zm20 0v12a8 8 0 1 1 -16 0v-12a8 8 0 0 1 16 0zm-8 63.75a38 38 0 0 1 -38-38h-4a42 42 0 0 0 84 0h-4a38 38 0 0 1 -38 38.01z"/><path d="m957.87 80h27.13l-27.17 27.17v5.65l36.86-36.82h-36.82zm39.13-80-39.13 39.17v5.65l44.82-44.82zm8 48h36.83v-4h-27.17l27.17-27.17v-5.66zm-2.34 76 39.17-39.16v-5.67l-44.83 44.83z"/><path d="m332.35 0a32.39 32.39 0 0 0 -13.16 62 32.39 32.39 0 0 0 13.16 62h51.65v-4h-51.6a28.38 28.38 0 0 1 -6.38-56v-4a28.38 28.38 0 0 1 6.38-56h51.6v-4zm29.65 82a12 12 0 0 0 12 12h10v-4h-10a8 8 0 0 1 0-16h10v-4h-10a12 12 0 0 0 -12 12zm0-40a12 12 0 0 0 12 12h10v-4h-10a8 8 0 0 1 0-16h10v-4h-10a12 12 0 0 0 -12 12z"/><path d="m140 123.94h4v-29.17l29.19 29.23h5.66l-38.85-38.88zm20-83.94a12 12 0 0 0 -12-12h-8v24h8a12 12 0 0 0 12-12zm-12 8h-4v-16h4a8 8 0 1 1 0 16zm12.15 25.28a38 38 0 0 0 -14.15-73.28h-46v124h4v-120h42a34 34 0 0 1 9.9 66.52l-3.19 1 31.29 31.25v-5.65z"/><path d="m897.88 124h4v-29.23l29.21 29.23h5.65l-38.86-38.88zm20-83.95a12 12 0 0 0 -12-12h-8v23.95h8a12 12 0 0 0 12-12zm-12 8h-4v-16.05h4a8 8 0 0 1 0 16zm12.12 25.22a38 38 0 0 0 -14.12-73.27h-46v124h4v-120h42a34 34 0 0 1 9.9 66.52l-3.19 1 31.28 31.29v-5.69z"/><path d="m497.93 62a14 14 0 0 0 14 14h30v-4h-30a10 10 0 0 1 0-20h30v-4h-30a14 14 0 0 0 -14 14zm22-62a62 62 0 1 0 0 124h22v-4h-22a58 58 0 0 1 0-116h22v-4z"/></g></svg>