<svg xmlns="http://www.w3.org/2000/svg" viewBox="0 0 802.18 188.68"><defs><style>.cls-1{fill:#231815;}</style></defs><g id="レイヤー_2" data-name="レイヤー 2"><g id="Lines"><path class="cls-1" d="M0,43.94H14.17V87.87H17V41.1H0ZM42.52,87.87h2.83V43.94H59.53V41.1h-17ZM0,0V2.84H59.53V0Z"/><path class="cls-1" d="M459.43,1.42h-2.84V89.29h59.53V86.46H459.43Zm17,52.44V1.42H473.6V56.69h42.52V53.86Z"/><path class="cls-1" d="M171.5,45.36a8.52,8.52,0,0,0,8.5-8.51V0h-2.84V36.85a5.67,5.67,0,1,1-11.33,0V0H163V36.85A8.52,8.52,0,0,0,171.5,45.36ZM198.42,0V58.11a26.93,26.93,0,1,1-53.86,0V0h-2.83V58.11a29.77,29.77,0,0,0,59.53,0V0Z"/><path class="cls-1" d="M415.49,4.25a27,27,0,0,1,26.93,26.93h2.83a29.76,29.76,0,0,0-59.52,0h2.83A27,27,0,0,1,415.49,4.25Zm0,82.21a27,27,0,0,1-26.93-26.93h-2.83a29.76,29.76,0,1,0,59.52,0h-2.83A27,27,0,0,1,415.49,86.46ZM407,41.28v8.5a8.5,8.5,0,0,0,17,0v-8.5a8.5,8.5,0,1,0-17,0Zm14.17,0v8.5a5.67,5.67,0,0,1-11.34,0v-8.5a5.67,5.67,0,0,1,11.34,0Z"/><path class="cls-1" d="M557.22,4.25a27,27,0,0,1,26.93,26.93H587a29.77,29.77,0,0,0-59.53,0h2.83A27,27,0,0,1,557.22,4.25Zm-8.5,37v8.5a8.51,8.51,0,0,0,17,0v-8.5a8.51,8.51,0,1,0-17,0Zm14.17,0v8.5a5.67,5.67,0,1,1-11.34,0v-8.5a5.67,5.67,0,1,1,11.34,0Zm-5.67,45.18a27,27,0,0,1-26.93-26.93h-2.83a29.77,29.77,0,0,0,59.53,0h-2.84A27,27,0,0,1,557.22,86.46Z"/><path class="cls-1" d="M669.19,58.11h19.26L669.19,77.37v4l26.1-26.1h-26.1ZM697,1.42,669.19,29.18v4L701,1.42Zm5.67,34h26.1V32.6H709.46l19.26-19.26v-4ZM701,89.29l27.76-27.76v-4L697,89.29Z"/><path class="cls-1" d="M99.21,87.85h2.84V67.17l20.7,20.7h4L99.21,60.33Zm14.17-59.5a8.51,8.51,0,0,0-8.5-8.5H99.21v17h5.67A8.51,8.51,0,0,0,113.38,28.35ZM104.88,34h-2.83V22.68h2.83a5.67,5.67,0,1,1,0,11.34Zm8.61,17.91A26.93,26.93,0,0,0,103.46,0H70.87V87.87H73.7v-85h29.76a24.09,24.09,0,0,1,7,47.14l-2.26.69,22.17,22.17v-4Z"/><path class="cls-1" d="M626.67,89.26h2.83V68.59l20.71,20.7h4L626.67,61.75Zm14.17-59.49a8.51,8.51,0,0,0-8.5-8.51h-5.67v17h5.67A8.51,8.51,0,0,0,640.84,29.77Zm-8.5,5.66h-2.83V24.1h2.83a5.67,5.67,0,1,1,0,11.33ZM641,53.35a26.93,26.93,0,0,0-10-51.93H598.33V89.29h2.83v-85h29.76a24.1,24.1,0,0,1,7,47.15l-2.26.69,22.17,22.17v-4Z"/><path class="cls-1" d="M343.21,45.36a9.93,9.93,0,0,0,9.92,9.92h21.26V52.44H353.13a7.09,7.09,0,1,1,0-14.17h21.26V35.43H353.13A9.93,9.93,0,0,0,343.21,45.36ZM358.8,1.42a43.94,43.94,0,1,0,0,87.87h15.59V86.46H358.8a41.11,41.11,0,0,1,0-82.21h15.59V1.42Z"/><path class="cls-1" d="M256.53,58.11A8.52,8.52,0,0,0,265,66.62h7.08V63.78H265a5.67,5.67,0,1,1,0-11.33h7.08V49.61H265A8.52,8.52,0,0,0,256.53,58.11Zm0-28.35A8.52,8.52,0,0,0,265,38.27h7.08V35.43H265a5.67,5.67,0,0,1,0-11.34h7.08V21.26H265A8.51,8.51,0,0,0,256.53,29.76ZM235.56,0a23,23,0,0,0-9.33,43.94,23,23,0,0,0,9.33,43.94h36.56V85H235.56a20.11,20.11,0,0,1-4.85-39.63V42.47a20.11,20.11,0,0,1,4.85-39.63h36.56V0Z"/><path class="cls-1" d="M183.67,158a8.51,8.51,0,0,0,8.5,8.5h7.09v-2.83h-7.09a5.67,5.67,0,1,1,0-11.34h7.09v-2.84h-7.09A8.51,8.51,0,0,0,183.67,158Zm0-28.36a8.51,8.51,0,0,0,8.5,8.51h7.09v-2.84h-7.09a5.67,5.67,0,1,1,0-11.33h7.09v-2.84h-7.09A8.51,8.51,0,0,0,183.67,129.68Zm-21-29.76a23,23,0,0,0-9.33,43.94,23,23,0,0,0,9.33,43.94h36.57V185H162.69a20.11,20.11,0,0,1-4.84-39.63v-2.94a20.11,20.11,0,0,1,4.84-39.63h36.57V99.92Z"/><path class="cls-1" d="M2.83,155.91H22.09L2.83,175.16v4l26.1-26.1H2.83ZM30.6,99.21,2.83,127v4L34.6,99.21Zm5.66,34h26.1V130.4H43.1l19.26-19.26v-4ZM34.6,187.09l27.76-27.76v-4L30.6,187.09Z"/><path class="cls-1" d="M104.88,136.77H99.21v-17h5.67a8.5,8.5,0,1,1,0,17Zm-2.83-2.83h2.83a5.67,5.67,0,0,0,0-11.34h-2.83Z"/><path class="cls-1" d="M73.7,187.8H70.87V99.92h32.59a26.93,26.93,0,0,1,0,53.86h-1.41v34H99.21V151h4.25a24.1,24.1,0,1,0,0-48.19H73.7Z"/><path class="cls-1" d="M240.59,143.86a9.93,9.93,0,0,0,9.92,9.92h21.26V151H250.51a7.09,7.09,0,1,1,0-14.17h21.26v-2.84H250.51A9.93,9.93,0,0,0,240.59,143.86Zm15.59-43.94a43.94,43.94,0,1,0,0,87.88h15.59V185H256.18a41.1,41.1,0,1,1,0-82.2h15.59V99.92Z"/><path class="cls-1" d="M283.46,187.8H343V185H283.46Zm14.18-72.28H283.46v2.83H294.8v51H283.46v2.83h14.18ZM283.46,99.93v2.83H343V99.93Zm45.36,72.28H343v-2.83H331.65v-51H343v-2.83H328.82Z"/><path class="cls-1" d="M384.8,167.42a8.51,8.51,0,0,0-8.5,8.5v11.34h2.83V175.92a5.67,5.67,0,0,1,11.34,0v11.34h2.84V175.92A8.52,8.52,0,0,0,384.8,167.42Zm0-42.52a8.51,8.51,0,0,0-8.5,8.5v11.34h17V133.4A8.52,8.52,0,0,0,384.8,124.9Zm5.67,17H379.13V133.4a5.67,5.67,0,0,1,11.34,0ZM355,99.39v87.87h2.83v-85h53.86v85h2.84V99.39Z"/><path class="cls-1" d="M428,100.8h-2.84v87.88h59.53v-2.84H428Zm17,52.44V100.8H442.2v55.28h42.52v-2.84Z"/><path class="cls-1" d="M533.35,100.8h-2.83v87.88H590v-2.84H533.35Zm17,52.44V100.8h-2.84v55.28H590v-2.84Z"/><path class="cls-1" d="M599.74,188.68h59.53v-2.84H599.74Zm14.18-72.29H599.74v2.84h11.34v51H599.74v2.84h14.18ZM599.74,100.8v2.84h59.53V100.8Zm45.36,72.29h14.17v-2.84H647.93v-51h11.34v-2.84H645.1Z"/><path class="cls-1" d="M671.2,188.68H674V100.8H671.2Zm50.43-87.88-22.09,22.09V100.8h-2.83v28.94l28.93-28.94ZM686.2,188.68h4l40.51-40.52v-4Z"/><path class="cls-1" d="M786.59,158.92a8.51,8.51,0,0,0,8.5,8.5h7.09v-2.84h-7.09a5.67,5.67,0,1,1,0-11.33h7.09v-2.84h-7.09A8.51,8.51,0,0,0,786.59,158.92Zm0-28.36a8.51,8.51,0,0,0,8.5,8.51h7.09v-2.84h-7.09a5.67,5.67,0,1,1,0-11.33h7.09v-2.84h-7.09A8.51,8.51,0,0,0,786.59,130.56Zm-21-29.76a23,23,0,0,0-9.33,43.94,23,23,0,0,0,9.33,43.94h36.57v-2.84H765.61a20.11,20.11,0,0,1-4.84-39.63v-2.94a20.11,20.11,0,0,1,4.84-39.63h36.57V100.8Z"/></g></g></svg>