<svg viewBox="0 0 1041.86 263.97" xmlns="http://www.w3.org/2000/svg"><g fill="#fff"><path d="m152 140v52a10 10 0 0 1 -20 0v-52h-30v82a40 40 0 1 0 80 0v-82z"/><path d="m283.96 139.98h-41.99l-42 41.99v36h32l-32 32v14h42l41.99-42v-35.99h-32l32-32z"/><path d="m299.96 239.97h17.99v-75.99h-17.99v-22h83.98v22h-17.99v75.99h17.99v22h-83.98z"/><path d="m483.93 214h-30a12 12 0 1 1 0-24h30v-48h-22a60 60 0 0 0 0 120h22z"/><path d="m69.99 139.98-23.99 24v-24h-12l-34 34v89.98h9.17l26.83-26.82v22l21.99-22v26.82h24v-123.98z"/><path d="m252 0v52a10 10 0 0 1 -20 0v-52h-30v82a40 40 0 1 0 80 0v-82z"/><path d="m1041.86 0h-42l-41.99 42v35.99h31.99l-31.99 32v14h42l41.99-42v-35.99h-32l32-32z"/><path d="m741.9 121.99h-81.99v-121.98h23.99v75.98h58z"/><path d="m156.46 72.44a36 36 0 0 0 -10.46-70.44h-44v122h40v-34l34 34h8v-24zm-8.46-22.44h-6v-20h6a10 10 0 0 1 0 20z"/><path d="m541.93 74h-30a12 12 0 1 1 0-24h30v-48h-22a60 60 0 0 0 0 120h22z"/><path d="m914.36 72.44a36 36 0 0 0 -10.48-70.44h-44v122h40v-34l34 34h8v-24zm-8.48-22.44h-6v-20h6a10 10 0 0 1 0 20z"/><path d="m384 122h-51.6a30.39 30.39 0 0 1 -6.83-60 30.38 30.38 0 0 1 6.83-60h51.6v30h-10a10 10 0 1 0 0 20h10v20h-10a10 10 0 1 0 0 20h10z"/><path d="m639.91 42a40 40 0 1 0 -80 0h-2v40h2a40 40 0 1 0 80 0h2v-40zm-30 26.24a10 10 0 1 1 -20 0v-12a10 10 0 0 1 20 0z"/><path d="m83.99 59.99h-22v64h-39.99v-64h-22v-57.99h83.99z"/><path d="m839.88 42a40 40 0 1 0 -80 0h-2v40h2a40 40 0 1 0 80 0h2v-40zm-30 26.24a10 10 0 1 1 -20 0v-12a10 10 0 0 1 20 0z"/></g><path d="m142 204a12 12 0 0 0 12-12v-52h-4v52a8 8 0 0 1 -16 0v-52h-4v52a12 12 0 0 0 12 12zm38-64v82a38 38 0 0 1 -76 0v-82h-4v82a42 42 0 0 0 84 0v-82z" fill="#231815"/><path d="m300 264h84v-4h-84zm20-102h-20v4h16v72h-16v4h20zm-20-22v4h84v-4zm64 102h20v-4h-16v-72h16v-4h-20z" fill="#231815"/><path d="m200 220h27.17l-27.17 27.14v5.65l36.79-36.79h-36.79zm39.17-80-39.17 39.15v5.65l44.8-44.8zm8 48h36.83v-4h-27.21l27.21-27.19v-5.66zm-2.34 76 39.17-39.2v-5.65l-44.86 44.85z" fill="#231815"/><path d="m31.17 140-31.17 31.15v5.66l36.83-36.81zm6.83 92.31-31.65 31.69h5.65l22-22v22l22-22v22h4v-31.69l-22 22zm42-92.31v124h4v-124zm-32 19.15v-19.15h-4v28.83l28.82-28.83h-5.65z" fill="#231815"/><path d="m439.94 202a14 14 0 0 0 14 14h30v-4h-30a10 10 0 0 1 0-20h30v-4h-30a14 14 0 0 0 -14 14zm22-62a62 62 0 0 0 0 124h22v-4h-22a58 58 0 0 1 0-116h22v-4z" fill="#231815"/><path d="m0 62h20v62h4v-66h-24zm60 62h4v-62h20v-4h-24zm-60-124v4h84v-4z" fill="#231815"/><path d="m661.91 0h-4v124h84v-4h-80zm24 74v-74h-4v78h60v-4z" fill="#231815"/><path d="m242 64a12 12 0 0 0 12-12v-52h-4v52a8 8 0 1 1 -16 0v-52h-4v52a12 12 0 0 0 12 12zm38-64v82a38 38 0 0 1 -76 0v-82h-4v82a42 42 0 0 0 84 0v-82z" fill="#231815"/><path d="m599.92 4a38 38 0 0 1 38 38h4a42 42 0 1 0 -84 0h4a38 38 0 0 1 38-38zm0 116a38 38 0 0 1 -38-38h-4a42 42 0 0 0 84 0h-4a38 38 0 0 1 -38 38zm-12-63.75v12a12 12 0 1 0 24 0v-12a12 12 0 0 0 -24 0zm20 0v12a8 8 0 1 1 -16 0v-12a8 8 0 0 1 16 0z" fill="#231815"/><path d="m799.89 4a38 38 0 0 1 38 38h4a42 42 0 1 0 -84 0h4a38 38 0 0 1 38-38zm-12 52.24v12a12 12 0 1 0 24 0v-12a12 12 0 0 0 -24 0zm20 0v12a8 8 0 1 1 -16 0v-12a8 8 0 0 1 16 0zm-8 63.75a38 38 0 0 1 -38-38h-4a42 42 0 0 0 84 0h-4a38 38 0 0 1 -38 38.01z" fill="#231815"/><path d="m957.87 80h27.13l-27.17 27.17v5.65l36.86-36.82h-36.82zm39.13-80-39.13 39.17v5.65l44.82-44.82zm8 48h36.83v-4h-27.17l27.17-27.17v-5.66zm-2.34 76 39.17-39.16v-5.67l-44.83 44.83z" fill="#231815"/><path d="m332.35 0a32.39 32.39 0 0 0 -13.16 62 32.39 32.39 0 0 0 13.16 62h51.65v-4h-51.6a28.38 28.38 0 0 1 -6.38-56v-4a28.38 28.38 0 0 1 6.38-56h51.6v-4zm29.65 82a12 12 0 0 0 12 12h10v-4h-10a8 8 0 0 1 0-16h10v-4h-10a12 12 0 0 0 -12 12zm0-40a12 12 0 0 0 12 12h10v-4h-10a8 8 0 0 1 0-16h10v-4h-10a12 12 0 0 0 -12 12z" fill="#231815"/><path d="m140 123.94h4v-29.17l29.19 29.23h5.66l-38.85-38.88zm20-83.94a12 12 0 0 0 -12-12h-8v24h8a12 12 0 0 0 12-12zm-12 8h-4v-16h4a8 8 0 1 1 0 16zm12.15 25.28a38 38 0 0 0 -14.15-73.28h-46v124h4v-120h42a34 34 0 0 1 9.9 66.52l-3.19 1 31.29 31.25v-5.65z" fill="#231815"/><path d="m897.88 124h4v-29.23l29.21 29.23h5.65l-38.86-38.88zm20-83.95a12 12 0 0 0 -12-12h-8v23.95h8a12 12 0 0 0 11.99-12zm-12 8h-4v-16.05h4a8 8 0 0 1 0 16zm12.12 25.22a38 38 0 0 0 -14.12-73.27h-46v124h4v-120h42a34 34 0 0 1 9.9 66.52l-3.19 1 31.28 31.29v-5.69z" fill="#231815"/><path d="m497.93 62a14 14 0 0 0 14 14h30v-4h-30a10 10 0 0 1 0-20h30v-4h-30a14 14 0 0 0 -14 14zm22-62a62 62 0 1 0 0 124h22v-4h-22a58 58 0 0 1 0-116h22v-4z" fill="#231815"/><path d="m686.61 260.77h-81.62v-121.44h23.89v75.65h57.73z" fill="#fff"/><path d="m505.45 141.32v121.44h29.86v-15.93a10 10 0 0 1 19.91 0v15.93h29.86v-121.44zm49.77 59.73h-19.91v-13.94a10 10 0 0 1 19.91 0z" fill="#fff"/><path d="m607 139.33h-4v123.43h83.61v-4h-79.61zm23.87 73.67v-73.67h-4v77.67h59.72v-4z" fill="#231815"/><path d="m545.27 234.89a12 12 0 0 0 -11.95 11.94v15.93h4v-15.93a8 8 0 0 1 15.93 0v15.93h4v-15.93a12 12 0 0 0 -11.98-11.94zm0-59.73a12 12 0 0 0 -11.95 12v15.84h23.89v-15.89a12 12 0 0 0 -11.94-11.95zm8 23.89h-15.97v-11.94a8 8 0 0 1 15.93 0zm-49.77-59.72v123.43h4v-119.45h75.65v119.45h4v-123.43z" fill="#231815"/></svg>