<?xml version="1.0" encoding="UTF-8"?><svg id="_イヤー_2" xmlns="http://www.w3.org/2000/svg" viewBox="0 0 791.29 187.99"><defs><style>.cls-1{fill:#fff;}.cls-2{fill:#231815;}</style></defs><g id="_イヤー_1-2"><g><path class="cls-1" d="M178.58,1.42V38.27c0,3.91-3.17,7.09-7.09,7.09s-7.09-3.17-7.09-7.09V1.42h-21.26V59.53c0,15.65,12.69,28.34,28.35,28.34s28.35-12.69,28.35-28.34V1.42h-21.26Z"/><path class="cls-1" d="M110.89,51.34c10.46-3.18,18.08-12.91,18.08-24.41,0-14.09-11.42-25.51-25.51-25.51h-31.18V87.87h28.35v-24.12l24.12,24.12h5.64v-17.04l-19.5-19.5h0Zm-6.01-15.9h-4.25v-14.17h4.25c3.91,0,7.09,3.17,7.09,7.09s-3.17,7.09-7.09,7.09h0Z"/><path class="cls-1" d="M272.12,87.87h-36.57c-11.9,0-21.54-9.64-21.54-21.54,0-10.23,7.14-18.77,16.7-20.98-9.56-2.2-16.7-10.75-16.7-20.98,0-11.9,9.64-21.54,21.54-21.54h36.57V24.09h-7.09c-3.91,0-7.09,3.17-7.09,7.09s3.17,7.09,7.09,7.09h7.09v14.18h-7.09c-3.91,0-7.09,3.17-7.09,7.09s3.17,7.09,7.09,7.09h7.09v21.24Z"/><polygon class="cls-1" points="0 1.42 0 42.52 15.59 42.52 15.59 87.87 43.94 87.87 43.94 42.52 59.53 42.52 59.53 1.42 0 1.42"/><path class="cls-2" d="M0,43.94H14.17v43.94h2.83V41.1H0v2.83H0Zm42.52,43.95h2.83V43.94h14.17v-2.83h-17.01v46.77h.01ZM0,0V2.84H59.53V0H0Z"/><path class="cls-2" d="M171.5,45.36c4.69,0,8.5-3.81,8.5-8.5V0h-2.83V36.85c0,3.13-2.54,5.67-5.67,5.67s-5.67-2.54-5.67-5.67V0h-2.83V36.85c0,4.69,3.81,8.5,8.5,8.5h0ZM198.42,0V58.11c0,14.85-12.08,26.93-26.93,26.93s-26.93-12.08-26.93-26.93V0h-2.83V58.11c0,16.41,13.35,29.76,29.76,29.76s29.76-13.35,29.76-29.76V0h-2.83Z"/><path class="cls-2" d="M99.21,87.85h2.83v-20.68l20.7,20.7h4.01l-27.54-27.55v27.52h0Zm14.17-59.49c0-4.69-3.81-8.5-8.5-8.5h-5.67v17.01h5.67c4.69,0,8.5-3.81,8.5-8.5h0Zm-8.5,5.66h-2.83v-11.34h2.83c3.12,0,5.67,2.54,5.67,5.67s-2.54,5.67-5.67,5.67Zm8.61,17.91c10.2-4.06,16.9-13.84,16.9-25C130.39,12.08,118.31,0,103.46,0h-32.6V87.87h2.83V2.84h29.76c13.29,0,24.09,10.81,24.09,24.09,0,10.68-6.86,19.95-17.08,23.05l-2.26,.69,22.17,22.17v-4.01l-16.9-16.9h.02Z"/><polygon class="cls-1" points="721 0 691.24 0 661.47 29.76 661.47 55.27 684.15 55.27 661.47 77.95 661.47 87.87 691.24 87.87 721 58.11 721 32.6 698.32 32.6 721 9.92 721 0"/><polygon class="cls-1" points="467.3 55.28 467.3 1.42 450.29 1.42 450.29 87.87 508.4 87.87 508.4 55.28 467.3 55.28"/><path class="cls-1" d="M436.12,31.18c0-15.65-12.69-28.34-28.35-28.34s-28.35,12.69-28.35,28.34h-1.42v28.35h1.42c0,15.66,12.69,28.35,28.35,28.35s28.35-12.69,28.35-28.35h1.42V31.18h-1.42Zm-21.26,18.6c0,3.91-3.17,7.09-7.09,7.09s-7.09-3.18-7.09-7.09v-8.5c0-3.91,3.17-7.09,7.09-7.09s7.09,3.17,7.09,7.09v8.5Z"/><path class="cls-1" d="M577.85,31.18c0-15.65-12.69-28.34-28.35-28.34s-28.35,12.69-28.35,28.34h-1.42v28.35h1.42c0,15.66,12.69,28.35,28.35,28.35s28.35-12.69,28.35-28.35h1.42V31.18h-1.42Zm-21.26,18.6c0,3.91-3.17,7.09-7.09,7.09s-7.09-3.18-7.09-7.09v-8.5c0-3.91,3.17-7.09,7.09-7.09s7.09,3.17,7.09,7.09v8.5Z"/><path class="cls-2" d="M451.71,0h-2.83V87.87h59.53v-2.83h-56.69V0h-.01Zm17.01,52.44V0h-2.83V55.28h42.52v-2.83h-39.69Z"/><path class="cls-2" d="M407.77,2.83c14.85,0,26.93,12.08,26.93,26.93h2.83C437.53,13.35,424.18,0,407.77,0s-29.76,13.35-29.76,29.76h2.83c0-14.85,12.08-26.93,26.93-26.93h0Zm0,82.21c-14.85,0-26.93-12.08-26.93-26.93h-2.83c0,16.41,13.35,29.76,29.76,29.76s29.76-13.35,29.76-29.76h-2.83c0,14.85-12.08,26.93-26.93,26.93h0Zm-8.5-45.18v8.5c0,4.69,3.81,8.5,8.5,8.5s8.5-3.81,8.5-8.5v-8.5c0-4.69-3.81-8.5-8.5-8.5s-8.5,3.81-8.5,8.5Zm14.17,0v8.5c0,3.12-2.54,5.67-5.67,5.67s-5.67-2.54-5.67-5.67v-8.5c0-3.13,2.54-5.67,5.67-5.67s5.67,2.54,5.67,5.67Z"/><path class="cls-2" d="M549.5,2.83c14.85,0,26.93,12.08,26.93,26.93h2.83C579.26,13.35,565.91,0,549.5,0s-29.76,13.35-29.76,29.76h2.83c0-14.85,12.08-26.93,26.93-26.93Zm-8.5,37.03v8.5c0,4.69,3.81,8.5,8.5,8.5s8.5-3.81,8.5-8.5v-8.5c0-4.69-3.81-8.5-8.5-8.5s-8.5,3.81-8.5,8.5Zm14.17,0v8.5c0,3.12-2.54,5.67-5.67,5.67s-5.67-2.54-5.67-5.67v-8.5c0-3.13,2.54-5.67,5.67-5.67s5.67,2.54,5.67,5.67Zm-5.67,45.18c-14.85,0-26.93-12.08-26.93-26.93h-2.83c0,16.41,13.35,29.76,29.76,29.76s29.76-13.35,29.76-29.76h-2.83c0,14.85-12.08,26.93-26.93,26.93Z"/><path class="cls-2" d="M661.47,56.69h19.25l-19.25,19.26v4.01l26.1-26.1h-26.1v2.83ZM689.23,0l-27.76,27.76v4.01L693.24,0h-4.01Zm5.67,34.02h26.1v-2.83h-19.25l19.26-19.26V7.92l-26.1,26.1h-.01Zm-1.66,53.86l27.76-27.76v-4.01l-31.77,31.77h4.01Z"/><path class="cls-2" d="M256.53,58.11c0,4.69,3.81,8.5,8.5,8.5h7.09v-2.83h-7.09c-3.13,0-5.67-2.54-5.67-5.67s2.54-5.67,5.67-5.67h7.09v-2.83h-7.09c-4.69,0-8.5,3.81-8.5,8.5Zm0-28.35c0,4.69,3.81,8.5,8.5,8.5h7.09v-2.83h-7.09c-3.13,0-5.67-2.54-5.67-5.67s2.54-5.67,5.67-5.67h7.09v-2.83h-7.09c-4.69,0-8.5,3.81-8.5,8.5ZM235.56,0c-12.66,0-22.96,10.3-22.96,22.96,0,9.26,5.43,17.37,13.63,20.98-8.2,3.61-13.63,11.72-13.63,20.98,0,12.66,10.3,22.96,22.96,22.96h36.57v-2.83h-36.57c-11.1,0-20.13-9.03-20.13-20.13,0-9.31,6.27-17.28,15.28-19.51v-2.94c-9.01-2.23-15.28-10.2-15.28-19.51,0-11.1,9.03-20.12,20.13-20.12h36.57V0h-36.57Z"/><polygon class="cls-1" points="689.23 100.1 663.72 100.1 663.72 187.97 679.31 187.97 721.83 145.45 721.83 100.1 714.74 100.1 689.23 125.61 689.23 100.1"/><polygon class="cls-1" points="60.24 100.1 30.47 100.1 .71 129.86 .71 155.37 23.38 155.37 .71 178.05 .71 187.97 30.47 187.97 60.24 158.21 60.24 132.7 37.56 132.7 60.24 110.02 60.24 100.1"/><polygon class="cls-1" points="444.46 155.37 444.46 101.52 427.46 101.52 427.46 187.97 485.57 187.97 485.57 155.37 444.46 155.37"/><path class="cls-1" d="M103.46,101.52h-31.18v86.46l28.35-.03v-35.4h2.83c14.09,0,25.51-11.42,25.51-25.51s-11.42-25.51-25.51-25.51h0Zm1.42,34.01h-4.25v-14.17h4.25c3.91,0,7.09,3.17,7.09,7.09s-3.17,7.09-7.09,7.09h0Z"/><polygon class="cls-1" points="342.99 118.52 342.99 102.93 283.46 102.93 283.46 118.52 296.22 118.52 296.22 172.38 283.46 172.38 283.46 187.97 342.99 187.97 342.99 172.38 330.24 172.38 330.24 118.52 342.99 118.52"/><path class="cls-1" d="M249.44,136.95h21.26v-34.02h-15.59c-23.48,0-42.52,19.04-42.52,42.52s19.04,42.52,42.52,42.52h15.59v-34.02h-21.26c-4.7,0-8.5-3.81-8.5-8.5s3.81-8.5,8.5-8.5h0Z"/><path class="cls-1" d="M201.26,187.97h-36.57c-11.9,0-21.54-9.64-21.54-21.54,0-10.23,7.14-18.78,16.7-20.98-9.56-2.2-16.7-10.75-16.7-20.98,0-11.9,9.64-21.54,21.54-21.54h36.57v21.26h-7.09c-3.91,0-7.09,3.17-7.09,7.09s3.17,7.09,7.09,7.09h7.09v14.18h-7.09c-3.91,0-7.09,3.17-7.09,7.09s3.17,7.09,7.09,7.09h7.09v21.24Z"/><path class="cls-1" d="M356.31,101.52v86.46h21.26v-11.34c0-3.91,3.17-7.09,7.09-7.09s7.09,3.17,7.09,7.09v11.34h21.26V101.52h-56.7Zm35.43,42.52h-14.17v-9.92c0-3.91,3.17-7.09,7.09-7.09s7.09,3.17,7.09,7.09v9.92h0Z"/><path class="cls-2" d="M428.87,100.1h-2.83v87.87h59.53v-2.83h-56.69V100.1h-.01Zm17.01,52.44v-52.44h-2.83v55.27h42.52v-2.83h-39.69Z"/><polygon class="cls-1" points="538.99 155.37 538.99 101.52 521.98 101.52 521.98 187.97 580.09 187.97 580.09 155.37 538.99 155.37"/><path class="cls-2" d="M523.4,100.1h-2.83v87.87h59.53v-2.83h-56.69V100.1h0Zm17.01,52.44v-52.44h-2.83v55.27h42.52v-2.83h-39.69Z"/><path class="cls-2" d="M.71,156.79H19.96L.71,176.05v4.01l26.1-26.1H.71v2.83Zm27.76-56.69L.71,127.86v4.01l31.77-31.77h-4.01Zm5.67,34.02h26.1v-2.83h-19.25l19.26-19.26v-4.01l-26.1,26.1h-.01Zm-1.66,53.86l27.76-27.76v-4.01l-31.77,31.77h4.01Z"/><path class="cls-2" d="M185.67,158.21c0,4.69,3.81,8.5,8.5,8.5h7.09v-2.83h-7.09c-3.13,0-5.67-2.54-5.67-5.67s2.54-5.67,5.67-5.67h7.09v-2.83h-7.09c-4.69,0-8.5,3.81-8.5,8.5Zm0-28.35c0,4.69,3.81,8.5,8.5,8.5h7.09v-2.83h-7.09c-3.13,0-5.67-2.54-5.67-5.67s2.54-5.67,5.67-5.67h7.09v-2.83h-7.09c-4.69,0-8.5,3.81-8.5,8.5Zm-20.98-29.76c-12.66,0-22.96,10.3-22.96,22.96,0,9.26,5.43,17.37,13.63,20.98-8.2,3.61-13.63,11.72-13.63,20.98,0,12.66,10.3,22.96,22.96,22.96h36.57v-2.83h-36.57c-11.1,0-20.13-9.03-20.13-20.13,0-9.31,6.27-17.28,15.28-19.51v-2.94c-9.01-2.23-15.28-10.2-15.28-19.51,0-11.1,9.03-20.12,20.13-20.12h36.57v-2.83h-36.57Z"/><path class="cls-1" d="M791.29,187.97h-36.57c-11.9,0-21.54-9.64-21.54-21.54,0-10.23,7.14-18.78,16.7-20.98-9.56-2.2-16.7-10.75-16.7-20.98,0-11.9,9.64-21.54,21.54-21.54h36.57v21.26h-7.09c-3.91,0-7.09,3.17-7.09,7.09s3.17,7.09,7.09,7.09h7.09v14.18h-7.09c-3.91,0-7.09,3.17-7.09,7.09s3.17,7.09,7.09,7.09h7.09v21.24Z"/><path class="cls-2" d="M775.7,158.21c0,4.69,3.81,8.5,8.5,8.5h7.09v-2.83h-7.09c-3.13,0-5.67-2.54-5.67-5.67s2.54-5.67,5.67-5.67h7.09v-2.83h-7.09c-4.69,0-8.5,3.81-8.5,8.5Zm0-28.35c0,4.69,3.81,8.5,8.5,8.5h7.09v-2.83h-7.09c-3.13,0-5.67-2.54-5.67-5.67s2.54-5.67,5.67-5.67h7.09v-2.83h-7.09c-4.69,0-8.5,3.81-8.5,8.5Zm-20.98-29.76c-12.66,0-22.96,10.3-22.96,22.96,0,9.26,5.43,17.37,13.63,20.98-8.2,3.61-13.63,11.72-13.63,20.98,0,12.66,10.3,22.96,22.96,22.96h36.57v-2.83h-36.57c-11.1,0-20.13-9.03-20.13-20.13,0-9.31,6.27-17.28,15.28-19.51v-2.94c-9.01-2.23-15.28-10.2-15.28-19.51,0-11.1,9.03-20.12,20.13-20.12h36.57v-2.83h-36.57Z"/><path class="cls-2" d="M384.66,168.13c-4.69,0-8.5,3.82-8.5,8.5v11.34h2.83v-11.34c0-3.12,2.54-5.67,5.67-5.67s5.67,2.55,5.67,5.67v11.34h2.83v-11.34c0-4.69-3.81-8.5-8.5-8.5Zm0-42.52c-4.69,0-8.5,3.82-8.5,8.5v11.34h17.01v-11.34c0-4.69-3.81-8.5-8.5-8.5h-.01Zm5.67,17.01h-11.34v-8.5c0-3.12,2.54-5.67,5.67-5.67s5.67,2.55,5.67,5.67v8.5h0Zm-35.43-42.52v87.88h2.83V102.93h53.86v85.04h2.83V100.1h-59.52Z"/><path class="cls-2" d="M283.47,187.97h59.53v-2.83h-59.53v2.83Zm14.17-72.28h-14.17v2.83h11.34v51.03h-11.34v2.83h14.17v-56.69Zm-14.17-15.59v2.83h59.53v-2.83h-59.53Zm45.36,72.28h14.17v-2.83h-11.34v-51.03h11.34v-2.83h-14.17v56.69Z"/><polygon class="cls-1" points="650.96 118.52 650.96 102.93 591.43 102.93 591.43 118.52 604.19 118.52 604.19 172.38 591.43 172.38 591.43 187.97 650.96 187.97 650.96 172.38 638.21 172.38 638.21 118.52 650.96 118.52"/><path class="cls-2" d="M591.44,187.97h59.53v-2.83h-59.53v2.83h0Zm14.17-72.28h-14.17v2.83h11.34v51.03h-11.34v2.83h14.17v-56.69Zm-14.17-15.59v2.83h59.53v-2.83h-59.53Zm45.36,72.28h14.17v-2.83h-11.34v-51.03h11.34v-2.83h-14.17v56.69Z"/><path class="cls-2" d="M239.52,144.03c0,5.47,4.45,9.92,9.92,9.92h21.26v-2.84h-21.26c-3.91,0-7.09-3.18-7.09-7.09s3.18-7.09,7.09-7.09h21.26v-2.84h-21.26c-5.47,0-9.92,4.45-9.92,9.92v.02Zm15.59-43.94c-24.23,0-43.94,19.71-43.94,43.94s19.71,43.94,43.94,43.94h15.59v-2.84h-15.59c-22.66,0-41.1-18.44-41.1-41.1s18.44-41.1,41.1-41.1h15.59v-2.84h-15.59Z"/><path class="cls-2" d="M662.3,187.97h2.83V100.1h-2.83v87.88h0Zm50.44-87.89l-22.09,22.09v-22.09h-2.83v28.93l28.93-28.93h-4.01Zm-35.43,87.88h4.01l40.52-40.52v-4.01l-44.53,44.53h0Z"/><g><path class="cls-2" d="M104.88,136.95h-5.67v-17.01h5.67c4.69,0,8.5,3.81,8.5,8.5s-3.81,8.5-8.5,8.5h0Zm-2.83-2.82h2.83c3.13,0,5.67-2.54,5.67-5.67s-2.54-5.67-5.67-5.67h-2.83v11.34Z"/><path class="cls-2" d="M73.7,187.97h-2.84V100.1h32.6c14.85,0,26.93,12.08,26.93,26.93s-12.08,26.93-26.93,26.93h-1.42v33.99h-2.83v-36.82h4.25c13.29,0,24.09-10.81,24.09-24.09s-10.81-24.1-24.09-24.1h-29.76v85.04h0Z"/></g><path class="cls-1" d="M345.12,36.85h21.26V2.84h-15.59c-23.48,0-42.52,19.04-42.52,42.52s19.04,42.52,42.52,42.52h15.59V53.86h-21.26c-4.7,0-8.5-3.81-8.5-8.5s3.81-8.5,8.5-8.5Z"/><path class="cls-2" d="M335.2,43.94c0,5.47,4.45,9.92,9.92,9.92h21.26v-2.84h-21.26c-3.91,0-7.09-3.18-7.09-7.09s3.18-7.09,7.09-7.09h21.26v-2.84h-21.26c-5.47,0-9.92,4.45-9.92,9.92ZM350.79,0c-24.23,0-43.94,19.71-43.94,43.94s19.71,43.94,43.94,43.94h15.59v-2.84h-15.59c-22.66,0-41.1-18.44-41.1-41.1S328.13,2.84,350.79,2.84h15.59V0h-15.59Z"/><path class="cls-1" d="M630.41,51.57c10.46-3.18,18.08-12.91,18.08-24.41,0-14.09-11.42-25.51-25.51-25.51h-31.18V88.11h28.35v-24.12l24.12,24.12h5.64v-17.04l-19.5-19.5Zm-6.01-15.91h-4.25v-14.17h4.25c3.91,0,7.09,3.17,7.09,7.09s-3.17,7.09-7.09,7.09Z"/><path class="cls-2" d="M619.44,87.85h2.83v-20.68l20.7,20.7h4.01l-27.54-27.55v27.52Zm14.17-59.5c0-4.69-3.81-8.5-8.5-8.5h-5.67v17.01h5.67c4.69,0,8.5-3.81,8.5-8.5Zm-8.5,5.67h-2.83v-11.34h2.83c3.12,0,5.67,2.54,5.67,5.67s-2.54,5.67-5.67,5.67Zm8.61,17.91c10.2-4.06,16.9-13.84,16.9-25,0-14.85-12.08-26.93-26.93-26.93h-32.6V87.87h2.83V2.83h29.76c13.29,0,24.09,10.81,24.09,24.09,0,10.68-6.86,19.95-17.08,23.05l-2.26,.69,22.17,22.17v-4.01l-16.9-16.9Z"/></g></g></svg>