<?xml version="1.0" encoding="UTF-8"?><svg xmlns="http://www.w3.org/2000/svg" viewBox="0 0 729.92 187.09"><defs><style>.d{fill:#fff;}.e{fill:#231815;}</style></defs><g id="a"/><g id="b"><g id="c"><path class="d" d="M180,0V36.85c0,3.91-3.17,7.09-7.09,7.09s-7.09-3.17-7.09-7.09V0h-21.26V58.11c0,15.65,12.69,28.34,28.35,28.34s28.35-12.69,28.35-28.34V0h-21.26Z"/><polygon class="d" points="729.92 0 700.16 0 670.39 29.76 670.39 55.28 693.07 55.28 670.39 77.96 670.39 87.88 700.16 87.88 729.92 58.11 729.92 32.6 707.24 32.6 729.92 9.92 729.92 0"/><polygon class="d" points="476.22 53.86 476.22 0 459.21 0 459.21 86.46 517.32 86.46 517.32 53.86 476.22 53.86"/><path class="d" d="M112.31,51.34c10.46-3.18,18.08-12.91,18.08-24.41,0-14.09-11.42-25.51-25.51-25.51h-31.18V87.87h28.35v-24.12l24.12,24.12h5.64v-17.04l-19.5-19.5Zm-6.01-15.91h-4.25v-14.17h4.25c3.91,0,7.09,3.17,7.09,7.09s-3.17,7.09-7.09,7.09Z"/><path class="d" d="M354.33,35.44h21.26V1.42h-15.59c-23.48,0-42.52,19.04-42.52,42.52s19.04,42.52,42.52,42.52h15.59V52.44h-21.26c-4.7,0-8.5-3.81-8.5-8.5s3.81-8.5,8.5-8.5Z"/><path class="d" d="M639.56,51.34c10.46-3.18,18.08-12.91,18.08-24.41,0-14.09-11.42-25.51-25.51-25.51h-31.18V87.88h28.35v-24.12l24.12,24.12h5.64v-17.04l-19.5-19.5Zm-6.01-15.91h-4.25v-14.17h4.25c3.91,0,7.09,3.17,7.09,7.09s-3.17,7.09-7.09,7.09Z"/><path class="d" d="M273.54,86.46h-36.57c-11.9,0-21.54-9.64-21.54-21.54,0-10.23,7.14-18.77,16.7-20.98-9.56-2.2-16.7-10.75-16.7-20.98,0-11.9,9.64-21.54,21.54-21.54h36.57V22.68h-7.09c-3.91,0-7.09,3.17-7.09,7.09s3.17,7.09,7.09,7.09h7.09v14.18h-7.09c-3.91,0-7.09,3.17-7.09,7.09s3.17,7.09,7.09,7.09h7.09v21.26Z"/><path class="d" d="M445.04,29.76c0-15.65-12.69-28.34-28.35-28.34s-28.35,12.69-28.35,28.34h-1.42v28.35h1.42c0,15.66,12.69,28.35,28.35,28.35s28.35-12.69,28.35-28.35h1.42V29.76h-1.42Zm-21.26,18.6c0,3.91-3.17,7.09-7.09,7.09s-7.09-3.18-7.09-7.09v-8.5c0-3.91,3.17-7.09,7.09-7.09s7.09,3.17,7.09,7.09v8.5Z"/><polygon class="d" points="1.42 1.42 1.42 42.52 17.01 42.52 17.01 87.87 45.35 87.87 45.35 42.52 60.95 42.52 60.95 1.42 1.42 1.42"/><path class="d" d="M586.77,29.76c0-15.65-12.69-28.34-28.35-28.34s-28.35,12.69-28.35,28.34h-1.42v28.35h1.42c0,15.66,12.69,28.35,28.35,28.35s28.35-12.69,28.35-28.35h1.42V29.76h-1.42Zm-21.26,18.6c0,3.91-3.17,7.09-7.09,7.09s-7.09-3.18-7.09-7.09v-8.5c0-3.91,3.17-7.09,7.09-7.09s7.09,3.17,7.09,7.09v8.5Z"/><path class="e" d="M1.42,43.94H15.59v43.94h2.83V41.1H1.42v2.83Zm42.52,43.94h2.83V43.94h14.17v-2.83h-17.01v46.77ZM1.42,0V2.84H60.95V0H1.42Z"/><path class="e" d="M460.63,0h-2.83V87.88h59.53v-2.83h-56.69V0Zm17.01,52.44V0h-2.83V55.28h42.52v-2.83h-39.68Z"/><path class="e" d="M172.91,45.36c4.69,0,8.5-3.81,8.5-8.5V0h-2.83V36.85c0,3.13-2.54,5.67-5.67,5.67s-5.67-2.54-5.67-5.67V0h-2.83V36.85c0,4.69,3.81,8.5,8.5,8.5ZM199.84,0V58.11c0,14.85-12.08,26.93-26.93,26.93s-26.93-12.08-26.93-26.93V0h-2.83V58.11c0,16.41,13.35,29.76,29.76,29.76s29.76-13.35,29.76-29.76V0h-2.83Z"/><path class="e" d="M416.69,2.83c14.85,0,26.93,12.08,26.93,26.93h2.83C446.46,13.35,433.1,0,416.69,0s-29.76,13.35-29.76,29.76h2.83c0-14.85,12.08-26.93,26.93-26.93Zm0,82.21c-14.85,0-26.93-12.08-26.93-26.93h-2.83c0,16.41,13.35,29.76,29.76,29.76s29.76-13.35,29.76-29.76h-2.83c0,14.85-12.08,26.93-26.93,26.93Zm-8.5-45.18v8.5c0,4.69,3.81,8.5,8.5,8.5s8.5-3.81,8.5-8.5v-8.5c0-4.69-3.81-8.5-8.5-8.5s-8.5,3.81-8.5,8.5Zm14.17,0v8.5c0,3.12-2.54,5.67-5.67,5.67s-5.67-2.54-5.67-5.67v-8.5c0-3.13,2.54-5.67,5.67-5.67s5.67,2.54,5.67,5.67Z"/><path class="e" d="M558.42,2.83c14.85,0,26.93,12.08,26.93,26.93h2.83C588.19,13.35,574.84,0,558.42,0s-29.76,13.35-29.76,29.76h2.83c0-14.85,12.08-26.93,26.93-26.93Zm-8.5,37.03v8.5c0,4.69,3.81,8.5,8.5,8.5s8.5-3.81,8.5-8.5v-8.5c0-4.69-3.81-8.5-8.5-8.5s-8.5,3.81-8.5,8.5Zm14.17,0v8.5c0,3.12-2.54,5.67-5.67,5.67s-5.67-2.54-5.67-5.67v-8.5c0-3.13,2.54-5.67,5.67-5.67s5.67,2.54,5.67,5.67Zm-5.67,45.18c-14.85,0-26.93-12.08-26.93-26.93h-2.83c0,16.41,13.35,29.76,29.76,29.76s29.76-13.35,29.76-29.76h-2.83c0,14.85-12.08,26.93-26.93,26.93Z"/><path class="e" d="M670.39,56.69h19.25l-19.25,19.26v4.01l26.1-26.1h-26.1v2.83ZM698.15,0l-27.76,27.76v4.01L702.16,0h-4.01Zm5.67,34.02h26.1v-2.83h-19.25l19.26-19.26V7.92l-26.1,26.1Zm-1.66,53.86l27.76-27.76v-4.01l-31.77,31.77h4.01Z"/><path class="e" d="M100.63,87.85h2.83v-20.68l20.7,20.7h4.01l-27.54-27.55v27.52Zm14.17-59.5c0-4.69-3.81-8.5-8.5-8.5h-5.67v17.01h5.67c4.69,0,8.5-3.81,8.5-8.5Zm-8.5,5.67h-2.83v-11.34h2.83c3.12,0,5.67,2.54,5.67,5.67s-2.54,5.67-5.67,5.67Zm8.61,17.91c10.2-4.06,16.9-13.84,16.9-25C131.81,12.08,119.73,0,104.88,0h-32.6V87.87h2.83V2.84h29.76c13.29,0,24.09,10.81,24.09,24.09,0,10.68-6.86,19.95-17.08,23.05l-2.26,.69,22.17,22.17v-4.01l-16.9-16.9Z"/><path class="e" d="M627.87,87.85h2.83v-20.67l20.7,20.7h4.01l-27.55-27.55v27.52Zm14.17-59.5c0-4.69-3.81-8.5-8.5-8.5h-5.67v17.01h5.67c4.69,0,8.5-3.81,8.5-8.5Zm-8.5,5.67h-2.83v-11.34h2.83c3.13,0,5.67,2.54,5.67,5.67s-2.54,5.67-5.67,5.67Zm8.61,17.91c10.2-4.06,16.9-13.84,16.9-25C659.05,12.08,646.97,0,632.13,0h-32.6V87.88h2.83V2.84h29.76c13.29,0,24.09,10.81,24.09,24.1,0,10.68-6.86,19.95-17.08,23.05l-2.26,.69,22.17,22.17v-4.01l-16.9-16.9Z"/><path class="e" d="M344.41,43.94c0,5.47,4.45,9.92,9.92,9.92h21.26v-2.83h-21.26c-3.91,0-7.09-3.18-7.09-7.09s3.18-7.09,7.09-7.09h21.26v-2.83h-21.26c-5.47,0-9.92,4.45-9.92,9.92ZM360,0c-24.23,0-43.94,19.71-43.94,43.94s19.71,43.94,43.94,43.94h15.59v-2.83h-15.59c-22.66,0-41.1-18.44-41.1-41.1S337.34,2.84,360,2.84h15.59V0h-15.59Z"/><path class="e" d="M257.95,58.11c0,4.69,3.81,8.5,8.5,8.5h7.09v-2.83h-7.09c-3.13,0-5.67-2.54-5.67-5.67s2.54-5.67,5.67-5.67h7.09v-2.83h-7.09c-4.69,0-8.5,3.81-8.5,8.5Zm0-28.35c0,4.69,3.81,8.5,8.5,8.5h7.09v-2.83h-7.09c-3.13,0-5.67-2.54-5.67-5.67s2.54-5.67,5.67-5.67h7.09v-2.83h-7.09c-4.69,0-8.5,3.81-8.5,8.5ZM236.98,0c-12.66,0-22.96,10.3-22.96,22.96,0,9.26,5.43,17.37,13.63,20.98-8.2,3.61-13.63,11.72-13.63,20.98,0,12.66,10.3,22.96,22.96,22.96h36.57v-2.83h-36.57c-11.1,0-20.13-9.03-20.13-20.13,0-9.31,6.27-17.28,15.28-19.51v-2.94c-9.01-2.23-15.28-10.2-15.28-19.51,0-11.1,9.03-20.12,20.13-20.12h36.57V0h-36.57Z"/><polygon class="d" points="253 98.51 253 124.02 227.48 98.51 216.14 98.51 216.14 186.38 235.98 186.38 235.98 160.87 261.5 186.38 272.83 186.38 272.83 98.51 253 98.51"/><polygon class="d" points="323.86 97.8 323.86 123.31 298.35 97.8 287.01 97.8 287.01 185.67 306.85 185.67 306.85 160.16 332.36 185.67 343.7 185.67 343.7 97.8 323.86 97.8"/><path class="d" d="M109.84,98.51v14.17c0,3.91-3.17,7.09-7.09,7.09s-7.09-3.17-7.09-7.09v-14.17h-21.26v87.88h21.26v-14.17c0-3.91,3.17-7.09,7.09-7.09s7.09,3.17,7.09,7.09v14.17h21.26V98.51h-21.26Z"/><path class="d" d="M38.26,134.65h21.26v-34.02h-15.59c-23.48,0-42.52,19.04-42.52,42.52s19.04,42.52,42.52,42.52h15.59v-34.02h-21.26c-4.7,0-8.5-3.81-8.5-8.5s3.81-8.5,8.5-8.5Z"/><path class="d" d="M415.28,184.25h-36.57c-11.9,0-21.54-9.64-21.54-21.54,0-10.23,7.14-18.78,16.7-20.98-9.56-2.2-16.7-10.75-16.7-20.98,0-11.9,9.64-21.54,21.54-21.54h36.57v21.26h-7.09c-3.91,0-7.09,3.17-7.09,7.09s3.17,7.09,7.09,7.09h7.09v14.18h-7.09c-3.91,0-7.09,3.17-7.09,7.09s3.17,7.09,7.09,7.09h7.09v21.26Z"/><path class="d" d="M144.56,99.21v86.46h21.26v-11.34c0-3.91,3.17-7.09,7.09-7.09s7.09,3.17,7.09,7.09v11.34h21.26V99.21h-56.69Zm35.43,42.52h-14.17v-9.92c0-3.91,3.17-7.09,7.09-7.09s7.09,3.17,7.09,7.09v9.92Z"/><polygon class="d" points="444.33 153.07 444.33 99.22 427.32 99.22 427.32 185.67 485.43 185.67 485.43 153.07 444.33 153.07"/><path class="e" d="M428.74,98.51h-2.83v87.87h59.53v-2.83h-56.69V98.51Zm17.01,52.44v-52.44h-2.83v55.27h42.52v-2.83h-39.68Z"/><path class="e" d="M254.41,98.51h-2.83v22.09l-22.09-22.09h-4.01l28.93,28.93v-28.93Zm-39.69,87.88h2.84V98.51h-2.84v87.88Zm19.84,0h2.83v-22.09l22.09,22.09h4.01l-28.93-28.93v28.93Zm36.85-87.88v87.88h2.83V98.51h-2.83Z"/><path class="e" d="M325.28,97.8h-2.83v22.09l-22.09-22.09h-4.01l28.93,28.93v-28.93Zm-39.69,87.88h2.84V97.8h-2.84v87.88Zm19.84,0h2.83v-22.09l22.09,22.09h4.01l-28.93-28.93v28.93Zm36.85-87.88v87.88h2.83V97.8h-2.83Z"/><path class="e" d="M399.69,155.91c0,4.69,3.81,8.5,8.5,8.5h7.09v-2.83h-7.09c-3.13,0-5.67-2.54-5.67-5.67s2.54-5.67,5.67-5.67h7.09v-2.83h-7.09c-4.69,0-8.5,3.81-8.5,8.5Zm0-28.35c0,4.69,3.81,8.5,8.5,8.5h7.09v-2.83h-7.09c-3.13,0-5.67-2.54-5.67-5.67s2.54-5.67,5.67-5.67h7.09v-2.83h-7.09c-4.69,0-8.5,3.81-8.5,8.5Zm-20.98-29.76c-12.66,0-22.96,10.3-22.96,22.96,0,9.26,5.43,17.37,13.63,20.98-8.2,3.61-13.63,11.72-13.63,20.98,0,12.66,10.3,22.96,22.96,22.96h36.57v-2.83h-36.57c-11.1,0-20.13-9.03-20.13-20.13,0-9.31,6.27-17.28,15.28-19.51v-2.94c-9.01-2.23-15.28-10.2-15.28-19.51,0-11.1,9.03-20.12,20.13-20.12h36.57v-2.83h-36.57Z"/><path class="e" d="M172.91,166.54c-4.69,0-8.5,3.82-8.5,8.5v11.34h2.83v-11.34c0-3.12,2.54-5.67,5.67-5.67s5.67,2.55,5.67,5.67v11.34h2.83v-11.34c0-4.69-3.81-8.5-8.5-8.5Zm0-42.52c-4.69,0-8.5,3.82-8.5,8.5v11.34h17.01v-11.34c0-4.69-3.81-8.5-8.5-8.5Zm5.67,17.01h-11.34v-8.5c0-3.12,2.54-5.67,5.67-5.67s5.67,2.55,5.67,5.67v8.5Zm-35.43-42.52v87.88h2.83V101.34h53.86v85.04h2.83V98.51h-59.53Z"/><path class="e" d="M28.34,143.15c0,5.47,4.45,9.92,9.92,9.92h21.26v-2.84h-21.26c-3.91,0-7.09-3.18-7.09-7.09s3.18-7.09,7.09-7.09h21.26v-2.84h-21.26c-5.47,0-9.92,4.45-9.92,9.92Zm15.59-43.94C19.71,99.21,0,118.93,0,143.15s19.71,43.94,43.94,43.94h15.59v-2.84h-15.59c-22.66,0-41.1-18.44-41.1-41.1s18.44-41.1,41.1-41.1h15.59v-2.84h-15.59Z"/><g><path class="e" d="M111.26,186.38h-2.84v-14.17c0-3.13-2.54-5.67-5.67-5.67s-5.67,2.54-5.67,5.67v14.17h-2.84v-14.17c0-4.69,3.81-8.51,8.5-8.51s8.5,3.82,8.5,8.51v14.17Z"/><path class="e" d="M102.76,121.18c-4.69,0-8.5-3.81-8.5-8.5v-14.17h2.84v14.17c0,3.13,2.54,5.67,5.67,5.67s5.67-2.54,5.67-5.67v-14.17h2.84v14.17c0,4.69-3.81,8.5-8.5,8.5Z"/><rect class="e" x="129.68" y="98.51" width="2.84" height="87.88"/><rect class="e" x="72.99" y="98.51" width="2.84" height="87.88"/></g></g></g></svg>