<svg xmlns="http://www.w3.org/2000/svg" width="1052.55" height="273.15" viewBox="0 0 1052.55 273.15"><g transform="translate(-156.597 433.001)"><path d="M35.7,0H57.9V-92.55H89.4V-111H4.5v18.45H35.7Zm93.9-93.45H144c14.25,0,22.05,4.05,22.05,16.05,0,11.85-7.8,17.85-22.05,17.85H129.6ZM192.6,0,166.65-45.45C179.4-50.4,187.8-60.75,187.8-77.4c0-25.5-18.45-33.6-41.7-33.6H107.4V0h22.2V-42h15.45l22.8,42Zm59.7,2.1c27.15,0,42.9-15.15,42.9-52.05V-111H273.9v63c0,23.1-8.4,30.9-21.6,30.9-13.05,0-21-7.8-21-30.9v-63H209.1v61.05C209.1-13.05,225.3,2.1,252.3,2.1ZM321.9,0h69.75V-18.6H344.1V-48.3h39V-66.9h-39V-92.55H390V-111H321.9ZM493.5,2.1c14.4,0,26.25-5.7,35.4-16.35l-11.7-13.8c-6,6.45-13.5,10.95-22.95,10.95-17.55,0-28.95-14.55-28.95-38.7,0-23.85,12.6-38.25,29.4-38.25,8.4,0,14.85,3.9,20.4,9.3l11.7-14.1a45.278,45.278,0,0,0-32.55-14.25c-28.05,0-51.6,21.45-51.6,58.05C442.65-18,465.45,2.1,493.5,2.1Z" transform="translate(162.597 -319.901)" fill="#2b2e34"/><path d="M57.75,2.1c29.4,0,49.65-22.05,49.65-58.05S87.15-113.1,57.75-113.1,8.1-92.1,8.1-55.95C8.1-19.95,28.35,2.1,57.75,2.1Zm0-19.2c-16.5,0-27-15.15-27-38.85,0-23.85,10.5-38.1,27-38.1s27,14.25,27,38.1C84.75-32.25,74.25-17.1,57.75-17.1ZM129.15,0h67.2V-18.6h-45V-111h-22.2Z" transform="translate(689.847 -319.901)" fill="#2b2e34"/><path d="M57.75,2.1c29.4,0,49.65-22.05,49.65-58.05S87.15-113.1,57.75-113.1,8.1-92.1,8.1-55.95C8.1-19.95,28.35,2.1,57.75,2.1Zm0-19.2c-16.5,0-27-15.15-27-38.85,0-23.85,10.5-38.1,27-38.1s27,14.25,27,38.1C84.75-32.25,74.25-17.1,57.75-17.1Zm93.6-76.35h14.4c14.25,0,22.05,4.05,22.05,16.05,0,11.85-7.8,17.85-22.05,17.85h-14.4ZM214.35,0,188.4-45.45c12.75-4.95,21.15-15.3,21.15-31.95,0-25.5-18.45-33.6-41.7-33.6h-38.7V0h22.2V-42H166.8L189.6,0Z" transform="translate(886.197 -319.901)" fill="#2b2e34"/><path d="M46.8,2.1c25.65,0,40.8-15.45,40.8-33.6,0-16.05-8.85-24.6-22.35-30.15L50.7-67.8c-9.45-3.75-17.4-6.6-17.4-14.55,0-7.35,6.3-11.7,16.05-11.7,9.15,0,16.5,3.3,23.55,9.15L84.15-98.85a49.26,49.26,0,0,0-34.8-14.25c-22.5,0-38.4,13.95-38.4,32.1,0,16.2,11.25,25.2,22.5,29.85l14.85,6.3c9.9,4.2,16.65,6.75,16.65,15,0,7.8-6.15,12.75-17.7,12.75-9.75,0-20.25-4.95-28.2-12.3L6.3-14.1A59.15,59.15,0,0,0,46.8,2.1Z" transform="translate(1101.597 -319.901)" fill="#2b2e34"/><path d="M13.65,0h22.2V-45H75.3V-63.6H35.85V-92.55h46.2V-111H13.65ZM101.4,0h22.2V-111H101.4Zm49.5,0h67.2V-18.6h-45V-111H150.9Zm86.55,0H257.4V-46.35c0-10.5-1.8-25.95-2.85-36.45h.6L264-56.7l17.25,46.65H294L311.1-56.7l9-26.1h.6c-1.05,10.5-2.7,25.95-2.7,36.45V0h20.25V-111h-24.6L295.2-59.1c-2.4,6.9-4.35,14.25-6.75,21.45h-.75c-2.25-7.2-4.35-14.55-6.75-21.45L262.05-111h-24.6ZM399.6,0h22.2V-45h39.45V-63.6H421.8V-92.55H468V-111H399.6Zm87.75,0H557.1V-18.6H509.55V-48.3h39V-66.9h-39V-92.55h45.9V-111h-68.1Zm125.4,2.1c25.65,0,40.8-15.45,40.8-33.6,0-16.05-8.85-24.6-22.35-30.15L616.65-67.8c-9.45-3.75-17.4-6.6-17.4-14.55,0-7.35,6.3-11.7,16.05-11.7,9.15,0,16.5,3.3,23.55,9.15L650.1-98.85a49.26,49.26,0,0,0-34.8-14.25c-22.5,0-38.4,13.95-38.4,32.1,0,16.2,11.25,25.2,22.5,29.85l14.85,6.3c9.9,4.2,16.65,6.75,16.65,15,0,7.8-6.15,12.75-17.7,12.75-9.75,0-20.25-4.95-28.2-12.3L572.25-14.1A59.15,59.15,0,0,0,612.75,2.1Z" transform="translate(142.947 -161.951)" fill="#2b2e34"/><path d="M35.7,0H57.9V-92.55H89.4V-111H4.5v18.45H35.7Zm71.7,0h22.2V-111H107.4Zm69,0h26.4l34.05-111h-22.5l-14.4,54c-3.45,12.3-6,23.4-9.45,35.85h-.75c-3.6-12.45-5.85-23.55-9.3-35.85l-14.7-54H142.5Z" transform="translate(799.047 -161.951)" fill="#2b2e34"/><path d="M34.5-45.75,37.8-57.9c3.3-11.55,6.6-24.15,9.45-36.3h.6c3.3,12,6.3,24.75,9.75,36.3l3.3,12.15ZM73.5,0H96.75L61.05-111H34.95L-.6,0H21.9l7.8-28.5h36Zm36.3,0H177V-18.6H132V-111H109.8Z" transform="translate(1032.147 -161.951)" fill="#2b2e34"/></g></svg>