<?xml version="1.0" encoding="UTF-8"?><svg id="_イヤー_2" xmlns="http://www.w3.org/2000/svg" viewBox="0 0 1225.11 99.84"><defs><style>.cls-1{fill:#231814;}</style></defs><g id="_イヤー_1-2"><g><path class="cls-1" d="M27.04,17.81H0V1.82H73.58v15.99h-27.3V98.02H27.04V17.81Z"/><path class="cls-1" d="M89.18,1.82h19.24V39.65h36.4V1.82h19.11V98.02h-19.11V56.42h-36.4v41.6h-19.24V1.82Z"/><path class="cls-1" d="M187.59,1.82h59.02v15.99h-39.78v22.23h33.8v16.12h-33.8v25.74h41.21v16.12h-60.45V1.82Z"/><path class="cls-1" d="M292.24,50.31c0-31.72,20.41-50.31,44.72-50.31,12.22,0,21.97,5.85,28.21,12.35l-10.14,12.22c-4.81-4.68-10.4-8.06-17.68-8.06-14.56,0-25.48,12.48-25.48,33.15s9.88,33.54,25.09,33.54c8.19,0,14.69-3.9,19.89-9.49l10.14,11.96c-7.93,9.23-18.2,14.17-30.68,14.17-24.31,0-44.07-17.42-44.07-49.53Z"/><path class="cls-1" d="M372.58,49.53c0-31.33,17.55-49.53,43.03-49.53s43.03,18.33,43.03,49.53-17.55,50.31-43.03,50.31-43.03-19.11-43.03-50.31Zm66.43,0c0-20.67-9.1-33.02-23.4-33.02s-23.4,12.35-23.4,33.02,9.1,33.67,23.4,33.67,23.4-13.13,23.4-33.67Z"/><path class="cls-1" d="M477.48,1.82h19.63l27.95,51.22,9.62,20.8h.65c-1.04-10.01-2.47-22.75-2.47-33.67V1.82h18.2V98.02h-19.5l-27.82-51.48-9.75-20.67h-.65c.91,10.4,2.34,22.49,2.34,33.54v38.61h-18.2V1.82Z"/><path class="cls-1" d="M570.04,50.31c0-31.72,20.41-50.31,44.72-50.31,12.22,0,21.97,5.85,28.21,12.35l-10.14,12.22c-4.81-4.68-10.4-8.06-17.68-8.06-14.56,0-25.48,12.48-25.48,33.15s9.88,33.54,25.09,33.54c8.19,0,14.69-3.9,19.89-9.49l10.14,11.96c-7.93,9.23-18.2,14.17-30.68,14.17-24.31,0-44.07-17.42-44.07-49.53Z"/><path class="cls-1" d="M660.26,1.82h59.02v15.99h-39.78v22.23h33.8v16.12h-33.8v25.74h41.21v16.12h-60.45V1.82Z"/><path class="cls-1" d="M792.6,98.02l-19.76-36.4h-13.39v36.4h-19.24V1.82h33.54c20.15,0,36.14,7.02,36.14,29.12,0,14.43-7.28,23.4-18.33,27.69l22.49,39.39h-21.45Zm-33.15-51.61h12.48c12.35,0,19.11-5.2,19.11-15.47s-6.76-13.91-19.11-13.91h-12.48v29.38Z"/><path class="cls-1" d="M845.51,17.81h-27.04V1.82h73.58v15.99h-27.3V98.02h-19.24V17.81Z"/><path class="cls-1" d="M930.92,86.97c26.13-23.4,41.6-41.47,41.6-56.29,0-9.75-5.33-15.6-14.43-15.6-7.02,0-12.87,4.55-17.68,9.88l-10.4-10.4c8.84-9.36,17.42-14.56,30.55-14.56,18.2,0,30.29,11.7,30.29,29.64s-14.43,36.14-31.98,53.3c4.81-.52,11.18-1.04,15.6-1.04h20.93v16.12h-64.48v-11.05Z"/><path class="cls-1" d="M1007.62,49.53c0-33.28,13-49.53,32.63-49.53s32.5,16.38,32.5,49.53-13,50.31-32.5,50.31-32.63-17.16-32.63-50.31Zm47.06,0c0-26.91-6.24-34.71-14.43-34.71s-14.56,7.8-14.56,34.71,6.24,35.36,14.56,35.36,14.43-8.32,14.43-35.36Z"/><path class="cls-1" d="M1084.06,86.97c26.13-23.4,41.6-41.47,41.6-56.29,0-9.75-5.33-15.6-14.43-15.6-7.02,0-12.87,4.55-17.68,9.88l-10.4-10.4c8.84-9.36,17.42-14.56,30.55-14.56,18.2,0,30.29,11.7,30.29,29.64s-14.43,36.14-31.98,53.3c4.81-.52,11.18-1.04,15.6-1.04h20.93v16.12h-64.48v-11.05Z"/><path class="cls-1" d="M1160.62,86.97c26.13-23.4,41.6-41.47,41.6-56.29,0-9.75-5.33-15.6-14.43-15.6-7.02,0-12.87,4.55-17.68,9.88l-10.4-10.4c8.84-9.36,17.42-14.56,30.55-14.56,18.2,0,30.29,11.7,30.29,29.64s-14.43,36.14-31.98,53.3c4.81-.52,11.18-1.04,15.6-1.04h20.93v16.12h-64.48v-11.05Z"/></g></g></svg>