<svg xmlns="http://www.w3.org/2000/svg" viewBox="0 0 726.97 93.53"><defs><style>.cls-1{fill:#231815;}.cls-2{fill:#fff;}</style></defs><g id="レイヤー_2" data-name="レイヤー 2"><g id="Lines"><path class="cls-1" d="M157.62,51a8.51,8.51,0,0,0,8.5-8.5V5.65h-2.83V42.51a5.67,5.67,0,0,1-11.34,0V5.65h-2.84V42.51A8.52,8.52,0,0,0,157.62,51ZM184.55,5.65V63.76a26.93,26.93,0,0,1-53.86,0V5.65h-2.84V63.76a29.77,29.77,0,1,0,59.53,0V5.65Z"/><polygon class="cls-2" points="53.86 3.71 29.76 27.81 5.67 3.71 0 3.71 0 32.06 12.76 44.81 0 57.57 0 91.59 8.51 91.59 59.53 40.56 59.53 3.71 53.86 3.71"/><path class="cls-1" d="M55.86,3.7h-4L29.76,25.8,7.67,3.7h-4l26.1,26.1ZM0,30.05v4L10.75,44.8,0,55.55v4L14.76,44.8ZM6.5,91.58h4l49-49v-4Z"/><path class="cls-2" d="M125.43,33.47a28.35,28.35,0,0,0-56.69,0H67.32V61.82h1.42a28.35,28.35,0,1,0,56.69,0h1.42V33.47Zm-21.26,18.6a7.09,7.09,0,1,1-14.17,0v-8.5a7.09,7.09,0,1,1,14.17,0Z"/><path class="cls-1" d="M93.54,3.7a27,27,0,0,1,26.93,26.93h2.84a29.77,29.77,0,0,0-59.53,0h2.83A27,27,0,0,1,93.54,3.7Zm-8.5,37v8.5a8.51,8.51,0,0,0,17,0v-8.5a8.51,8.51,0,1,0-17,0Zm14.17,0v8.5a5.67,5.67,0,1,1-11.34,0v-8.5a5.67,5.67,0,1,1,11.34,0ZM93.54,85.91A27,27,0,0,1,66.61,59H63.78a29.77,29.77,0,0,0,59.53,0h-2.84A27,27,0,0,1,93.54,85.91Z"/><path class="cls-1" d="M255.12,54.73H248a9.92,9.92,0,1,1,0-19.84h21.26v2.84H248a7.09,7.09,0,1,0,0,14.17h4.25V44.81h2.84Z"/><path class="cls-1" d="M256.79,88.73h-4.46A43.94,43.94,0,0,1,253.7.88h15.59V3.71H253.7a41.1,41.1,0,0,0-1.28,82.18c.38,0,8.14,0,14,0V44.8h2.83V88.73h-12.5Z"/><path class="cls-1" d="M306.14,2.83a27,27,0,0,1,26.93,26.93h2.84a29.77,29.77,0,0,0-59.53,0h2.83A27,27,0,0,1,306.14,2.83Zm-8.5,37v8.51a8.51,8.51,0,0,0,17,0V39.86a8.51,8.51,0,0,0-17,0Zm14.17,0v8.51a5.67,5.67,0,0,1-11.34,0V39.86a5.67,5.67,0,0,1,11.34,0ZM306.14,85a27,27,0,0,1-26.93-26.93h-2.83a29.77,29.77,0,0,0,59.53,0h-2.84A27,27,0,0,1,306.14,85Z"/><path class="cls-1" d="M343.29,47.65h14.17V91.58h2.84V44.81h-17Zm42.52,43.93h2.83V47.65h14.17V44.81h-17ZM343.29,3.71V6.54h59.52V3.71Z"/><path class="cls-1" d="M411.32,47.65h14.17V91.58h2.84V44.81h-17Zm42.52,43.93h2.83V47.65h14.18V44.81h-17ZM411.32,3.71V6.54h59.53V3.71Z"/><path class="cls-1" d="M508.82,71a8.51,8.51,0,0,0-8.5,8.51V90.87h2.83V79.54a5.67,5.67,0,1,1,11.34,0V90.87h2.83V79.54A8.51,8.51,0,0,0,508.82,71Zm0-42.52a8.51,8.51,0,0,0-8.5,8.51V48.35h17V37A8.51,8.51,0,0,0,508.82,28.51Zm5.67,17H503.15V37a5.67,5.67,0,1,1,11.34,0ZM479.06,3V90.87h2.83v-85h53.86v85h2.83V3Z"/><path class="cls-1" d="M612,46.94A23,23,0,0,0,602.66,3H566.1V5.83h36.56a20.11,20.11,0,0,1,4.85,39.64v2.94A20.11,20.11,0,0,1,602.66,88H566.1v2.83h36.56A23,23,0,0,0,612,46.94Zm-6.21-16.73a8.52,8.52,0,0,0-8.5-8.5h-5.67v17h5.67A8.52,8.52,0,0,0,605.78,30.21Zm-11.34-5.67h2.84a5.67,5.67,0,0,1,0,11.34h-2.84Zm-2.83,47.63h5.67a8.51,8.51,0,0,0,0-17h-5.67ZM594.44,58h2.84a5.67,5.67,0,0,1,0,11.34h-2.84Z"/><path class="cls-1" d="M676.3,60.29a8.51,8.51,0,0,0,8.5,8.5h7.09V66H684.8a5.67,5.67,0,1,1,0-11.34h7.09V51.79H684.8A8.51,8.51,0,0,0,676.3,60.29Zm0-28.35a8.51,8.51,0,0,0,8.5,8.5h7.09V37.61H684.8a5.67,5.67,0,1,1,0-11.34h7.09V23.43H684.8A8.51,8.51,0,0,0,676.3,31.94Zm-21-29.76A23,23,0,0,0,646,46.11a23,23,0,0,0,9.33,43.94h36.57V87.21H655.32a20.11,20.11,0,0,1-4.84-39.63V44.65A20.11,20.11,0,0,1,655.32,5h36.57V2.18Z"/><path class="cls-1" d="M704.29,1.58h-2.83V63.94h2.83Zm19.85,0H721.3V63.94h2.84ZM712.8,66.78a14.14,14.14,0,0,0-11.31,22.68h3.83a11.35,11.35,0,1,1,14.95,0h3.84A14.15,14.15,0,0,0,712.8,66.78Z"/></g></g></svg>