<?xml version="1.0" encoding="utf-8"?>
<!-- Generator: Adobe Illustrator 23.0.6, SVG Export Plug-In . SVG Version: 6.00 Build 0)  -->
<svg version="1.1" id="レイヤー_1" xmlns="http://www.w3.org/2000/svg" xmlns:xlink="http://www.w3.org/1999/xlink" x="0px"
	 y="0px" viewBox="0 0 1231.2 654.8" style="enable-background:new 0 0 1231.2 654.8;" xml:space="preserve">
<style type="text/css">
	.st0{fill:#FFFFFF;}
	
		.st1{clip-path:url(#SVGID_2_);fill:none;stroke:#EA5532;stroke-width:30;stroke-linecap:round;stroke-linejoin:round;stroke-miterlimit:10;}
	
		.st2{clip-path:url(#SVGID_4_);fill:none;stroke:#FFF100;stroke-width:30;stroke-linecap:round;stroke-linejoin:round;stroke-miterlimit:10;}
	
		.st3{clip-path:url(#SVGID_6_);fill:none;stroke:#B08C7B;stroke-width:30;stroke-linecap:round;stroke-linejoin:round;stroke-miterlimit:10;}
	
		.st4{clip-path:url(#SVGID_8_);fill:none;stroke:#B08C7B;stroke-width:30;stroke-linecap:round;stroke-linejoin:round;stroke-miterlimit:10;}
	
		.st5{clip-path:url(#SVGID_10_);fill:none;stroke:#84CCC9;stroke-width:30;stroke-linecap:round;stroke-linejoin:round;stroke-miterlimit:10;}
	
		.st6{clip-path:url(#SVGID_12_);fill:none;stroke:#84CCC9;stroke-width:30;stroke-linecap:round;stroke-linejoin:round;stroke-miterlimit:10;}
	
		.st7{clip-path:url(#SVGID_14_);fill:none;stroke:#E85298;stroke-width:30;stroke-linecap:round;stroke-linejoin:round;stroke-miterlimit:10;}
	
		.st8{clip-path:url(#SVGID_16_);fill:none;stroke:#FFF100;stroke-width:30;stroke-linecap:round;stroke-linejoin:round;stroke-miterlimit:10;}
	
		.st9{clip-path:url(#SVGID_18_);fill:none;stroke:#FFF100;stroke-width:30;stroke-linecap:round;stroke-linejoin:round;stroke-miterlimit:10;}
	
		.st10{clip-path:url(#SVGID_20_);fill:none;stroke:#EA5532;stroke-width:30;stroke-linecap:round;stroke-linejoin:round;stroke-miterlimit:10;}
	
		.st11{clip-path:url(#SVGID_22_);fill:none;stroke:#EA5532;stroke-width:30;stroke-linecap:round;stroke-linejoin:round;stroke-miterlimit:10;}
	
		.st12{clip-path:url(#SVGID_24_);fill:none;stroke:#84CCC9;stroke-width:30;stroke-linecap:round;stroke-linejoin:round;stroke-miterlimit:10;}
	
		.st13{clip-path:url(#SVGID_26_);fill:none;stroke:#84CCC9;stroke-width:30;stroke-linecap:round;stroke-linejoin:round;stroke-miterlimit:10;}
	
		.st14{clip-path:url(#SVGID_28_);fill:none;stroke:#EA5532;stroke-width:30;stroke-linecap:round;stroke-linejoin:round;stroke-miterlimit:10;}
	
		.st15{clip-path:url(#SVGID_30_);fill:none;stroke:#EA5532;stroke-width:30;stroke-linecap:round;stroke-linejoin:round;stroke-miterlimit:10;}
	
		.st16{clip-path:url(#SVGID_32_);fill:none;stroke:#E85298;stroke-width:30;stroke-linecap:round;stroke-linejoin:round;stroke-miterlimit:10;}
	
		.st17{clip-path:url(#SVGID_34_);fill:none;stroke:#E85298;stroke-width:30;stroke-linecap:round;stroke-linejoin:round;stroke-miterlimit:10;}
	
		.st18{clip-path:url(#SVGID_36_);fill:none;stroke:#FFF100;stroke-width:30;stroke-linecap:round;stroke-linejoin:round;stroke-miterlimit:10;}
	
		.st19{clip-path:url(#SVGID_38_);fill:none;stroke:#FFF100;stroke-width:30;stroke-linecap:round;stroke-linejoin:round;stroke-miterlimit:10;}
	
		.st20{clip-path:url(#SVGID_40_);fill:none;stroke:#84CCC9;stroke-width:30;stroke-linecap:round;stroke-linejoin:round;stroke-miterlimit:10;}
	
		.st21{clip-path:url(#SVGID_42_);fill:none;stroke:#B08C7B;stroke-width:30;stroke-linecap:round;stroke-linejoin:round;stroke-miterlimit:10;}
	
		.st22{clip-path:url(#SVGID_44_);fill:none;stroke:#B08C7B;stroke-width:30;stroke-linecap:round;stroke-linejoin:round;stroke-miterlimit:10;}
	
		.st23{clip-path:url(#SVGID_46_);fill:none;stroke:#E85298;stroke-width:30;stroke-linecap:round;stroke-linejoin:round;stroke-miterlimit:10;}
	
		.st24{clip-path:url(#SVGID_48_);fill:none;stroke:#E85298;stroke-width:30;stroke-linecap:round;stroke-linejoin:round;stroke-miterlimit:10;}
	
		.st25{clip-path:url(#SVGID_50_);fill:none;stroke:#B08C7B;stroke-width:30;stroke-linecap:round;stroke-linejoin:round;stroke-miterlimit:10;}
	
		.st26{clip-path:url(#SVGID_52_);fill:none;stroke:#B08C7B;stroke-width:30;stroke-linecap:round;stroke-linejoin:round;stroke-miterlimit:10;}
	
		.st27{clip-path:url(#SVGID_54_);fill:none;stroke:#EA5532;stroke-width:30;stroke-linecap:round;stroke-linejoin:round;stroke-miterlimit:10;}
	
		.st28{clip-path:url(#SVGID_56_);fill:none;stroke:#84CCC9;stroke-width:30;stroke-linecap:round;stroke-linejoin:round;stroke-miterlimit:10;}
	
		.st29{clip-path:url(#SVGID_58_);fill:none;stroke:#84CCC9;stroke-width:30;stroke-linecap:round;stroke-linejoin:round;stroke-miterlimit:10;}
	
		.st30{clip-path:url(#SVGID_60_);fill:none;stroke:#FFF100;stroke-width:30;stroke-linecap:round;stroke-linejoin:round;stroke-miterlimit:10;}
	.st31{fill:none;stroke:#231815;stroke-width:6;stroke-miterlimit:10;}
	.st32{fill:none;stroke:#231815;stroke-width:6;stroke-linecap:square;stroke-miterlimit:10;}
	.st33{clip-path:url(#SVGID_62_);fill:none;stroke:#231815;stroke-width:6;stroke-miterlimit:10;}
	.st34{clip-path:url(#SVGID_64_);fill:none;stroke:#231815;stroke-width:6;stroke-miterlimit:10;}
	.st35{clip-path:url(#SVGID_66_);fill:none;stroke:#231815;stroke-width:6;stroke-miterlimit:10;}
	.st36{clip-path:url(#SVGID_68_);fill:none;stroke:#231815;stroke-width:6;stroke-miterlimit:10;}
	.st37{clip-path:url(#SVGID_70_);fill:none;stroke:#231815;stroke-width:6;stroke-miterlimit:10;}
	.st38{clip-path:url(#SVGID_72_);fill:none;stroke:#231815;stroke-width:6;stroke-miterlimit:10;}
	.st39{clip-path:url(#SVGID_74_);fill:none;stroke:#231815;stroke-width:6;stroke-miterlimit:10;}
	.st40{clip-path:url(#SVGID_76_);fill:none;stroke:#231815;stroke-width:6;stroke-miterlimit:10;}
	.st41{clip-path:url(#SVGID_78_);fill:none;stroke:#231815;stroke-width:6;stroke-miterlimit:10;}
	.st42{clip-path:url(#SVGID_80_);fill:none;stroke:#231815;stroke-width:6;stroke-miterlimit:10;}
	.st43{fill:none;stroke:#231815;stroke-width:6;}
	.st44{clip-path:url(#SVGID_82_);fill:none;stroke:#231815;stroke-width:6;stroke-miterlimit:10;}
	.st45{clip-path:url(#SVGID_84_);fill:none;stroke:#231815;stroke-width:6;stroke-miterlimit:10;}
	.st46{clip-path:url(#SVGID_86_);fill:none;stroke:#231815;stroke-width:6;stroke-miterlimit:10;}
	.st47{clip-path:url(#SVGID_88_);fill:none;stroke:#231815;stroke-width:6;stroke-miterlimit:10;}
</style>
<g id="base">
	<rect id="base_x5F_1" x="27.6" y="24.4" class="st0" width="576" height="186"/>
	<rect id="base_x5F_2" x="27.6" y="234.4" class="st0" width="876" height="186"/>
	<rect id="base_x5F_3" x="27.6" y="444.4" class="st0" width="1176" height="186"/>
</g>
<g id="base_x5F_w">
	<g id="fill-stroke">
		<g>
			<g>
				<defs>
					<polygon id="SVGID_1_" points="1116.6,558.4 1116.6,444.4 1080.6,444.4 1080.6,627.4 1203.5,627.4 1203.5,558.4 					"/>
				</defs>
				<clipPath id="SVGID_2_">
					<use xlink:href="#SVGID_1_"  style="overflow:visible;"/>
				</clipPath>
				<polyline class="st1" points="1098.9,444.3 1098.9,594.5 1202.9,594.5 				"/>
			</g>
		</g>
		<g>
			<g>
				<defs>
					<path id="SVGID_3_" d="M930.7,447.7v182.4h45.1v-23.6c0-8.2,6.7-14.9,14.9-14.9s14.9,6.7,14.9,14.9v23.6h45.1V447.7H930.7z
						 M1005.6,537.3h-29.9v-20.9c0-8.2,6.7-14.9,14.9-14.9s14.9,6.7,14.9,14.9L1005.6,537.3L1005.6,537.3z"/>
				</defs>
				<clipPath id="SVGID_4_">
					<use xlink:href="#SVGID_3_"  style="overflow:visible;"/>
				</clipPath>
				<line class="st2" x1="990.7" y1="630.1" x2="990.7" y2="447.4"/>
			</g>
		</g>
		<g>
			<g>
				<defs>
					<polygon id="SVGID_5_" points="903.6,540.2 903.6,444.4 889.1,444.4 834.5,499 834.5,444.4 780.6,444.4 780.6,630.4 
						813.4,630.4 					"/>
				</defs>
				<clipPath id="SVGID_6_">
					<use xlink:href="#SVGID_5_"  style="overflow:visible;"/>
				</clipPath>
				<line class="st3" x1="807.1" y1="444.4" x2="807.1" y2="630.1"/>
			</g>
			<g>
				<defs>
					<polygon id="SVGID_7_" points="903.6,540.2 903.6,444.4 889.1,444.4 834.5,499 834.5,444.4 780.6,444.4 780.6,630.4 
						813.4,630.4 					"/>
				</defs>
				<clipPath id="SVGID_8_">
					<use xlink:href="#SVGID_7_"  style="overflow:visible;"/>
				</clipPath>
				<line class="st4" x1="903.6" y1="489.9" x2="780.6" y2="598.6"/>
			</g>
		</g>
		<g>
			<g>
				<defs>
					<polygon id="SVGID_9_" points="753.7,480.4 753.7,447.4 627.7,447.4 627.7,480.4 654.7,480.4 654.7,594.4 627.7,594.4 
						627.7,627.4 753.7,627.4 753.7,594.4 726.7,594.4 726.7,480.4 					"/>
				</defs>
				<clipPath id="SVGID_10_">
					<use xlink:href="#SVGID_9_"  style="overflow:visible;"/>
				</clipPath>
				<line class="st5" x1="690.7" y1="627.4" x2="690.7" y2="537.3"/>
			</g>
			<g>
				<defs>
					<polygon id="SVGID_11_" points="753.7,480.4 753.7,447.4 627.7,447.4 627.7,480.4 654.7,480.4 654.7,594.4 627.7,594.4 
						627.7,627.4 753.7,627.4 753.7,594.4 726.7,594.4 726.7,480.4 					"/>
				</defs>
				<clipPath id="SVGID_12_">
					<use xlink:href="#SVGID_11_"  style="overflow:visible;"/>
				</clipPath>
				<line class="st6" x1="690.7" y1="447.7" x2="690.7" y2="537.3"/>
			</g>
		</g>
		<g>
			<g>
				<defs>
					<polygon id="SVGID_13_" points="603.6,447.4 477.6,447.4 477.6,533.4 511.1,533.4 511.1,630.1 570.1,630.1 570.1,533.4 
						603.6,533.4 					"/>
				</defs>
				<clipPath id="SVGID_14_">
					<use xlink:href="#SVGID_13_"  style="overflow:visible;"/>
				</clipPath>
				<line class="st7" x1="539.9" y1="630.7" x2="539.8" y2="447.7"/>
			</g>
		</g>
		<g>
			<g>
				<defs>
					<polygon id="SVGID_15_" points="453.6,444.4 390.8,444.4 327.5,507.7 327.5,561.3 375.8,561.3 327.5,609.6 327.5,630.5 
						390.1,630.5 453.6,567 453.5,513.3 405.4,513.3 453.6,465.1 					"/>
				</defs>
				<clipPath id="SVGID_16_">
					<use xlink:href="#SVGID_15_"  style="overflow:visible;"/>
				</clipPath>
				<line class="st8" x1="453.7" y1="444.4" x2="327.6" y2="561.3"/>
			</g>
			<g>
				<defs>
					<polygon id="SVGID_17_" points="453.6,444.4 390.8,444.4 327.5,507.7 327.5,561.3 375.8,561.3 327.5,609.6 327.5,630.5 
						390.1,630.5 453.6,567 453.5,513.3 405.4,513.3 453.6,465.1 					"/>
				</defs>
				<clipPath id="SVGID_18_">
					<use xlink:href="#SVGID_17_"  style="overflow:visible;"/>
				</clipPath>
				<line class="st9" x1="327.6" y1="630.5" x2="453.6" y2="513.3"/>
			</g>
		</g>
		<g>
			<g>
				<defs>
					<path id="SVGID_19_" d="M288.6,492.4h15v-45c-0.4,0-0.8,0-1.1,0h-76.2c-25.1,0-45.5,20.4-45.5,45.5c0,21.9,15.4,40.1,36,44.5
						c-20.6,4.4-36,22.6-36,44.5c0,25.1,20.4,45.5,45.5,45.5h75.8c0.5,0,1,0,1.5,0v-45h-15c-8.3,0-15-6.7-15-15s6.7-15,15-15h15v-30
						h-15c-8.3,0-15-6.7-15-15C273.6,499.1,280.3,492.4,288.6,492.4z"/>
				</defs>
				<clipPath id="SVGID_20_">
					<use xlink:href="#SVGID_19_"  style="overflow:visible;"/>
				</clipPath>
				<path class="st10" d="M303.5,470.8h-55.8c0,0-27.5,0.5-27.5,28.4c0,27.9,27.5,34.1,27.5,34.1h55.8"/>
			</g>
			<g>
				<defs>
					<path id="SVGID_21_" d="M288.6,492.4h15v-45c-0.4,0-0.8,0-1.1,0h-76.2c-25.1,0-45.5,20.4-45.5,45.5c0,21.9,15.4,40.1,36,44.5
						c-20.6,4.4-36,22.6-36,44.5c0,25.1,20.4,45.5,45.5,45.5h75.8c0.5,0,1,0,1.5,0v-45h-15c-8.3,0-15-6.7-15-15s6.7-15,15-15h15v-30
						h-15c-8.3,0-15-6.7-15-15C273.6,499.1,280.3,492.4,288.6,492.4z"/>
				</defs>
				<clipPath id="SVGID_22_">
					<use xlink:href="#SVGID_21_"  style="overflow:visible;"/>
				</clipPath>
				<path class="st11" d="M303.5,604.9h-55.8c0,0-27.5-0.5-27.5-28.4s27.5-34.1,27.5-34.1h55.8"/>
			</g>
		</g>
		<g>
			<g>
				<defs>
					<path id="SVGID_23_" d="M132.6,492.4h21v-45H30.7V630h87v-77.6h35.9v-30h-21c-8.3,0-15-6.7-15-15
						C117.6,499.1,124.4,492.4,132.6,492.4z"/>
				</defs>
				<clipPath id="SVGID_24_">
					<use xlink:href="#SVGID_23_"  style="overflow:visible;"/>
				</clipPath>
				<line class="st12" x1="72.2" y1="630.4" x2="72.2" y2="447.4"/>
			</g>
			<g>
				<defs>
					<path id="SVGID_25_" d="M132.6,492.4h21v-45H30.7V630h87v-77.6h35.9v-30h-21c-8.3,0-15-6.7-15-15
						C117.6,499.1,124.4,492.4,132.6,492.4z"/>
				</defs>
				<clipPath id="SVGID_26_">
					<use xlink:href="#SVGID_25_"  style="overflow:visible;"/>
				</clipPath>
				<path class="st13" d="M153.6,468.2h-37.3c0,0-24,1-24,37.3s35.6,33.4,35.6,33.4l25.7-0.2"/>
			</g>
		</g>
		<g>
			<g>
				<defs>
					<polygon id="SVGID_27_" points="903.6,234.4 840.9,234.4 777.6,297.7 777.6,351.3 825.9,351.3 777.6,399.5 777.6,420.4 
						840.1,420.4 903.6,357 903.6,303.3 855.4,303.3 903.6,255.1 					"/>
				</defs>
				<clipPath id="SVGID_28_">
					<use xlink:href="#SVGID_27_"  style="overflow:visible;"/>
				</clipPath>
				<line class="st14" x1="903.6" y1="234.4" x2="777.6" y2="351.3"/>
			</g>
			<g>
				<defs>
					<polygon id="SVGID_29_" points="903.6,234.4 840.9,234.4 777.6,297.7 777.6,351.3 825.9,351.3 777.6,399.5 777.6,420.4 
						840.1,420.4 903.6,357 903.6,303.3 855.4,303.3 903.6,255.1 					"/>
				</defs>
				<clipPath id="SVGID_30_">
					<use xlink:href="#SVGID_29_"  style="overflow:visible;"/>
				</clipPath>
				<line class="st15" x1="777.6" y1="420.4" x2="903.6" y2="303.3"/>
			</g>
		</g>
		<g>
			<g>
				<defs>
					<path id="SVGID_31_" d="M712.7,343.4c22.3-6.8,38.6-27.6,38.6-52.1c0-27.2-20-49.8-46-53.8h-74.6v182.9h59.9v-51l51.1,51.1h12
						v-36.1L712.7,343.4z M699.7,309.3h-9v-29.9h9c8.2,0,14.9,6.7,14.9,14.9C714.6,302.7,707.9,309.3,699.7,309.3z"/>
				</defs>
				<clipPath id="SVGID_32_">
					<use xlink:href="#SVGID_31_"  style="overflow:visible;"/>
				</clipPath>
				<line class="st16" x1="660.6" y1="420.3" x2="660.6" y2="237.6"/>
			</g>
			<g>
				<defs>
					<path id="SVGID_33_" d="M712.7,343.4c22.3-6.8,38.6-27.6,38.6-52.1c0-27.2-20-49.8-46-53.8h-74.6v182.9h59.9v-51l51.1,51.1h12
						v-36.1L712.7,343.4z M699.7,309.3h-9v-29.9h9c8.2,0,14.9,6.7,14.9,14.9C714.6,302.7,707.9,309.3,699.7,309.3z"/>
				</defs>
				<clipPath id="SVGID_34_">
					<use xlink:href="#SVGID_33_"  style="overflow:visible;"/>
				</clipPath>
				<path class="st17" d="M753.7,403l-67.9-63.4c0,0,46.3-11.8,46.3-45.1S690.7,254,690.7,254"/>
			</g>
		</g>
		<g>
			<g>
				<defs>
					<path id="SVGID_35_" d="M540.6,235.9c-34.8,0-63,28.2-63,63v57.3c0,34.8,28.2,63,63,63s63-28.2,63-63v-57.3
						C603.6,264.1,575.4,235.9,540.6,235.9z M555.6,336.4c0,8.3-6.7,15-15,15s-15-6.7-15-15v-18c0-8.3,6.7-15,15-15s15,6.7,15,15
						V336.4z"/>
				</defs>
				<clipPath id="SVGID_36_">
					<use xlink:href="#SVGID_35_"  style="overflow:visible;"/>
				</clipPath>
				<path class="st18" d="M539.9,270.5c0,0,38.7-0.3,38.7,57.1s-37,57.1-37,57.1"/>
			</g>
			<g>
				<defs>
					<path id="SVGID_37_" d="M540.6,235.9c-34.8,0-63,28.2-63,63v57.3c0,34.8,28.2,63,63,63s63-28.2,63-63v-57.3
						C603.6,264.1,575.4,235.9,540.6,235.9z M555.6,336.4c0,8.3-6.7,15-15,15s-15-6.7-15-15v-18c0-8.3,6.7-15,15-15s15,6.7,15,15
						V336.4z"/>
				</defs>
				<clipPath id="SVGID_38_">
					<use xlink:href="#SVGID_37_"  style="overflow:visible;"/>
				</clipPath>
				<path class="st19" d="M540,384.6c0,0-38.7,0.3-38.7-57.1s37-57.1,37-57.1"/>
			</g>
		</g>
		<g>
			<g>
				<defs>
					<polygon id="SVGID_39_" points="366.6,348.4 366.6,234.4 330.6,234.4 330.6,417.4 453.5,417.4 453.5,348.4 					"/>
				</defs>
				<clipPath id="SVGID_40_">
					<use xlink:href="#SVGID_39_"  style="overflow:visible;"/>
				</clipPath>
				<polyline class="st20" points="349.4,234.4 349.4,384.6 453.5,384.6 				"/>
			</g>
		</g>
		<g>
			<g>
				<defs>
					<path id="SVGID_41_" d="M240.6,235.9c-34.8,0-63,28.2-63,63v57.3c0,34.8,28.2,63,63,63s63-28.2,63-63v-57.3
						C303.6,264.1,275.4,235.9,240.6,235.9z M255.5,336.4c0,8.3-6.7,15-15,15s-15-6.7-15-15v-18c0-8.3,6.7-15,15-15s15,6.7,15,15
						V336.4z"/>
				</defs>
				<clipPath id="SVGID_42_">
					<use xlink:href="#SVGID_41_"  style="overflow:visible;"/>
				</clipPath>
				<path class="st21" d="M240.5,270.5c0,0,38.7-0.3,38.7,57.1s-37,57.1-37,57.1"/>
			</g>
			<g>
				<defs>
					<path id="SVGID_43_" d="M240.6,235.9c-34.8,0-63,28.2-63,63v57.3c0,34.8,28.2,63,63,63s63-28.2,63-63v-57.3
						C303.6,264.1,275.4,235.9,240.6,235.9z M255.5,336.4c0,8.3-6.7,15-15,15s-15-6.7-15-15v-18c0-8.3,6.7-15,15-15s15,6.7,15,15
						V336.4z"/>
				</defs>
				<clipPath id="SVGID_44_">
					<use xlink:href="#SVGID_43_"  style="overflow:visible;"/>
				</clipPath>
				<path class="st22" d="M240.9,384.6c0,0-38.7,0.3-38.7-57.1s37-57.1,37-57.1"/>
			</g>
		</g>
		<g>
			<g>
				<defs>
					<path id="SVGID_45_" d="M108.4,309.4h45.2v-72h-32.7c-49.7,0-90,40.3-90,90s40.3,90,90,90h32.7v-72h-45.2c-9.9,0-18-8.1-18-18
						C90.4,317.5,98.5,309.4,108.4,309.4z"/>
				</defs>
				<clipPath id="SVGID_46_">
					<use xlink:href="#SVGID_45_"  style="overflow:visible;"/>
				</clipPath>
				<path class="st23" d="M153.6,271.6c0,0-89.7-13.8-89.7,54.3"/>
			</g>
			<g>
				<defs>
					<path id="SVGID_47_" d="M108.4,309.4h45.2v-72h-32.7c-49.7,0-90,40.3-90,90s40.3,90,90,90h32.7v-72h-45.2c-9.9,0-18-8.1-18-18
						C90.4,317.5,98.5,309.4,108.4,309.4z"/>
				</defs>
				<clipPath id="SVGID_48_">
					<use xlink:href="#SVGID_47_"  style="overflow:visible;"/>
				</clipPath>
				<path class="st24" d="M153.6,383.5c0,0-89.7,13.8-89.7-54.3"/>
			</g>
		</g>
		<g>
			<g>
				<defs>
					<path id="SVGID_49_" d="M588.7,162.4c-8.3,0-15-6.7-15-15s6.7-15,15-15h14.9v-30h-14.9c-8.3,0-15-6.7-15-15s6.7-15,15-15h14.9
						v-45c-0.4,0-0.8,0-1.1,0h-76.1c-25.1,0-45.5,20.4-45.5,45.5c0,21.9,15.4,40.1,36,44.5c-20.6,4.4-36,22.6-36,44.5
						c0,25.1,20.4,45.5,45.5,45.5h75.8c0.5,0,1,0,1.5,0v-45H588.7z"/>
				</defs>
				<clipPath id="SVGID_50_">
					<use xlink:href="#SVGID_49_"  style="overflow:visible;"/>
				</clipPath>
				<path class="st25" d="M603.5,49.8h-55.8c0,0-27.5,0.5-27.5,28.4s27.5,34.1,27.5,34.1h55.8"/>
			</g>
			<g>
				<defs>
					<path id="SVGID_51_" d="M588.7,162.4c-8.3,0-15-6.7-15-15s6.7-15,15-15h14.9v-30h-14.9c-8.3,0-15-6.7-15-15s6.7-15,15-15h14.9
						v-45c-0.4,0-0.8,0-1.1,0h-76.1c-25.1,0-45.5,20.4-45.5,45.5c0,21.9,15.4,40.1,36,44.5c-20.6,4.4-36,22.6-36,44.5
						c0,25.1,20.4,45.5,45.5,45.5h75.8c0.5,0,1,0,1.5,0v-45H588.7z"/>
				</defs>
				<clipPath id="SVGID_52_">
					<use xlink:href="#SVGID_51_"  style="overflow:visible;"/>
				</clipPath>
				<path class="st26" d="M603.5,183.9h-55.8c0,0-27.5-0.5-27.5-28.4s27.5-34.1,27.5-34.1h55.8"/>
			</g>
		</g>
		<g>
			<g>
				<defs>
					<path id="SVGID_53_" d="M405.4,24.4v77.4c0,8.3-6.6,15-14.7,15s-14.8-6.7-14.8-15V24.4h-45.3v123c0,33.1,26.9,60,60,60
						c32.2,0,58.5-25.4,59.9-57.3V24.4H405.4z"/>
				</defs>
				<clipPath id="SVGID_54_">
					<use xlink:href="#SVGID_53_"  style="overflow:visible;"/>
				</clipPath>
				<line class="st27" x1="390.6" y1="24.4" x2="390.6" y2="207.4"/>
			</g>
		</g>
		<g>
			<g>
				<defs>
					<path id="SVGID_55_" d="M262.6,133.4c22.3-6.8,38.6-27.6,38.6-52.1c0-27.2-20-49.8-46-53.8h-74.6v182.9h59.9v-51l51.1,51.1h12
						v-36.1L262.6,133.4z M249.5,98.9h-8.8V69.6h8.8c8.1,0,14.6,6.5,14.6,14.6S257.6,98.9,249.5,98.9z"/>
				</defs>
				<clipPath id="SVGID_56_">
					<use xlink:href="#SVGID_55_"  style="overflow:visible;"/>
				</clipPath>
				<line class="st28" x1="210.4" y1="210.1" x2="210.4" y2="27.4"/>
			</g>
			<g>
				<defs>
					<path id="SVGID_57_" d="M262.6,133.4c22.3-6.8,38.6-27.6,38.6-52.1c0-27.2-20-49.8-46-53.8h-74.6v182.9h59.9v-51l51.1,51.1h12
						v-36.1L262.6,133.4z M249.5,98.9h-8.8V69.6h8.8c8.1,0,14.6,6.5,14.6,14.6S257.6,98.9,249.5,98.9z"/>
				</defs>
				<clipPath id="SVGID_58_">
					<use xlink:href="#SVGID_57_"  style="overflow:visible;"/>
				</clipPath>
				<path class="st29" d="M303.6,192.8l-67.9-63.4c0,0,46.3-11.8,46.3-45.1s-41.4-40.5-41.4-40.5"/>
			</g>
		</g>
		<g>
			<g>
				<defs>
					<polygon id="SVGID_59_" points="153.6,27.4 27.6,27.4 27.6,113.4 61.4,113.4 61.4,210.1 120.4,210.1 120.4,113.4 153.6,113.4 
											"/>
				</defs>
				<clipPath id="SVGID_60_">
					<use xlink:href="#SVGID_59_"  style="overflow:visible;"/>
				</clipPath>
				<line class="st30" x1="92.3" y1="210.4" x2="92.2" y2="27.4"/>
			</g>
		</g>
	</g>
	<g id="outline-stroke_1_">
		<polyline id="outline_x5F_1-1-2" class="st31" points="60.6,210.4 60.6,114.4 27.6,114.4 		"/>
		<polyline id="outline_x5F_1-1-3" class="st31" points="153.6,114.4 120.6,114.4 120.6,210.4 		"/>
		<path id="outline_x5F_1-4-2" class="st31" d="M603.6,102.4h-15c-8.3,0-15-6.7-15-15s6.7-15,15-15h15"/>
		<path id="outline_x5F_1-4-3" class="st31" d="M603.6,132.4h-15c-8.3,0-15,6.7-15,15s6.7,15,15,15h15"/>
		<path id="outline_x5F_1-3-2" class="st31" d="M405.6,24.4v78c0,8.3-6.7,15-15,15s-15-6.7-15-15v-78"/>
		<line id="outline_x5F_1-1-1" class="st31" x1="27.6" y1="27.4" x2="153.6" y2="27.4"/>
		<polyline id="outline_x5F_3-4-2" class="st31" points="510.6,630.4 510.6,534.4 477.6,534.4 		"/>
		<polyline id="outline_x5F_3-4-3" class="st31" points="603.6,534.4 570.6,534.4 570.6,630.4 		"/>
		<line id="outline_x5F_3-4-1" class="st31" x1="477.6" y1="447.4" x2="603.6" y2="447.4"/>
		<polyline id="outline_x5F_2-3-2" class="st31" points="366.6,234.4 366.6,348.4 453.6,348.4 		"/>
		<path id="outline_x5F_2-2-3" class="st31" d="M225.6,336.8c0,8.3,6.7,15,15,15s15-6.7,15-15v-18c0-8.3-6.7-15-15-15s-15,6.7-15,15
			V336.8z"/>
		<polyline id="outline_x5F_2-3-1" class="st31" points="453.6,417.4 330.6,417.4 330.6,234.4 		"/>
		<polyline id="outline_x5F_3-8-2" class="st31" points="1116.6,444.4 1116.6,558.4 1203.6,558.4 		"/>
		<polyline id="outline_x5F_3-8-1" class="st31" points="1203.6,627.4 1080.6,627.4 1080.6,444.4 		"/>
		<polyline id="outline_x5F_3-5-2" class="st31" points="627.6,594.4 654.6,594.4 654.6,480.4 627.6,480.4 		"/>
		<polyline id="outline_x5F_3-5-3" class="st31" points="753.6,480.4 726.6,480.4 726.6,594.4 753.6,594.4 		"/>
		<polyline id="outline_x5F_3-1-2" class="st31" points="153.6,552.4 117.6,552.4 117.6,630.4 		"/>
		<path id="outline_x5F_3-1-3" class="st31" d="M153.6,522.4h-21c-8.3,0-15-6.7-15-15c0-8.3,6.7-15,15-15h21"/>
		<path id="outline_x5F_3-7-3" class="st31" d="M975.6,630.4v-24c0-8.3,6.7-15,15-15s15,6.7,15,15v24"/>
		<path id="outline_x5F_3-7-2" class="st32" d="M1005.6,537.4h-30v-21c0-8.3,6.7-15,15-15s15,6.7,15,15V537.4z"/>
		<polyline id="outline_x5F_3-1-1" class="st31" points="30.6,630.4 30.6,447.4 153.6,447.4 		"/>
		<line id="outline_x5F_3-5-4" class="st31" x1="753.6" y1="627.4" x2="627.6" y2="627.4"/>
		<line id="outline_x5F_3-5-1" class="st31" x1="627.6" y1="447.4" x2="753.6" y2="447.4"/>
		<polyline id="outline_x5F_3-7-1" class="st31" points="930.6,630.4 930.6,447.4 1050.6,447.4 1050.6,630.4 		"/>
		<path id="outline_x5F_1-3-1" class="st31" d="M330.6,24.4v123c0,33.1,26.9,60,60,60s60-26.9,60-60v-123"/>
		<path id="outline_x5F_2-2-2" class="st31" d="M300.6,357.4c0,33.1-26.9,60-60,60s-60-26.9-60-60"/>
		<path id="outline_x5F_2-2-1" class="st31" d="M300.6,297.4c0-33.1-26.9-60-60-60s-60,26.9-60,60"/>
		<path id="outline_x5F_2-4-3" class="st31" d="M525.6,336.8c0,8.3,6.7,15,15,15s15-6.7,15-15v-18c0-8.3-6.7-15-15-15s-15,6.7-15,15
			V336.8z"/>
		<path id="outline_x5F_2-4-2" class="st31" d="M600.6,357.4c0,33.1-26.9,60-60,60s-60-26.9-60-60"/>
		<path id="outline_x5F_2-4-1" class="st31" d="M600.6,297.4c0-33.1-26.9-60-60-60s-60,26.9-60,60"/>
		<polyline id="outline_x5F_2-6-3" class="st31" points="903.6,303.4 855.6,303.4 858.4,300.6 		"/>
		<polyline id="outline_x5F_2-6-2" class="st31" points="777.6,351.4 825.6,351.4 820.9,356.1 		"/>
		<g>
			<g>
				<defs>
					<rect id="SVGID_61_" x="777.6" y="234.4" width="126" height="186"/>
				</defs>
				<clipPath id="SVGID_62_">
					<use xlink:href="#SVGID_61_"  style="overflow:visible;"/>
				</clipPath>
				<line id="outline_x5F_2-6-4" class="st33" x1="837.6" y1="423.4" x2="906.6" y2="354.4"/>
			</g>
			<g>
				<defs>
					<rect id="SVGID_63_" x="777.6" y="234.4" width="126" height="186"/>
				</defs>
				<clipPath id="SVGID_64_">
					<use xlink:href="#SVGID_63_"  style="overflow:visible;"/>
				</clipPath>
				<line id="outline_x5F_2-6-3_1_" class="st34" x1="858.4" y1="300.6" x2="906.6" y2="252.4"/>
			</g>
			<g>
				<defs>
					<rect id="SVGID_65_" x="777.6" y="234.4" width="126" height="186"/>
				</defs>
				<clipPath id="SVGID_66_">
					<use xlink:href="#SVGID_65_"  style="overflow:visible;"/>
				</clipPath>
				<line id="outline_x5F_2-6-1_1_" class="st35" x1="843.6" y1="231.4" x2="774.6" y2="300.4"/>
			</g>
			<g>
				<defs>
					<rect id="SVGID_67_" x="777.6" y="234.4" width="126" height="186"/>
				</defs>
				<clipPath id="SVGID_68_">
					<use xlink:href="#SVGID_67_"  style="overflow:visible;"/>
				</clipPath>
				<line id="outline_x5F_2-6-2_1_" class="st36" x1="820.9" y1="356.1" x2="774.6" y2="402.4"/>
			</g>
		</g>
		<g>
			<g>
				<defs>
					<rect id="SVGID_69_" x="327.6" y="444.4" width="126" height="186"/>
				</defs>
				<clipPath id="SVGID_70_">
					<use xlink:href="#SVGID_69_"  style="overflow:visible;"/>
				</clipPath>
				<line id="outline_x5F_3-3-4" class="st37" x1="387.6" y1="633.4" x2="456.6" y2="564.4"/>
			</g>
			<g>
				<defs>
					<rect id="SVGID_71_" x="327.6" y="444.4" width="126" height="186"/>
				</defs>
				<clipPath id="SVGID_72_">
					<use xlink:href="#SVGID_71_"  style="overflow:visible;"/>
				</clipPath>
				<line id="outline_x5F_3-3-3_1_" class="st38" x1="408.4" y1="510.6" x2="456.6" y2="462.4"/>
			</g>
			<g>
				<defs>
					<rect id="SVGID_73_" x="327.6" y="444.4" width="126" height="186"/>
				</defs>
				<clipPath id="SVGID_74_">
					<use xlink:href="#SVGID_73_"  style="overflow:visible;"/>
				</clipPath>
				<line id="outline_x5F_3-3-1" class="st39" x1="393.6" y1="441.4" x2="324.6" y2="510.4"/>
			</g>
			<g>
				<defs>
					<rect id="SVGID_75_" x="327.6" y="444.4" width="126" height="186"/>
				</defs>
				<clipPath id="SVGID_76_">
					<use xlink:href="#SVGID_75_"  style="overflow:visible;"/>
				</clipPath>
				<line id="outline_x5F_3-3-2_1_" class="st40" x1="372.6" y1="564.4" x2="324.6" y2="612.4"/>
			</g>
		</g>
		<polyline id="outline_x5F_3-3-3" class="st31" points="453.6,513.4 405.6,513.4 408.4,510.6 		"/>
		<polyline id="outline_x5F_3-3-2" class="st31" points="327.6,561.4 375.6,561.4 372.6,564.4 		"/>
		<polyline id="outline_x5F_3-6-2_1_" class="st31" points="838,495.1 834.6,498.4 834.6,444.4 		"/>
		<line id="outline_x5F_3-6-1" class="st31" x1="780.6" y1="630.4" x2="780.6" y2="444.4"/>
		<g>
			<g>
				<defs>
					<rect id="SVGID_77_" x="777.6" y="444.4" width="126" height="186"/>
				</defs>
				<clipPath id="SVGID_78_">
					<use xlink:href="#SVGID_77_"  style="overflow:visible;"/>
				</clipPath>
				<line id="outline_x5F_3-6-2" class="st41" x1="891.6" y1="441.4" x2="838" y2="495.1"/>
			</g>
			<g>
				<defs>
					<rect id="SVGID_79_" x="777.6" y="444.4" width="126" height="186"/>
				</defs>
				<clipPath id="SVGID_80_">
					<use xlink:href="#SVGID_79_"  style="overflow:visible;"/>
				</clipPath>
				<line id="outline_x5F_3-6-3" class="st42" x1="906.6" y1="537.4" x2="810.6" y2="633.4"/>
			</g>
		</g>
		<path id="outline_x5F_1-4-1" class="st43" d="M603.6,27.4h-77.4c-25.2,0-45.6,20.4-45.6,45.6c0,21.7,15.1,39.7,35.3,44.4
			c-20.2,4.7-35.3,22.7-35.3,44.4c0,25.2,20.4,45.6,45.6,45.6h77.4"/>
		<path id="outline_x5F_3-2-2" class="st31" d="M303.6,522.4h-15c-8.3,0-15-6.7-15-15c0-8.3,6.7-15,15-15h15"/>
		<path id="outline_x5F_3-2-3" class="st31" d="M303.6,552.4h-15c-8.3,0-15,6.7-15,15s6.7,15,15,15h15"/>
		<path id="outline_x5F_3-2-1" class="st43" d="M303.6,447.4h-77.4c-25.2,0-45.6,20.4-45.6,45.6c0,21.7,15.1,39.7,35.3,44.4
			c-20.2,4.7-35.3,22.7-35.3,44.4c0,25.2,20.4,45.6,45.6,45.6h77.4"/>
		<polyline id="outline_x5F_1-2-2" class="st31" points="240.6,210.4 240.6,159.4 243.7,162.4 		"/>
		<path id="outline_x5F_1-2-1_1_" class="st31" d="M265.6,136.4l-3.3-3.3c22.2-6.7,38.3-27.3,38.3-51.7c0-29.8-24.2-54-54-54h-66
			v183"/>
		<path id="outline_x5F_1-2-3" class="st32" d="M240.6,99.4v-30h9c8.3,0,15,6.7,15,15s-6.7,15-15,15H240.6z"/>
		<g>
			<g>
				<defs>
					<rect id="SVGID_81_" x="177.6" y="24.4" width="126" height="186"/>
				</defs>
				<clipPath id="SVGID_82_">
					<use xlink:href="#SVGID_81_"  style="overflow:visible;"/>
				</clipPath>
				<line id="outline_x5F_1-2-1" class="st44" x1="306.6" y1="177.4" x2="265.6" y2="136.4"/>
			</g>
			<g>
				<defs>
					<rect id="SVGID_83_" x="177.6" y="24.4" width="126" height="186"/>
				</defs>
				<clipPath id="SVGID_84_">
					<use xlink:href="#SVGID_83_"  style="overflow:visible;"/>
				</clipPath>
				<line id="outline_x5F_1-2-2_1_" class="st45" x1="243.7" y1="162.4" x2="294.6" y2="213.4"/>
			</g>
		</g>
		<polyline id="outline_x5F_2-5-2" class="st31" points="690.6,420.4 690.6,369.4 692.1,370.9 		"/>
		<path id="outline_x5F_2-5-1_1_" class="st31" d="M714.6,345.4l-2.3-2.3c22.2-6.7,38.3-27.3,38.3-51.7c0-29.8-24.2-54-54-54h-66
			v183"/>
		<path id="outline_x5F_2-5-3" class="st32" d="M690.6,309.4v-30h9c8.3,0,15,6.7,15,15s-6.7,15-15,15H690.6z"/>
		<g>
			<g>
				<defs>
					<rect id="SVGID_85_" x="627.6" y="234.4" width="126" height="186"/>
				</defs>
				<clipPath id="SVGID_86_">
					<use xlink:href="#SVGID_85_"  style="overflow:visible;"/>
				</clipPath>
				<line id="outline_x5F_2-5-2_1_" class="st46" x1="692.1" y1="370.9" x2="744.6" y2="423.4"/>
			</g>
			<g>
				<defs>
					<rect id="SVGID_87_" x="627.6" y="234.4" width="126" height="186"/>
				</defs>
				<clipPath id="SVGID_88_">
					<use xlink:href="#SVGID_87_"  style="overflow:visible;"/>
				</clipPath>
				<line id="outline_x5F_2-5-1" class="st47" x1="756.6" y1="387.4" x2="714.6" y2="345.4"/>
			</g>
		</g>
		<path id="outline_x5F_2-1-1" class="st31" d="M153.6,237.4h-33c-49.7,0-90,40.3-90,90s40.3,90,90,90h33"/>
		<path id="outline_x5F_2-1-2" class="st31" d="M153.6,345.4h-45c-9.9,0-18-8.1-18-18s8.1-18,18-18h45"/>
	</g>
</g>
</svg>
