<svg xmlns="http://www.w3.org/2000/svg" width="40" height="27.617" viewBox="0 0 40 27.617"><g transform="translate(0 -79.25)"><path d="M67.736,321.784a2.6,2.6,0,0,1-1.036,1.173,2.351,2.351,0,0,1-.56.24l-.632-2.338H61.015l1.566,7.91a1.032,1.032,0,0,0,1.012.831h2.931a1.033,1.033,0,0,0,1-1.3l-1.1-4.048c.084-.023.17-.05.255-.082a3.553,3.553,0,0,0,1.631-1.227,4.355,4.355,0,0,0,.748-1.715c-.345-.066-.706-.126-1.078-.178A3.592,3.592,0,0,1,67.736,321.784Z" transform="translate(-56.248 -222.734)" fill="#fff"/><path d="M109.011,79.25c-.825,0-2.155,1.408-2.728,1.981-.5.5-4.423,4.4-14.376,4.4V97.277c9.954,0,13.878,3.9,14.376,4.4.574.573,1.9,1.98,2.728,1.98a1.494,1.494,0,0,0,1.493-1.493V80.743A1.494,1.494,0,0,0,109.011,79.25Z" transform="translate(-84.726)" fill="#fff"/><path d="M5.822,160.969a5.822,5.822,0,1,0,0,11.643Z" transform="translate(0 -75.335)" fill="#fff"/><path d="M345.375,207.516v4.37a2.185,2.185,0,1,0,0-4.37Z" transform="translate(-318.393 -118.245)" fill="#fff"/><rect width="5.881" height="1.141" transform="translate(34.119 90.733)" fill="#fff"/><path d="M423.73,116.337l-.613-.962-5.352,3.411.615.963Z" transform="translate(-385.128 -33.303)" fill="#fff"/><path d="M417.766,302.712l5.352,3.412.613-.963-5.349-3.411Z" transform="translate(-385.128 -205.117)" fill="#fff"/></g></svg>