<svg enable-background="new 0 0 375.1 903.5" viewBox="0 0 375.1 903.5" xmlns="http://www.w3.org/2000/svg" xmlns:xlink="http://www.w3.org/1999/xlink"><clipPath id="a"><path d="m0 .3h375.1v903.2h-375.1z"/></clipPath><clipPath id="b"><path d="m1057.4 299.7h201.5v297.5h-201.5z"/></clipPath><clipPath id="c"><path d="m337.8 635.5h201.5v297.5h-201.5z"/></clipPath><clipPath id="d"><path d="m1057.4 635.5h201.5v297.5h-201.5z"/></clipPath><clipPath id="e"><path d="m97.9-36.2h201.5v297.5h-201.5z"/></clipPath><clipPath id="f"><path d="m817.5 299.7h201.5v297.5h-201.5z"/></clipPath><path d="m0 .3h375.1v903.2h-375.1z" fill="#fff"/><g clip-path="url(#a)"><path d="m-142-36.2h921.1v297.5h-921.1z" fill="#fff"/><path d="m-142 299.7h1400.9v297.5h-1400.9z" fill="#fff"/><path d="m-142 635.5h1880.6v297.5h-1880.6z" fill="none"/><path d="m1738.6 928.1h-196.6v-292.6h57.5v182.3h139.1z" fill="#da5532"/><path d="m462.5-36.2v124.8c0 13.3-10.7 24-24 24s-24-10.7-24-24v-124.8h-72v196.7c1.7 53 46.1 94.6 99 92.9 50.6-1.6 91.2-42.3 92.9-92.9v-196.7z" fill="#da5532"/><path d="m1258.9 299.7h-100.7l-100.8 100.7v86.4h76.8l-76.8 76.7v33.6h100.8l100.7-100.7v-86.4h-76.8l76.8-76.8z" fill="#da5532"/><path d="m299.4 928.1h-123.8c-40.3 0-72.9-32.6-72.9-72.9 0-34 23.4-63.4 56.5-71.1-39.2-9.1-63.7-48.2-54.6-87.4 7.6-33.1 37.1-56.5 71-56.5h123.8v72h-24c-13.3 0-24 10.7-24 24s10.7 24 24 24h24v48h-24c-13.3 0-24 10.7-24 24s10.7 24 24 24h24z" fill="#da5532"/><path d="m539.3 592.3h-196.7v-292.6h57.5v182.3h139.2z" fill="#80bbb8"/><path d="m59.5 808.2h-57.5v124.7h-139.1v-292.6h196.6v72h-33.6c-13.3 0-24 10.7-24 24s10.7 24 24 24h33.6z" fill="#80bbb8"/><path d="m817.5 875.4h43.2v-182.3h-43.2v-52.8h201.5v52.8h-43.2v182.3h43.2v52.7h-201.5z" fill="#80bbb8"/><path d="m233.4 137.6c45.6-13.8 71.4-62.1 57.6-107.7-11.1-36.4-44.7-61.3-82.7-61.3h-105.6v292.7h96v-81.7l81.7 81.7h19.1v-57.7zm-20.4-53.8h-14.4v-48h14.4c13.3 0 24 10.7 24 24s-10.7 24-24 24z" fill="#80bbb8"/><path d="m779.2 779.4h-52.8v153.5h-96v-153.5h-52.7v-139.1h201.5z" fill="#d85288"/><path d="m59.5 477.2h-72c-15.9.3-29-12.4-29.3-28.2s12.4-29 28.2-29.3h1.1 72v-115.2h-52.7c-79.5 0-143.9 64.5-143.8 144 0 79.4 64.4 143.8 143.8 143.8h52.8v-115.1z" fill="#d85288"/><path d="m953 473.4c45.6-13.8 71.4-62.1 57.6-107.7-11.1-36.4-44.7-61.3-82.7-61.3h-105.6v292.7h95.9v-81.7l81.7 81.7h19.1v-57.7zm-20.3-53.8h-14.4v-48h14.4c13.3 0 24 10.7 24 24s-10.8 24-24 24z" fill="#d85288"/><path d="m1148.6 635.5h-86.4v297.4h52.8l143.9-143.9v-153.5h-24l-86.3 86.3z" fill="#a0807b"/><path d="m779.1 256.5h-123.7c-40.3 0-72.9-32.6-72.9-72.9 0-33.9 23.4-63.4 56.5-71-39.2-9-63.7-48.2-54.7-87.4 7.6-33.1 37.1-56.5 71.1-56.5h123.8v72h-24c-13.3 0-24 10.7-24 24s10.7 24 24 24h24v48h-24c-13.3 0-24 10.7-24 24s10.7 24 24 24h24v71.8z" fill="#a0807b"/><path d="m294.6 400.4c-1.7-53-46.1-94.6-99-92.9-50.6 1.6-91.2 42.3-92.9 92.9h-4.8v96h4.8c1.7 53 46.1 94.6 99 92.9 50.6-1.6 91.2-42.3 92.9-92.9h4.8v-96zm-72 63c0 13.3-10.7 24-24 24s-24-10.7-24-24v-28.8c0-13.3 10.7-24 24-24s24 10.7 24 24z" fill="#a0807b"/><path d="m59.5 107.8h-52.7v153.5h-96v-153.5h-52.8v-139.2h201.5z" fill="#ffe600"/><path d="m539.3 635.5h-100.8l-100.7 100.7v86.4h76.7l-76.7 76.8v33.5h100.7l100.8-100.7v-86.4h-76.8l76.8-76.7z" fill="#ffe600"/><path d="m1302 640.3v292.6h72v-38.4c0-13.3 10.7-24 24-24s24 10.7 24 24v38.4h72v-292.6zm120 143.9h-48v-33.6c0-13.3 10.7-24 24-24s24 10.7 24 24z" fill="#ffe600"/><path d="m774.3 400.4c-1.7-53-46.1-94.6-99-92.9-50.6 1.6-91.2 42.3-92.9 92.9h-4.8v96h4.8c1.7 53 46.1 94.6 99 92.9 50.6-1.6 91.2-42.3 92.9-92.9h4.8v-96zm-72 63c0 13.3-10.7 24-24 24s-24-10.7-24-24v-28.8c0-13.3 10.7-24 24-24s24 10.7 24 24z" fill="#ffe600"/><g fill="none" stroke="#231815" stroke-width="9.6"><path d="m-89.2 261.3v-153.5h-52.8" stroke-miterlimit="10"/><path d="m59.5 107.8h-52.7v153.5" stroke-miterlimit="10"/><path d="m779.1 88.6h-24c-13.3 0-24-10.7-24-24s10.7-24 24-24h24" stroke-miterlimit="10"/><path d="m779.1 136.6h-24c-13.3 0-24 10.7-24 24s10.7 24 24 24h24" stroke-miterlimit="10"/><path d="m462.5-36.2v124.8c0 13.3-10.7 24-24 24s-24-10.7-24-24v-124.8" stroke-miterlimit="10"/><path d="m-142-31.4h201.5" stroke-miterlimit="10"/><path d="m630.4 932.9v-153.5h-52.7" stroke-miterlimit="10"/><path d="m779.2 779.4h-52.8v153.5" stroke-miterlimit="10"/><path d="m577.7 640.3h201.5" stroke-miterlimit="10"/><path d="m400.1 299.7v182.3h139.2" stroke-miterlimit="10"/><path d="m174.7 463.4c0 13.3 10.7 24 24 24s24-10.7 24-24v-28.8c0-13.3-10.7-24-24-24s-24 10.7-24 24z" stroke-miterlimit="10"/><path d="m59.5 477.2h-72c-15.9.3-29-12.4-29.3-28.2s12.4-29 28.2-29.3h1.1 72" stroke-miterlimit="10"/><path d="m539.3 592.3h-196.7v-292.6" stroke-miterlimit="10"/><path d="m1599.5 635.5v182.3h139.1" stroke-miterlimit="10"/><path d="m1738.6 928.1h-196.6v-292.6" stroke-miterlimit="10"/><path d="m817.5 875.4h43.2v-182.3h-43.2" stroke-miterlimit="10"/><path d="m1019 693.1h-43.2v182.3h43.2" stroke-miterlimit="10"/><path d="m59.5 808.2h-57.5v124.7" stroke-miterlimit="10"/><path d="m59.5 760.2h-33.6c-13.3 0-24-10.7-24-24s10.7-24 24-24h33.6" stroke-miterlimit="10"/><path d="m1374 932.9v-38.4c0-13.3 10.7-24 24-24s24 10.7 24 24v38.4" stroke-miterlimit="10"/><path d="m1422 784.2h-48v-33.6c0-13.3 10.7-24 24-24s24 10.7 24 24z" stroke-miterlimit="10"/><path d="m-137.2 932.9v-292.6h196.7" stroke-miterlimit="10"/><path d="m1019 928.1h-201.5" stroke-miterlimit="10"/><path d="m817.5 640.3h201.5" stroke-miterlimit="10"/><path d="m1302.1 932.9v-292.6h191.9v292.6" stroke-miterlimit="10"/><path d="m342.6-36.2v196.7c1.7 53 46.1 94.6 99 92.9 50.6-1.6 91.2-42.3 92.9-92.9v-196.7" stroke-miterlimit="10"/><path d="m294.6 496.4c-1.7 53-46.1 94.6-99 92.9-50.6-1.6-91.2-42.3-92.9-92.9" stroke-miterlimit="10"/><path d="m294.6 400.4c0-53-43-95.9-96-95.9s-95.9 43-95.9 95.9" stroke-miterlimit="10"/><path d="m654.4 463.4c0 13.3 10.7 24 24 24s24-10.7 24-24v-28.8c0-13.3-10.7-24-24-24s-24 10.7-24 24z" stroke-miterlimit="10"/><path d="m774.3 496.4c-1.7 53-46.1 94.6-99 92.9-50.6-1.6-91.2-42.3-92.9-92.9" stroke-miterlimit="10"/><path d="m774.3 400.4c0-53-43-95.9-96-95.9-52.9 0-95.9 42.9-95.9 95.9" stroke-miterlimit="10"/><g clip-path="url(#b)" stroke-miterlimit="10"><path d="m1153.4 601.9 110.3-110.3"/><path d="m1258.9 410h-76.8l81.6-81.5"/><path d="m1162.9 294.9-110.3 110.3"/><path d="m1057.4 486.8h76.8l-81.6 81.5"/></g><g clip-path="url(#c)" stroke-miterlimit="10"><path d="m433.7 937.7 110.4-110.3"/><path d="m539.3 745.8h-76.8l81.6-81.5"/><path d="m443.3 630.7-110.3 110.3"/><path d="m337.8 822.6h76.7l-81.5 81.6"/></g><g clip-path="url(#d)" stroke-miterlimit="10"><path d="m1239.7 630.7-91.1 91.1v-86.3"/><path d="m1263.7 784.2-153.5 153.5"/><path d="m1062.2 932.9v-297.4"/></g><path d="m779.1-31.4h-123.7c-40.3 0-72.9 32.6-72.9 72.9 0 34 23.4 63.4 56.5 71.1-39.2 9.1-63.7 48.2-54.6 87.4 7.6 33.1 37.1 56.5 71 56.5h123.8"/><path d="m299.4 760.2h-24c-13.3 0-24-10.7-24-24s10.7-24 24-24h24" stroke-miterlimit="10"/><path d="m299.4 808.2h-24c-13.3 0-24 10.7-24 24s10.7 24 24 24h24" stroke-miterlimit="10"/><path d="m299.4 640.3h-123.8c-40.3 0-72.9 32.6-72.9 72.9 0 33.9 23.4 63.4 56.5 71-39.2 9-63.7 48.2-54.7 87.4 7.6 33.1 37.1 56.5 71.1 56.5h123.8"/><g clip-path="url(#e)" stroke-miterlimit="10"><path d="m198.6 261.2v-81.6l86.4 86.4"/><path d="m304.2 208.4-70.8-70.8c45.6-13.8 71.4-62.1 57.6-107.7-11.1-36.4-44.7-61.3-82.7-61.3h-105.6v292.7"/><path d="m198.6 83.8v-48h14.4c13.3 0 24 10.7 24 24s-10.7 24-24 24z"/></g><g clip-path="url(#f)" stroke-miterlimit="10"><path d="m918.3 597v-81.6l86.3 86.4"/><path d="m1023.8 544.2-70.8-70.8c45.6-13.8 71.4-62.1 57.6-107.7-11.1-36.4-44.7-61.3-82.7-61.3h-105.6v292.7"/><path d="m918.3 419.6v-48h14.4c13.3 0 24 10.7 24 24s-10.7 24-24 24z"/></g><path d="m59.5 304.5h-52.7c-79.5 0-143.9 64.5-143.8 144 0 79.4 64.4 143.8 143.8 143.8h52.8" stroke-miterlimit="10"/></g></g></svg>