<svg viewBox="0 0 15 18" xmlns="http://www.w3.org/2000/svg"><path d="m14.5 18h-14a.5.5 0 0 1 -.5-.5v-4.14a.5.5 0 0 1 .5-.5.5.5 0 0 1 .5.5v3.64h13v-16h-13v3.64a.5.5 0 0 1 -.5.5.5.5 0 0 1 -.5-.5v-4.14a.5.5 0 0 1 .5-.5h14a.5.5 0 0 1 .5.5v17a.5.5 0 0 1 -.5.5z"/><path d="m.15 6.47h1.51c1.1 0 1.89.38 1.89 1.5s-.79 1.58-1.86 1.58h-.75v1.89h-.79zm1.46 2.46c.8 0 1.17-.31 1.17-1s-.41-.87-1.2-.87h-.64v1.87z"/><path d="m4.52 6.47h1.29a2.19 2.19 0 0 1 2.39 2.46 2.21 2.21 0 0 1 -2.35 2.51h-1.33zm1.23 4.33c1.07 0 1.64-.63 1.64-1.87s-.57-1.82-1.64-1.82h-.45v3.69z"/><path d="m9.23 6.47h2.94v.66h-2.17v1.51h1.83v.66h-1.83v2.14h-.77z"/></svg>