<svg enable-background="new 0 0 956 65.4" viewBox="0 0 956 65.4" xmlns="http://www.w3.org/2000/svg" xmlns:xlink="http://www.w3.org/1999/xlink"><clipPath id="a"><path d="m482 1.7h42v62h-42z"/></clipPath><clipPath id="b"><path d="m661 1.7h42v62h-42z"/></clipPath><clipPath id="c"><path d="m811 1.7h42v62h-42z"/></clipPath><clipPath id="d"><path d="m53 1.7h42v62h-42z"/></clipPath><clipPath id="e"><path d="m432 1.7h42v62h-42z"/></clipPath><path d="m3 1.7h192v62h-192z" fill="#fff"/><path d="m232 1.7h292v62h-292z" fill="#fff"/><path d="m561 1.7h392v62h-392z" fill="#fff"/><path d="m953 62.7h-41v-61h12v38h29z" fill="#e95532"/><path d="m129 1.7v26c0 2.8-2.2 5-5 5s-5-2.2-5-5v-26h-15v41c0 11 9 20 20 20s20-9 20-20v-41z" fill="#e95532"/><path d="m524 1.7h-21l-21 21v18h16l-16 16v7h21l21-21v-18h-16l16-16z" fill="#e95532"/><path d="m653 62.7h-25.8c-8.4 0-15.2-6.8-15.2-15.1 0-7.1 4.9-13.3 11.8-14.9-8.2-1.9-13.3-10-11.4-18.2 1.6-6.9 7.7-11.8 14.9-11.8h25.7v15h-5c-2.8 0-5 2.2-5 5s2.2 5 5 5h5v10h-5c-2.8 0-5 2.2-5 5s2.2 5 5 5h5z" fill="#e95532"/><path d="m374 62.7h-41v-61h12v38h29z" fill="#83cac7"/><path d="m603 37.7h-12v26h-29v-61h41v15h-7c-2.8 0-5 2.2-5 5s2.2 5 5 5h7z" fill="#83cac7"/><path d="m761 51.7h9v-38h-9v-11h42v11h-9v38h9v11h-42z" fill="#83cac7"/><path d="m81.2 37.9c9.5-2.9 14.9-13 12-22.5-2.3-7.5-9.3-12.7-17.2-12.7h-22v61h20v-17l17 17h4v-12zm-4.2-11.2h-3v-10h3c2.8 0 5 2.2 5 5s-2.2 5-5 5z" fill="#83cac7"/><path d="m753 31.7h-11v32h-20v-32h-11v-29h42z" fill="#e75297"/><path d="m274 38.7h-15c-3.3 0-6-2.7-6-6s2.7-6 6-6h15v-24h-11c-16.6 0-30 13.4-30 30s13.4 30 30 30h11z" fill="#e75297"/><path d="m460.2 37.9c9.5-2.9 14.9-13 12-22.5-2.3-7.6-9.3-12.8-17.2-12.8h-22v61h20v-17l17 17h4v-12zm-4.2-11.2h-3v-10h3c2.8 0 5 2.2 5 5s-2.2 5-5 5z" fill="#e75297"/><path d="m830 1.7h-18v62h11l30-30v-32h-5l-18 18z" fill="#af8b7b"/><path d="m195 62.7h-25.8c-8.4 0-15.2-6.8-15.2-15.1 0-7.1 4.9-13.3 11.8-14.9-8.2-1.9-13.3-10-11.4-18.2 1.6-6.9 7.7-11.8 14.9-11.8h25.7v15h-5c-2.8 0-5 2.2-5 5s2.2 5 5 5h5v10h-5c-2.8 0-5 2.2-5 5s2.2 5 5 5h5z" fill="#af8b7b"/><path d="m323 22.7c0-11-9-20-20-20s-20 9-20 20h-1v20h1c0 11 9 20 20 20s20-9 20-20h1v-20zm-15 13.1c0 2.8-2.2 5-5 5s-5-2.2-5-5v-6c0-2.8 2.2-5 5-5s5 2.2 5 5z" fill="#af8b7b"/><path d="m45 31.7h-11v32h-20v-32h-11v-29h42z" fill="#fff000"/><path d="m703 1.7h-21l-21 21v18h16l-16 16v7h21l21-21v-18h-16l16-16z" fill="#fff000"/><path d="m862 2.7v61h15v-8c0-2.8 2.2-5 5-5s5 2.2 5 5v8h15v-61zm25 30h-10v-7c0-2.8 2.2-5 5-5s5 2.2 5 5z" fill="#fff000"/><path d="m423 22.7c0-11-9-20-20-20s-20 9-20 20h-1v20h1c0 11 9 20 20 20s20-9 20-20h1v-20zm-15 13.1c0 2.8-2.2 5-5 5s-5-2.2-5-5v-6c0-2.8 2.2-5 5-5s5 2.2 5 5z" fill="#fff000"/><g fill="none" stroke="#231815" stroke-width="2"><path d="m14 63.7v-32h-11" stroke-miterlimit="10"/><path d="m45 31.7h-11v32" stroke-miterlimit="10"/><path d="m195 27.7h-5c-2.8 0-5-2.2-5-5s2.2-5 5-5h5" stroke-miterlimit="10"/><path d="m195 37.7h-5c-2.8 0-5 2.2-5 5s2.2 5 5 5h5" stroke-miterlimit="10"/><path d="m129 1.7v26c0 2.8-2.2 5-5 5s-5-2.2-5-5v-26" stroke-miterlimit="10"/><path d="m3 2.7h42" stroke-miterlimit="10"/><path d="m722 63.7v-32h-11" stroke-miterlimit="10"/><path d="m753 31.7h-11v32" stroke-miterlimit="10"/><path d="m711 2.7h42" stroke-miterlimit="10"/><path d="m345 1.7v38h29" stroke-miterlimit="10"/><path d="m298 35.8c0 2.8 2.2 5 5 5s5-2.2 5-5v-6c0-2.8-2.2-5-5-5s-5 2.2-5 5z" stroke-miterlimit="10"/><path d="m274 38.7h-15c-3.3 0-6-2.7-6-6s2.7-6 6-6h15" stroke-miterlimit="10"/><path d="m374 62.7h-41v-61" stroke-miterlimit="10"/><path d="m924 1.7v38h29" stroke-miterlimit="10"/><path d="m953 62.7h-41v-61" stroke-miterlimit="10"/><path d="m761 51.7h9v-38h-9" stroke-miterlimit="10"/><path d="m803 13.7h-9v38h9" stroke-miterlimit="10"/><path d="m603 37.7h-12v26" stroke-miterlimit="10"/><path d="m603 27.7h-7c-2.8 0-5-2.2-5-5s2.2-5 5-5h7" stroke-miterlimit="10"/><path d="m877 63.7v-8c0-2.8 2.2-5 5-5s5 2.2 5 5v8" stroke-miterlimit="10"/><path d="m887 32.7h-10v-7c0-2.8 2.2-5 5-5s5 2.2 5 5z" stroke-miterlimit="10"/><path d="m562 63.7v-61h41" stroke-miterlimit="10"/><path d="m803 62.7h-42" stroke-miterlimit="10"/><path d="m761 2.7h42" stroke-miterlimit="10"/><path d="m862 63.7v-61h40v61" stroke-miterlimit="10"/><path d="m104 1.7v41c0 11 9 20 20 20s20-9 20-20v-41" stroke-miterlimit="10"/><path d="m323 42.7c0 11-9 20-20 20s-20-9-20-20" stroke-miterlimit="10"/><path d="m323 22.7c0-11-9-20-20-20s-20 9-20 20" stroke-miterlimit="10"/><path d="m398 35.8c0 2.8 2.2 5 5 5s5-2.2 5-5v-6c0-2.8-2.2-5-5-5s-5 2.2-5 5z" stroke-miterlimit="10"/><path d="m423 42.7c0 11-9 20-20 20s-20-9-20-20" stroke-miterlimit="10"/><path d="m423 22.7c0-11-9-20-20-20s-20 9-20 20" stroke-miterlimit="10"/><g clip-path="url(#a)" stroke-miterlimit="10"><path d="m502 64.7 23-23"/><path d="m524 24.7h-16l17-17"/><path d="m504 .7-23 23"/><path d="m482 40.7h16l-17 17"/></g><g clip-path="url(#b)" stroke-miterlimit="10"><path d="m681 64.7 23-23"/><path d="m703 24.7h-16l17-17"/><path d="m683 .7-23 23"/><path d="m661 40.7h16l-17 17"/></g><g clip-path="url(#c)" stroke-miterlimit="10"><path d="m849 .7-19 19v-18"/><path d="m854 32.7-32 32"/><path d="m812 63.7v-62"/></g><path d="m195 2.7h-25.8c-8.4 0-15.2 6.8-15.2 15.1 0 7.1 4.9 13.3 11.8 14.9-8.2 1.9-13.3 10-11.4 18.2 1.6 6.9 7.7 11.8 14.9 11.8h25.7"/><path d="m653 27.7h-5c-2.8 0-5-2.2-5-5s2.2-5 5-5h5" stroke-miterlimit="10"/><path d="m653 37.7h-5c-2.8 0-5 2.2-5 5s2.2 5 5 5h5" stroke-miterlimit="10"/><path d="m653 2.7h-25.8c-8.4 0-15.2 6.8-15.2 15.1 0 7.1 4.9 13.3 11.8 14.9-8.2 1.9-13.3 10-11.4 18.2 1.6 6.9 7.7 11.8 14.9 11.8h25.7"/><g clip-path="url(#d)" stroke-miterlimit="10"><path d="m74 63.7v-17l18 18"/><path d="m96 52.7-14.8-14.8c9.5-2.9 14.9-13 12-22.5-2.3-7.5-9.3-12.7-17.2-12.7h-22v61"/><path d="m74 26.7v-10h3c2.8 0 5 2.2 5 5s-2.2 5-5 5z"/></g><g clip-path="url(#e)" stroke-miterlimit="10"><path d="m453 63.7v-17l18 18"/><path d="m475 52.7-14.8-14.8c9.5-2.9 14.9-13 12-22.5-2.3-7.6-9.3-12.8-17.2-12.8h-22v61"/><path d="m453 26.7v-10h3c2.8 0 5 2.2 5 5s-2.2 5-5 5z"/></g><path d="m274 2.7h-11c-16.6 0-30 13.4-30 30s13.4 30 30 30h11" stroke-miterlimit="10"/></g></svg>