<svg xmlns="http://www.w3.org/2000/svg" width="60" height="60" viewBox="0 -8.8635 60 60"><path d="M58.745,6.6a7.54,7.54,0,0,0-5.3-5.339C48.764,0,30,0,30,0S11.236,0,6.559,1.261A7.54,7.54,0,0,0,1.255,6.6C0,11.311,0,21.136,0,21.136s0,9.825,1.255,14.536a7.54,7.54,0,0,0,5.3,5.339C11.24,42.273,30,42.273,30,42.273s18.764,0,23.441-1.261a7.54,7.54,0,0,0,5.3-5.339C60,30.965,60,21.136,60,21.136S60,11.311,58.745,6.6Z" fill="#282828"/><path d="M70,53.673l15.682-8.922L70,35.83Z" transform="translate(-46.136 -23.615)" fill="#fff"/></svg>