<svg xmlns="http://www.w3.org/2000/svg" width="60" height="60" viewBox="0 -5.623 60 60"><g transform="translate(-1 -1.497)"><path d="M54.857,13.635c.037.529.037,1.058.037,1.592,0,16.266-12.383,35.025-35.025,35.025v-.01A34.849,34.849,0,0,1,1,44.723a25.039,25.039,0,0,0,2.93.178,24.718,24.718,0,0,0,15.288-5.28,12.325,12.325,0,0,1-11.5-8.548,12.27,12.27,0,0,0,5.558-.212A12.311,12.311,0,0,1,3.4,18.795v-.156a12.232,12.232,0,0,0,5.587,1.541A12.325,12.325,0,0,1,5.178,3.743,34.938,34.938,0,0,0,30.548,16.6,12.321,12.321,0,0,1,51.525,5.376a24.7,24.7,0,0,0,7.817-2.988A12.356,12.356,0,0,1,53.931,9.2,24.481,24.481,0,0,0,61,7.258,25.008,25.008,0,0,1,54.857,13.635Z" transform="translate(0 0)"/></g></svg>