<svg xmlns="http://www.w3.org/2000/svg" width="60" height="60" viewBox="0 0 60 60"><g transform="translate(0 0.01)"><path d="M30,5.4c8.011,0,8.958.031,12.122.175A16.605,16.605,0,0,1,47.692,6.6a9.306,9.306,0,0,1,3.45,2.243,9.277,9.277,0,0,1,2.243,3.45,16.605,16.605,0,0,1,1.032,5.571c.144,3.163.175,4.112.175,12.122s-.031,8.958-.175,12.122a16.605,16.605,0,0,1-1.032,5.571,9.927,9.927,0,0,1-5.693,5.693,16.605,16.605,0,0,1-5.571,1.032c-3.163.144-4.112.175-12.122.175s-8.96-.031-12.122-.175a16.605,16.605,0,0,1-5.571-1.032,9.306,9.306,0,0,1-3.45-2.243,9.277,9.277,0,0,1-2.243-3.45A16.605,16.605,0,0,1,5.58,42.112C5.436,38.95,5.405,38,5.405,29.99s.031-8.958.175-12.122A16.605,16.605,0,0,1,6.613,12.3a9.306,9.306,0,0,1,2.243-3.45A9.267,9.267,0,0,1,12.306,6.6a16.605,16.605,0,0,1,5.571-1.032C21.039,5.427,21.988,5.4,30,5.4M30-.009c-8.148,0-9.169.035-12.369.181a22,22,0,0,0-7.282,1.394,14.692,14.692,0,0,0-5.313,3.46,14.7,14.7,0,0,0-3.46,5.313A22.026,22.026,0,0,0,.181,17.621C.035,20.821,0,21.843,0,29.99s.035,9.169.181,12.369a22,22,0,0,0,1.394,7.282,14.692,14.692,0,0,0,3.46,5.313,14.7,14.7,0,0,0,5.313,3.46,22,22,0,0,0,7.282,1.394c3.2.146,4.221.181,12.369.181s9.169-.035,12.369-.181a22,22,0,0,0,7.282-1.394,15.344,15.344,0,0,0,8.774-8.774,22,22,0,0,0,1.394-7.282c.146-3.2.181-4.221.181-12.369s-.035-9.169-.181-12.369a22,22,0,0,0-1.394-7.282,14.692,14.692,0,0,0-3.46-5.313,14.7,14.7,0,0,0-5.313-3.46A22,22,0,0,0,42.369.171C39.169.025,38.148-.01,30-.01h0Z" transform="translate(0 0)"/><path d="M137.964,122.56a15.4,15.4,0,1,0,15.4,15.4A15.4,15.4,0,0,0,137.964,122.56Zm0,25.4a10,10,0,1,1,10-10A10,10,0,0,1,137.964,147.965Z" transform="translate(-107.965 -107.974)"/><circle cx="3.6" cy="3.6" r="3.6" transform="translate(42.413 10.376)"/></g></svg>