<svg xmlns="http://www.w3.org/2000/svg" width="60" height="60" viewBox="0 0 60 60"><path d="M60,30A30,30,0,1,0,25.312,59.636V38.672H17.7V30h7.617V23.391c0-7.519,4.479-11.672,11.331-11.672a46.131,46.131,0,0,1,6.715.586v7.383H39.577c-3.727,0-4.889,2.313-4.889,4.685V30h8.32l-1.33,8.672h-6.99V59.636A30.007,30.007,0,0,0,60,30Z"/><path d="M325.982,226.953l1.33-8.672h-8.32v-5.627c0-2.372,1.163-4.685,4.889-4.685h3.783v-7.383a46.131,46.131,0,0,0-6.715-.586c-6.853,0-11.331,4.153-11.331,11.672v6.609H302v8.672h7.617v20.964a30.325,30.325,0,0,0,9.375,0V226.953Z" transform="translate(-284.305 -188.281)" fill="#fff"/></svg>